<svg width="37" height="37" viewBox="0 0 37 37" fill="none" xmlns="http://www.w3.org/2000/svg">
<path d="M12.3751 5.43086C14.0604 5.03551 15.7803 4.83784 17.5 4.83784C18.2836 4.83784 18.9188 4.20257 18.9188 3.41892C18.9188 2.63527 18.2836 2 17.5 2C15.5627 2 13.6255 2.22268 11.727 2.66801C6.23971 3.95516 1.95516 8.2397 0.668017 13.727C-0.222672 17.5241 -0.222672 21.4759 0.668017 25.2731C1.95516 30.7603 6.23971 35.0449 11.727 36.3321C15.524 37.2226 19.4759 37.2226 23.273 36.3321C28.7602 35.0449 33.0448 30.7603 34.332 25.2731C34.7773 23.3743 34.9999 21.4373 34.9999 19.5C34.9999 18.7164 34.3647 18.0809 33.5811 18.0809C32.7975 18.0809 32.162 18.7164 32.162 19.5C32.162 21.2197 31.9645 22.9395 31.5692 24.625C30.5281 29.063 27.0629 32.5282 22.6249 33.5692C19.2541 34.3598 15.7459 34.3598 12.3751 33.5692C7.93709 32.5282 4.47187 29.063 3.43085 24.625C2.64017 21.2541 2.64017 17.7459 3.43085 14.3751C4.47187 9.93711 7.93709 6.47187 12.3751 5.43086Z" fill="#229397"/>
<path d="M31.9575 8.98472C31.9575 6.78438 30.185 5.01189 27.9847 5.01189C25.7844 5.01189 24.0119 6.78438 24.0119 8.98472C24.0119 11.1851 25.7844 12.9575 27.9847 12.9575C30.185 12.9575 31.9575 11.1851 31.9575 8.98472ZM36.8471 7.76232V10.2072C36.8471 10.36 36.7555 10.4516 36.5416 10.5127L34.7385 10.91C34.5857 11.4296 34.3718 11.9185 34.1273 12.4075L35.1052 13.966C35.1969 14.1494 35.2274 14.2716 35.1052 14.3939L33.3633 16.1358C33.2411 16.2581 33.1188 16.2581 32.9354 16.1358L31.3769 15.1579C30.9185 15.4329 30.3989 15.6163 29.8794 15.7691L29.4822 17.5722C29.421 17.7555 29.3599 17.8778 29.1766 17.8778H26.7317C26.5484 17.8778 26.4872 17.7861 26.4262 17.5722L26.0289 15.7691C25.5093 15.6163 25.0204 15.4024 24.5314 15.1579L22.9729 16.1358C22.7895 16.2275 22.6673 16.2581 22.545 16.1358L20.8336 14.3939C20.7114 14.2717 20.7114 14.1494 20.8336 13.966L21.8115 12.4075C21.5365 11.9491 21.3531 11.4295 21.2003 10.91L19.3973 10.5127C19.2139 10.4516 19.0917 10.3599 19.0917 10.2072V7.76232C19.0917 7.60951 19.1834 7.51783 19.3973 7.45673L21.2003 7.05942C21.3531 6.53988 21.567 6.05093 21.8115 5.56198L20.8336 4.0034C20.7419 3.82004 20.7114 3.69781 20.8336 3.57555L22.545 1.86416C22.6672 1.74193 22.7895 1.74193 22.9728 1.86416L24.5314 2.8421C24.9898 2.56706 25.5093 2.3837 26.0288 2.23088L26.4261 0.427814C26.4872 0.244452 26.5483 0.122223 26.7317 0.122223H29.1765C29.3599 0.122223 29.421 0.213904 29.4821 0.427814L29.8794 2.23088C30.3989 2.3837 30.8879 2.59761 31.3768 2.8421L32.9354 1.86416C33.1188 1.77248 33.241 1.74193 33.3633 1.86416L35.1052 3.57555C35.2274 3.69778 35.2274 3.82004 35.1052 4.0034L34.1272 5.56198C34.3717 6.02038 34.5856 6.53992 34.7385 7.05942L36.5415 7.45669C36.7249 7.51783 36.8471 7.60951 36.8471 7.76232Z" fill="#F9A000"/>
<path d="M27.9847 8.06791C28.5042 8.06791 28.9015 8.46519 28.9015 8.98472C28.9015 9.50426 28.5042 9.90153 27.9847 9.90153C27.4651 9.90153 27.0679 9.50426 27.0679 8.98472C27.0679 8.46519 27.4651 8.06791 27.9847 8.06791Z" fill="#F9A000"/>
<path d="M29.2071 18H26.7623C26.4567 18 26.365 17.7861 26.3039 17.5721L25.9371 15.8608C25.4787 15.7079 25.0203 15.5246 24.5925 15.3107L23.1256 16.258C22.9728 16.3192 22.7283 16.4719 22.5144 16.2275L20.7724 14.4855C20.5585 14.2716 20.6502 14.0577 20.7419 13.8743L21.6893 12.3769C21.4448 11.9491 21.2614 11.4907 21.1392 11.0323L19.4278 10.6655C19.275 10.6044 19 10.5128 19 10.2071V7.76229C19 7.4567 19.2139 7.36502 19.4279 7.30389L21.1392 6.93716C21.292 6.47876 21.4754 6.02035 21.6893 5.5925L20.7419 4.12564C20.6808 3.97283 20.528 3.72837 20.7725 3.51442L22.5144 1.77248C22.7589 1.52799 23.0339 1.6808 23.1256 1.74194L24.6231 2.68929C25.0509 2.4448 25.5093 2.26144 25.9677 2.13921L26.3344 0.42782C26.3956 0.275043 26.4873 0 26.7928 0H29.2377C29.5433 0 29.6349 0.21391 29.6961 0.427856L30.0628 2.13924C30.5212 2.29206 30.9796 2.47542 31.4075 2.68933L32.8743 1.74197C33.0272 1.68084 33.2716 1.52806 33.4856 1.77252L35.2275 3.51446C35.4414 3.72837 35.3497 3.94231 35.258 4.12567L34.3107 5.62312C34.5552 6.05097 34.7385 6.50938 34.8608 6.96778L36.5721 7.33451C36.725 7.39564 37 7.45673 37 7.79291V10.2377C37 10.5433 36.7861 10.635 36.5721 10.6961L34.8608 11.0629C34.708 11.5213 34.5246 11.9797 34.3107 12.4075L35.258 13.8744C35.3192 14.0272 35.4719 14.2717 35.2275 14.4856L33.4856 16.2276C33.2716 16.4415 33.0577 16.3498 32.8743 16.2581L31.3769 15.3107C30.949 15.5552 30.4906 15.7386 30.0322 15.8608L29.6655 17.5722C29.6044 17.725 29.5127 18 29.2071 18ZM24.562 14.9745C24.5925 14.9745 24.6231 14.9745 24.6231 15.0051C25.0815 15.2496 25.5704 15.4635 26.09 15.6163C26.1511 15.6163 26.1817 15.6774 26.2122 15.7385L26.6095 17.5416C26.6706 17.725 26.7012 17.725 26.7623 17.725H29.2071C29.2683 17.725 29.2988 17.725 29.3599 17.511L29.7572 15.7386C29.7572 15.6774 29.8183 15.6469 29.8794 15.6163C30.399 15.4635 30.8879 15.2802 31.3463 15.0051C31.4075 14.9746 31.4686 14.9746 31.4991 15.0051L33.0577 15.9831C33.2105 16.0747 33.2716 16.0442 33.3022 16.0136L35.0441 14.2717C35.0747 14.2411 35.1053 14.2105 35.0136 14.0272L34.0356 12.4991C34.0051 12.438 34.0051 12.3769 34.0356 12.3463C34.2801 11.8879 34.494 11.399 34.6469 10.8794C34.6469 10.8183 34.708 10.7878 34.7691 10.7572L36.5721 10.3599C36.7555 10.2988 36.7555 10.2683 36.7555 10.2071V7.76229C36.7555 7.70116 36.7555 7.67061 36.5416 7.60948L34.7691 7.2122C34.708 7.2122 34.6774 7.15107 34.6469 7.08998C34.4941 6.57044 34.3107 6.08149 34.0357 5.62308C34.0051 5.56195 34.0051 5.50085 34.0357 5.47027L35.0136 3.91169C35.1053 3.75888 35.0747 3.69778 35.0442 3.6672L33.3022 1.92526C33.2717 1.89471 33.2411 1.86413 33.0577 1.95581L31.5297 2.93375C31.4686 2.9643 31.4075 2.9643 31.3769 2.93375C30.9185 2.68926 30.4296 2.47535 29.91 2.32253C29.8489 2.29199 29.8183 2.2614 29.7878 2.2003L29.3905 0.397236C29.3294 0.213874 29.2988 0.213874 29.2377 0.213874H26.7928C26.7317 0.213874 26.7012 0.213874 26.64 0.427784L26.2428 2.20038C26.2428 2.26151 26.1816 2.29206 26.1205 2.32261C25.601 2.47542 25.112 2.65878 24.6536 2.93382C24.5925 2.96437 24.5314 2.96437 24.5008 2.93382L22.9423 1.95588C22.7894 1.8642 22.7284 1.89475 22.6978 1.92533L20.9558 3.66727C20.9253 3.69782 20.8947 3.7284 20.9864 3.91176L21.9643 5.43979C21.9949 5.50092 21.9949 5.56202 21.9643 5.5926C21.7198 6.05101 21.5059 6.53996 21.3531 7.0595C21.3226 7.12063 21.292 7.15118 21.2309 7.18173L19.4278 7.579C19.2445 7.64013 19.2445 7.67068 19.2445 7.73181V10.1766C19.2445 10.2378 19.2445 10.2683 19.4584 10.3295L21.2308 10.7267C21.292 10.7267 21.3225 10.7879 21.3531 10.849C21.5059 11.3685 21.6892 11.8575 21.9643 12.3159C21.9948 12.377 21.9948 12.4381 21.9643 12.4687L20.9864 14.0272C20.8947 14.1801 20.9252 14.2412 20.9558 14.2717L22.6977 16.0137C22.7283 16.0442 22.7589 16.0748 22.9422 15.9831L24.4702 15.0052C24.5008 14.9745 24.5314 14.9745 24.562 14.9745ZM27.9847 13.1104C25.7232 13.1104 23.8591 11.2462 23.8591 8.98472C23.8591 6.72325 25.7232 4.85909 27.9847 4.85909C30.2462 4.85909 32.1103 6.72325 32.1103 8.98472C32.1103 10.7878 30.949 12.3464 29.2682 12.8965C29.1765 12.927 29.1154 12.8659 29.0849 12.8048C29.0543 12.7436 29.1154 12.652 29.1765 12.6214C30.7657 12.1019 31.8353 10.635 31.8353 8.98472C31.8353 6.87607 30.1239 5.16468 28.0152 5.16468C25.9066 5.16468 24.1952 6.87607 24.1952 8.98472C24.1952 11.0934 25.9066 12.8048 28.0152 12.8048C28.1069 12.8048 28.1681 12.8659 28.1681 12.9576C28.1681 13.0492 28.0764 13.1104 27.9847 13.1104ZM27.9847 10.0543C27.4041 10.0543 26.9151 9.56539 26.9151 8.98472C26.9151 8.40406 27.404 7.9151 27.9847 7.9151C28.5653 7.9151 29.0543 8.40406 29.0543 8.98472C29.0543 9.56539 28.5653 10.0543 27.9847 10.0543ZM27.9847 8.22073C27.5568 8.22073 27.2207 8.5569 27.2207 8.98472C27.2207 9.41255 27.5569 9.74872 27.9847 9.74872C28.4125 9.74872 28.7487 9.41255 28.7487 8.98472C28.7487 8.5569 28.4125 8.22073 27.9847 8.22073Z" fill="#F9A000"/>
</svg>
