<svg xmlns="http://www.w3.org/2000/svg" width="35" height="39" fill="none" viewBox="0 0 35 39"><path fill="#229397" d="M12.3751 7.43086C14.0604 7.03551 15.7803 6.83784 17.5 6.83784C18.2836 6.83784 18.9188 6.20257 18.9188 5.41892C18.9188 4.63527 18.2836 4 17.5 4C15.5627 4 13.6255 4.22268 11.727 4.66801C6.23971 5.95516 1.95516 10.2397 0.668017 15.727C-0.222672 19.5241 -0.222672 23.4759 0.668017 27.2731C1.95516 32.7603 6.23971 37.0449 11.727 38.3321C15.524 39.2226 19.4759 39.2226 23.273 38.3321C28.7602 37.0449 33.0448 32.7603 34.332 27.2731C34.7773 25.3743 34.9999 23.4373 34.9999 21.5C34.9999 20.7164 34.3647 20.0809 33.5811 20.0809C32.7975 20.0809 32.162 20.7164 32.162 21.5C32.162 23.2197 31.9645 24.9395 31.5692 26.625C30.5281 31.063 27.0629 34.5282 22.6249 35.5692C19.2541 36.3598 15.7459 36.3598 12.3751 35.5692C7.93709 34.5282 4.47187 31.063 3.43085 26.625C2.64017 23.2541 2.64017 19.7459 3.43085 16.3751C4.47187 11.9371 7.93709 8.47187 12.3751 7.43086Z"/><path fill="#F9A000" d="M27.9999 0C25.5658 0 23.5925 1.95716 23.5925 4.37143C23.5925 6.7857 25.5658 8.7429 27.9999 8.7429C30.434 8.7429 32.4073 6.7857 32.4073 4.37143C32.4073 1.95716 30.434 0 27.9999 0Z"/><path fill="#F9A000" d="M30.601 10.6877C28.8779 10.4149 27.1221 10.4149 25.399 10.6877L25.2143 10.7169C22.7865 11.1012 21 13.1783 21 15.6168C21 16.933 22.0758 18 23.4028 18H32.5972C33.9242 18 35 16.933 35 15.6168C35 13.1783 33.2135 11.1012 30.7857 10.7169L30.601 10.6877Z"/><line x1="1" x2="35" y1="21.5" y2="21.5" stroke="#229397" stroke-width="3"/><rect width="5" height="4" x="7" y="26" fill="#229397" rx="1"/></svg>