<svg xmlns="http://www.w3.org/2000/svg" width="35" height="35" fill="none" viewBox="0 0 35 35"><path fill="#229397" d="M12.3751 3.43086C14.0604 3.03551 15.7803 2.83784 17.5 2.83784C18.2836 2.83784 18.9188 2.20257 18.9188 1.41892C18.9188 0.635269 18.2836 0 17.5 0C15.5627 0 13.6255 0.222678 11.727 0.668014C6.23971 1.95516 1.95516 6.2397 0.668017 11.727C-0.222672 15.5241 -0.222672 19.4759 0.668017 23.2731C1.95516 28.7603 6.23971 33.0449 11.727 34.3321C15.524 35.2226 19.4759 35.2226 23.273 34.3321C28.7602 33.0449 33.0448 28.7603 34.332 23.2731C34.7773 21.3743 34.9999 19.4373 34.9999 17.5C34.9999 16.7164 34.3647 16.0809 33.5811 16.0809C32.7975 16.0809 32.162 16.7164 32.162 17.5C32.162 19.2197 31.9645 20.9395 31.5692 22.625C30.5281 27.063 27.0629 30.5282 22.6249 31.5692C19.2541 32.3598 15.7459 32.3598 12.3751 31.5692C7.93709 30.5282 4.47187 27.063 3.43085 22.625C2.64017 19.2541 2.64017 15.7459 3.43085 12.3751C4.47187 7.93711 7.93709 4.47187 12.3751 3.43086Z"/><path fill="#F9A000" d="M26.0136 0C25.23 0 24.5946 0.635269 24.5946 1.41892C24.5946 2.20257 25.23 2.83784 26.0136 2.83784H30.1555L21.2264 11.7669C20.6724 12.3211 20.6724 13.2195 21.2264 13.7737C21.7806 14.3276 22.6791 14.3276 23.2331 13.7737L32.1621 4.84449V8.98648C32.1621 9.77013 32.7976 10.4054 33.5812 10.4054C34.3648 10.4054 35 9.77013 35 8.98648V1.41892C35 0.635269 34.3648 0 33.5812 0H26.0136Z"/></svg>