<svg width="35" height="37" viewBox="0 0 35 37" fill="none" xmlns="http://www.w3.org/2000/svg">
<path d="M12.3751 5.43086C14.0604 5.03551 15.7803 4.83784 17.5 4.83784C18.2836 4.83784 18.9188 4.20257 18.9188 3.41892C18.9188 2.63527 18.2836 2 17.5 2C15.5627 2 13.6255 2.22268 11.727 2.66801C6.23971 3.95516 1.95516 8.2397 0.668017 13.727C-0.222672 17.5241 -0.222672 21.4759 0.668017 25.2731C1.95516 30.7603 6.23971 35.0449 11.727 36.3321C15.524 37.2226 19.4759 37.2226 23.273 36.3321C28.7602 35.0449 33.0448 30.7603 34.332 25.2731C34.7773 23.3743 34.9999 21.4372 34.9999 19.5C34.9999 18.7164 34.3647 18.0809 33.5811 18.0809C32.7975 18.0809 32.162 18.7164 32.162 19.5C32.162 21.2197 31.9645 22.9395 31.5692 24.625C30.5281 29.063 27.0629 32.5282 22.6249 33.5692C19.2541 34.3598 15.7459 34.3598 12.3751 33.5692C7.93709 32.5282 4.47187 29.063 3.43085 24.625C2.64017 21.2541 2.64017 17.7459 3.43085 14.3751C4.47187 9.93711 7.93709 6.47187 12.3751 5.43086Z" fill="#229397"/>
<path d="M28 1C28.663 1 29.2989 1.26339 29.7678 1.73223C30.2366 2.20107 30.5 2.83696 30.5 3.5V4H25.5V3.5C25.5 2.83696 25.7634 2.20107 26.2322 1.73223C26.7011 1.26339 27.337 1 28 1ZM31.5 4V3.5C31.5 2.57174 31.1313 1.6815 30.4749 1.02513C29.8185 0.368749 28.9283 0 28 0C27.0717 0 26.1815 0.368749 25.5251 1.02513C24.8687 1.6815 24.5 2.57174 24.5 3.5V4H21V14C21 14.5304 21.2107 15.0391 21.5858 15.4142C21.9609 15.7893 22.4696 16 23 16H33C33.5304 16 34.0391 15.7893 34.4142 15.4142C34.7893 15.0391 35 14.5304 35 14V4H31.5Z" fill="#F9A000"/>
</svg>
