<svg width="35" height="35" viewBox="0 0 35 35" fill="none" xmlns="http://www.w3.org/2000/svg">
<path d="M10.094 0.303231C8.37034 -0.101077 6.57653 -0.101077 4.8529 0.303231C2.59542 0.83276 0.832761 2.59542 0.303231 4.85289C-0.101077 6.57652 -0.101077 8.37033 0.303231 10.094C0.832761 12.3514 2.59542 14.1141 4.8529 14.6436C6.57653 15.048 8.37034 15.048 10.094 14.6436C12.3514 14.1141 14.1141 12.3514 14.6436 10.094C15.048 8.37033 15.048 6.57652 14.6436 4.85289C14.1141 2.59542 12.3514 0.83276 10.094 0.303231Z" fill="#229397"/>
<path d="M10.094 20.3564C8.37034 19.9519 6.57653 19.9519 4.8529 20.3564C2.59542 20.8858 0.832761 22.6485 0.303231 24.906C-0.101077 26.6295 -0.101077 28.4235 0.303231 30.147C0.832761 32.4045 2.59542 34.1671 4.8529 34.6968C6.57653 35.1011 8.37034 35.1011 10.094 34.6968C12.3514 34.1671 14.1141 32.4045 14.6436 30.147C15.048 28.4235 15.048 26.6295 14.6436 24.906C14.1141 22.6485 12.3514 20.8858 10.094 20.3564Z" fill="#229397"/>
<path d="M30.147 0.303231C28.4234 -0.101077 26.6295 -0.101077 24.9059 0.303231C22.6484 0.83276 20.8858 2.59542 20.3563 4.85289C19.9519 6.57652 19.9519 8.37033 20.3563 10.094C20.8858 12.3514 22.6484 14.1141 24.9059 14.6436C26.6295 15.048 28.4234 15.048 30.147 14.6436C32.4045 14.1141 34.1671 12.3514 34.6968 10.094C35.101 8.37033 35.101 6.57652 34.6968 4.85289C34.1671 2.59542 32.4045 0.83276 30.147 0.303231Z" fill="#F9A000"/>
<path d="M30.147 20.3564C28.4234 19.9519 26.6295 19.9519 24.9059 20.3564C22.6484 20.8858 20.8858 22.6485 20.3563 24.906C19.9519 26.6295 19.9519 28.4235 20.3563 30.147C20.8858 32.4045 22.6484 34.1671 24.9059 34.6968C26.6295 35.1011 28.4234 35.1011 30.147 34.6968C32.4045 34.1671 34.1671 32.4045 34.6968 30.147C35.101 28.4235 35.101 26.6295 34.6968 24.906C34.1671 22.6485 32.4045 20.8858 30.147 20.3564Z" fill="#229397"/>
</svg>
