<svg width="36" height="42" viewBox="0 0 36 42" fill="none" xmlns="http://www.w3.org/2000/svg">
<path d="M12.3751 10.4309C14.0604 10.0355 15.7803 9.83784 17.5 9.83784C18.2836 9.83784 18.9188 9.20257 18.9188 8.41892C18.9188 7.63527 18.2836 7 17.5 7C15.5627 7 13.6255 7.22268 11.727 7.66801C6.23971 8.95516 1.95516 13.2397 0.668017 18.727C-0.222672 22.5241 -0.222672 26.4759 0.668017 30.2731C1.95516 35.7603 6.23971 40.0449 11.727 41.3321C15.524 42.2226 19.4759 42.2226 23.273 41.3321C28.7602 40.0449 33.0448 35.7603 34.332 30.2731C34.7773 28.3743 34.9999 26.4373 34.9999 24.5C34.9999 23.7164 34.3647 23.0809 33.5811 23.0809C32.7975 23.0809 32.162 23.7164 32.162 24.5C32.162 26.2197 31.9645 27.9395 31.5692 29.625C30.5281 34.063 27.0629 37.5282 22.6249 38.5692C19.2541 39.3598 15.7459 39.3598 12.3751 38.5692C7.93709 37.5282 4.47187 34.063 3.43085 29.625C2.64017 26.2541 2.64017 22.7459 3.43085 19.3751C4.47187 14.9371 7.93709 11.4719 12.3751 10.4309Z" fill="#229397"/>
<path d="M16 37C21.5229 37 26 32.5229 26 27C26 21.4772 21.5229 17 16 17C10.4772 17 6 21.4772 6 27C6 32.5229 10.4772 37 16 37Z" fill="#F9A000"/>
<path d="M34.7367 3.56396L22.0088 16.2919L23.1517 17.4348L35.8796 4.70689L34.7367 3.56396Z" fill="#F9A000"/>
<path d="M32.9615 20.9037V19.7291C32.2729 19.7214 31.5977 19.5377 31 19.1959L31.3273 18.059C31.8997 18.3981 32.5506 18.5818 33.2158 18.5921C33.9781 18.5921 34.4993 18.2164 34.4993 17.6348C34.4993 17.0896 34.0756 16.7372 33.1799 16.4117C31.9083 15.9515 31.0856 15.3705 31.0856 14.245C31.0856 13.2038 31.812 12.4044 33.0351 12.1866V11H34.0278V12.1261C34.6074 12.1324 35.1784 12.2688 35.6984 12.5253L35.3711 13.6406C34.8629 13.374 34.2982 13.2329 33.7244 13.2289C32.8771 13.2289 32.5743 13.6652 32.5743 14.0762C32.5743 14.5729 33.0099 14.8511 34.0391 15.2628C35.395 15.7714 36 16.4248 36 17.5025C35.9758 18.6408 35.0897 19.5739 33.9542 19.6567V20.9037H32.9615Z" fill="#F9A000"/>
<path d="M23.9617 9.90417V8.72943C23.273 8.72172 22.5978 8.53808 22 8.19622L22.3273 7.05917C22.8998 7.39826 23.5508 7.58206 24.216 7.59239C24.9785 7.59239 25.4997 7.21656 25.4997 6.63487C25.4997 6.08969 25.076 5.73721 24.1795 5.41165C22.9084 4.95145 22.085 4.37036 22.085 3.24469C22.085 2.2034 22.8115 1.40387 24.0347 1.18604V0H25.0275V1.12627C25.6073 1.13256 26.1783 1.269 26.6984 1.52543L26.371 2.63794C25.8627 2.37133 25.298 2.23018 24.7241 2.22621C23.8767 2.22621 23.5739 2.66248 23.5739 3.07361C23.5739 3.57032 24.0096 3.84859 25.0389 4.26032C26.395 4.769 27 5.4225 27 6.5003C26.9758 7.63892 26.0892 8.57219 24.9533 8.6547V9.90186L23.9617 9.90417Z" fill="#F9A000"/>
</svg>
