<svg width="44" height="39" viewBox="0 0 44 39" fill="none" xmlns="http://www.w3.org/2000/svg">
<path fill-rule="evenodd" clip-rule="evenodd" d="M3.04836 20C2.89127 22.4342 3.11691 24.8843 3.72528 27.2731C5.12275 32.7603 9.77456 37.0449 15.7322 38.3321C19.8547 39.2226 24.1453 39.2226 28.2679 38.3321C34.2254 37.0449 38.8773 32.7603 40.2748 27.2731C40.7583 25.3743 41 23.4372 41 21.5C41 20.7164 40.3103 20.0809 39.4595 20.0809C38.6087 20.0809 37.9188 20.7164 37.9188 21.5C37.9188 23.2197 37.7043 24.9395 37.2752 26.625C36.1449 31.063 32.3827 34.5282 27.5643 35.5692C23.9044 36.3598 20.0956 36.3598 16.4358 35.5692C11.6174 34.5282 7.85518 31.063 6.72493 26.625C6.17084 24.4492 5.97438 22.2163 6.13557 20H3.04836Z" fill="#229397"/>
<path d="M38.7702 16.8763C38.5566 17.0011 38.2831 17.0698 38 17.0698C37.7169 17.0698 37.4433 17.0011 37.2298 16.8763L33.7428 14.8386C33.7428 14.8386 33.4281 14.6548 33.4281 15.0712C33.4281 15.544 33.4281 16.9626 33.4281 16.9626C33.4281 16.9815 33.4281 17.0765 33.4281 17.1059C33.4281 18.1778 35.475 19.3333 37.9999 19.3333C40.5248 19.3333 42.5716 18.1778 42.5716 17.1059C42.5716 17.0765 42.5716 16.9815 42.5716 16.9626C42.5716 16.9626 42.5716 15.458 42.5716 14.9565C42.5716 14.6222 42.3479 14.7855 42.3479 14.7855L38.7702 16.8763Z" fill="#F9A000"/>
<path d="M43.7991 13.2177C44.067 13.0612 44.067 12.805 43.7991 12.6484L38.4871 10.1174C38.2192 9.96086 37.7808 9.96086 37.5128 10.1174L32.2009 12.6484C31.933 12.8049 31.933 13.0612 32.2009 13.2177L37.5128 16.3219C37.7808 16.4784 38.2192 16.4784 38.4871 16.3219" fill="#F9A000"/>
<path d="M43.5794 17.8188C43.5794 16.9617 43.5794 14.3905 43.5794 14.3905C43.5794 14.3905 43.5819 14.2282 43.4808 14.2818C43.3996 14.3248 43.2008 14.4304 43.1308 14.4885C43.0499 14.5554 43.0681 14.7058 43.0681 14.7058C43.0681 14.7058 43.0681 17.0406 43.0681 17.8188C43.0681 17.863 43.0282 17.8841 43.0092 17.8947C42.8256 17.9976 42.7021 18.1875 42.7021 18.4051C42.7021 18.7322 42.9804 18.9974 43.3238 18.9974C43.6671 18.9974 43.9453 18.7322 43.9453 18.4051C43.9453 18.1866 43.821 17.9962 43.6362 17.8936C43.6178 17.8834 43.5794 17.863 43.5794 17.8188Z" fill="#F9A000"/>
<path d="M2.84752 17.8002V18.7459C2.84752 19.2748 2.42048 19.6917 1.90179 19.6917C1.3831 19.6917 0.955862 19.2748 0.955862 18.7459V17.8002H0V14.7086C0 14.0272 0.457655 13.4678 1.07793 13.295L2.18648 10.661C2.3491 10.2746 2.72545 10 3.17297 10H8.83738C9.2849 10 9.66103 10.2746 9.82386 10.661L10.9221 13.295C11.5423 13.468 12 14.0272 12 14.7086V17.8H11.034V18.7457C11.034 19.2746 10.607 19.6914 10.0883 19.6914C9.55945 19.6914 9.14255 19.2746 9.14255 18.7457V17.8H2.84752V17.8002ZM1.96262 16.1018C2.49145 16.1018 2.91848 15.6748 2.91848 15.1459C2.91848 14.6171 2.49145 14.1901 1.96262 14.1901C1.43379 14.1901 1.00676 14.6171 1.00676 15.1459C1.00676 15.6748 1.434 16.1018 1.96262 16.1018ZM10.9322 15.1459C10.9322 14.6171 10.5052 14.1901 9.97635 14.1901C9.44752 14.1901 9.02048 14.6171 9.02048 15.1459C9.02048 15.6748 9.44752 16.1018 9.97635 16.1018C10.5052 16.1018 10.9322 15.6748 10.9322 15.1459ZM9.97635 13.2441L9.03062 10.9662C8.98986 10.8543 8.87814 10.773 8.74593 10.773H3.25428C3.13221 10.773 3.02028 10.8543 2.97972 10.9662L2.034 13.2441H9.97635Z" fill="#F9A000"/>
<path d="M23.6498 34.9991C23.6498 34.9991 21.9839 31.6081 25.1873 29.2601C28.3907 26.9122 29.289 25.609 29.289 25.609C29.289 25.609 31.0826 25.0875 30.314 26.6525C29.7983 27.6515 29.1023 28.537 28.2642 29.2601C28.2642 29.2601 30.6986 28.7386 31.3394 26.6518C31.9802 24.565 31.3394 23.3914 32.877 23C32.877 23 33.6456 26.9126 31.3394 29.2601C29.0332 31.6077 26.3423 32.5206 26.2141 34.9991H23.6498Z" fill="#F9A000"/>
<path d="M20.3498 34.9994C20.3498 34.9994 22.0156 31.6084 18.8122 29.2604C15.6088 26.9125 14.7106 25.6094 14.7106 25.6094C14.7106 25.6094 12.9166 25.0875 13.6856 26.6528C14.2013 27.6518 14.8973 28.5373 15.7353 29.2604C15.7353 29.2604 13.301 28.7393 12.6605 26.6528C12.0201 24.5663 12.6605 23.3924 11.123 23.001C11.123 23.001 10.3543 26.9136 12.6605 29.2611C14.9668 31.6087 17.6576 32.5215 17.7858 35.0001L20.3498 34.9994Z" fill="#F9A000"/>
<path d="M22 2L14.6072 8.86475V10.3571V20H29.3929V10.3571V8.86475L22 2Z" fill="#E7ECED"/>
<path d="M24.25 20H19.75V12.9083C19.75 12.5644 20.0287 12.2857 20.3726 12.2857H23.6274C23.9713 12.2857 24.25 12.5644 24.25 12.9083V20Z" fill="#F9A000"/>
<path d="M28.1071 7.67097V3.60715H25.5356V5.2834L28.1071 7.67097Z" fill="#6C4127"/>
<path d="M13 10.3571L22 2L31 10.3571" stroke="#F9A000" stroke-width="2" stroke-miterlimit="10" stroke-linecap="round"/>
</svg>
