<svg width="39" height="40" viewBox="0 0 39 40" fill="none" xmlns="http://www.w3.org/2000/svg">
<path d="M12.3751 8.43086C14.0604 8.03551 15.7803 7.83784 17.5 7.83784C18.2836 7.83784 18.9188 7.20257 18.9188 6.41892C18.9188 5.63527 18.2836 5 17.5 5C15.5627 5 13.6255 5.22268 11.727 5.66801C6.23971 6.95516 1.95516 11.2397 0.668017 16.727C-0.222672 20.5241 -0.222672 24.4759 0.668017 28.2731C1.95516 33.7603 6.23971 38.0449 11.727 39.3321C15.524 40.2226 19.4759 40.2226 23.273 39.3321C28.7602 38.0449 33.0448 33.7603 34.332 28.2731C34.7773 26.3743 34.9999 24.4373 34.9999 22.5C34.9999 21.7164 34.3647 21.0809 33.5811 21.0809C32.7975 21.0809 32.162 21.7164 32.162 22.5C32.162 24.2197 31.9645 25.9395 31.5692 27.625C30.5281 32.063 27.0629 35.5282 22.6249 36.5692C19.2541 37.3598 15.7459 37.3598 12.3751 36.5692C7.93709 35.5282 4.47187 32.063 3.43085 27.625C2.64017 24.2541 2.64017 20.7459 3.43085 17.3751C4.47187 12.9371 7.93709 9.47187 12.3751 8.43086Z" fill="#229397"/>
<path d="M32 0C28.1402 0 25 3.1402 25 7C25 10.8598 28.1402 14 32 14C35.8598 14 39 10.8599 39 7C39 3.14015 35.8599 0 32 0ZM32 12.963C28.712 12.963 26.037 10.288 26.037 7C26.037 3.71202 28.712 1.03704 32 1.03704C35.288 1.03704 37.963 3.71202 37.963 7C37.963 10.288 35.288 12.963 32 12.963Z" fill="#F9A000"/>
<path d="M32.7777 4.40741H32.5184V3.62963H31.4814V4.40741H31.2221C30.6503 4.40741 30.1851 4.87263 30.1851 5.44445V6.48149C30.1851 7.05331 30.6503 7.51852 31.2221 7.51852H31.9999H32.7777V8.55556H31.2221V8.03704H30.1851V8.55556C30.1851 9.12738 30.6503 9.5926 31.2221 9.5926H31.4814V10.3704H32.5184V9.5926H32.7777C33.3495 9.5926 33.8147 9.12738 33.8147 8.55556V7.51852C33.8147 6.9467 33.3495 6.48149 32.7777 6.48149H31.9999H31.2221V5.44445H32.7777V5.96297H33.8147V5.44445C33.8147 4.87263 33.3495 4.40741 32.7777 4.40741Z" fill="#F9A000"/>
<path d="M36.4074 6.48146H35.3704V7.5185H36.4074V6.48146Z" fill="#F9A000"/>
<path d="M28.6296 6.48146H27.5925V7.5185H28.6296V6.48146Z" fill="#F9A000"/>
<path d="M22.3349 29.7345C22.6189 29.4505 22.6381 29.0092 22.3777 28.7489C22.1174 28.4885 21.6761 28.5077 21.3921 28.7917C21.108 29.0758 21.0889 29.517 21.3492 29.7774C21.6096 30.0377 22.0509 30.0186 22.3349 29.7345Z" fill="#F9A000"/>
<path d="M24.0705 23.7563L16.3566 31.4702L7.39988 22.5135L15.1138 14.7996L18.1779 17.8637L18.6922 17.3495L14.7807 13.438C14.2084 12.8657 13.2343 12.9078 12.6098 13.5324L6.13266 20.0095C5.50809 20.634 5.46598 21.6081 6.03827 22.1804L18.1036 34.2458C18.6762 34.8183 19.6502 34.7762 20.2748 34.1516L26.7516 27.6748C27.3762 27.0502 27.4183 26.0761 26.846 25.5038L21.2846 19.9425L20.7704 20.4567L24.0702 23.7565L24.0705 23.7563ZM10.8497 16.7066L11.1068 16.4495C11.2488 16.3076 11.4693 16.2977 11.5997 16.4281C11.73 16.5584 11.7202 16.779 11.5782 16.9209L11.3211 17.1781C11.1792 17.32 10.9586 17.3298 10.8283 17.1995C10.6979 17.0691 10.7078 16.8486 10.8497 16.7066ZM9.04979 18.5066L10.0783 17.478C10.2202 17.3361 10.4408 17.3263 10.5711 17.4566C10.7015 17.587 10.6917 17.8075 10.5497 17.9494L9.5212 18.978C9.37926 19.1199 9.15871 19.1297 9.02837 18.9994C8.89802 18.869 8.90786 18.6485 9.04979 18.5066ZM22.8062 30.206C22.239 30.7732 21.3549 30.8116 20.8349 30.2917C20.3149 29.7717 20.3534 28.8876 20.9206 28.3203C21.4878 27.7531 22.372 27.7147 22.8919 28.2346C23.4119 28.7546 23.3735 29.6387 22.8062 30.206Z" fill="#F9A000"/>
<path d="M15.6925 24.1203L24.222 15.5908L24.038 19.8222C24.0213 20.2071 24.3197 20.5055 24.7046 20.4888C24.897 20.4807 25.0746 20.395 25.2063 20.2634C25.3379 20.1317 25.4236 19.9541 25.4317 19.7616L25.6891 13.8484C25.6913 13.8023 25.6882 13.7564 25.6813 13.7115C25.6782 13.6919 25.6716 13.6745 25.6672 13.6558C25.6611 13.6312 25.6566 13.6066 25.6475 13.5831C25.6391 13.5608 25.6269 13.541 25.6163 13.52C25.607 13.502 25.5997 13.4834 25.5886 13.4661C25.5407 13.392 25.4782 13.3295 25.4041 13.2816C25.3869 13.2705 25.3682 13.2632 25.3502 13.2539C25.3293 13.2433 25.3094 13.2311 25.2871 13.2227C25.2639 13.2139 25.239 13.2091 25.2144 13.203C25.1959 13.1984 25.178 13.1918 25.1587 13.1889C25.1138 13.182 25.0681 13.1791 25.0218 13.1811L19.1083 13.4382C18.7237 13.4547 18.3976 13.7807 18.3812 14.1654C18.3644 14.5503 18.6628 14.8487 19.0477 14.832L23.2792 14.648L14.7497 23.1775C14.4658 23.4614 14.4466 23.9029 14.7068 24.1632C14.967 24.4234 15.4086 24.4042 15.6925 24.1203Z" fill="#F9A000"/>
</svg>
