<svg xmlns="http://www.w3.org/2000/svg" viewBox="0 0 500 500"><g id="freepik--Mountains--inject-33"><g id="freepik--mountains--inject-33"><path id="freepik--Mountain--inject-33" d="M455.13,286.68v-109l-37.4-56.14a4.07,4.07,0,0,0-6.66-.16L380,163.56,328.55,78.15A4.07,4.07,0,0,0,321.4,78L287,129.18,267.93,105a4.07,4.07,0,0,0-6.72.48L233.76,144.8,198.65,95.55a4.07,4.07,0,0,0-7.11-.08l-43.08,61.06-16.93-25.41a4.06,4.06,0,0,0-6.77,0l-16.92,25.41L81.06,120.44a4.07,4.07,0,0,0-6.79.39l-29.4,50.92V286.68Z" style="fill:#e6e6e6"/><g id="freepik--Snow--inject-33"><path d="M267.93,105l6.93,8.8-2.34,2.71a2.81,2.81,0,0,1-4.31-.07l-1.52-1.86a2.81,2.81,0,0,0-4.29-.1h0a2.81,2.81,0,0,1-4.55-.48l-1.15-2,4.51-6.48A4.07,4.07,0,0,1,267.93,105Z" style="fill:#fafafa"/><path d="M198.65,95.55l14.78,20.73-3.27,6.46a3.08,3.08,0,0,1-5.35.28l-2.92-4.56a3.08,3.08,0,0,0-5-.3h0a3.08,3.08,0,0,1-4.86-.14l-3-4.12a3.09,3.09,0,0,0-4.4-.59l-9.42,5.29,16.32-23.13A4.07,4.07,0,0,1,198.65,95.55Z" style="fill:#fafafa"/><path d="M131.53,131.12l7.56,11.33-6-3.45a2,2,0,0,0-2.62.52l-1.63,2.11a2,2,0,0,1-3,.21l-1.38-1.35a2,2,0,0,0-2.82,0l-8.72,8.41h0l11.84-17.78A4.06,4.06,0,0,1,131.53,131.12Z" style="fill:#fafafa"/><path d="M328.55,78.15,338.06,94l-1.83,2.7a3.77,3.77,0,0,1-6,.54l-2.54-2.84a3.78,3.78,0,0,0-5.61,0l-5.45,6a3.76,3.76,0,0,1-5.66-.07L308,97.9,321.4,78A4.07,4.07,0,0,1,328.55,78.15Z" style="fill:#fafafa"/><path d="M74.27,120.83a4.07,4.07,0,0,1,6.79-.39l7.74,10.43-3.6,6.24a2.36,2.36,0,0,1-3.89.28l-2.86-3.63a2.36,2.36,0,0,0-3.68,0l-1,1.22a2.36,2.36,0,0,1-4-.58L68.39,131Z" style="fill:#fafafa"/><path d="M414.35,134.35l-3.67,2.12a3.59,3.59,0,0,1-4.18-.44l-3.76-3.37,8.33-11.33a4.07,4.07,0,0,1,6.66.16l10.09,15.14-.8.88a3.58,3.58,0,0,1-5,.31l-3.55-3.08A3.56,3.56,0,0,0,414.35,134.35Z" style="fill:#fafafa"/></g><g id="freepik--Shadow--inject-33" style="opacity:.05"><polygon points="411.07 121.33 412.47 150.83 404.35 147.43 410.78 172.94 400.61 158.87 388.52 180.32 380 163.56 411.07 121.33"/><polygon points="321.4 77.96 311.08 109.7 327.19 128.38 313.65 140.88 329.37 183 287 129.18 321.4 77.96"/><polygon points="261.21 105.44 263.74 124.59 257.43 120.95 266.24 161.22 250 142.46 239.63 155.48 233.76 144.8 261.21 105.44"/><polygon points="148.46 156.53 191.54 95.47 180.96 119 194.8 139.15 160.65 149.49 171.63 161.91 165.86 169.08 174.75 196 148.46 156.53"/><polygon points="124.76 131.12 131.72 152.12 122.34 150.83 122.46 176.22 107.84 156.53 124.76 131.12"/><polygon points="74.27 120.83 61.5 159.08 76.62 174.55 64.81 186.98 76.62 225.27 44.87 171.75 74.27 120.83"/></g></g></g><g id="freepik--Floor--inject-33"><ellipse id="freepik--Grass--inject-33" cx="250" cy="348.82" rx="239.65" ry="138.36" style="fill:#092853"/></g><g id="freepik--Shadows--inject-33"><ellipse id="freepik--shadow--inject-33" cx="132.45" cy="395.94" rx="64.68" ry="37.34" style="opacity:.1"/><ellipse id="freepik--shadow--inject-33" cx="421.07" cy="387.86" rx="37.24" ry="21.5" style="opacity:.1"/><path id="freepik--shadow--inject-33" d="M393.92,432.45c4.82,2.79,4.82,7.3,0,10.09s-12.64,2.78-17.47,0-4.82-7.3,0-10.09S389.09,429.67,393.92,432.45Z" style="opacity:.1"/><path id="freepik--shadow--inject-33" d="M345,405.69c4.83,2.78,4.83,7.3,0,10.08s-12.64,2.78-17.46,0-4.82-7.3,0-10.08S340.22,402.9,345,405.69Z" style="opacity:.1"/><path id="freepik--shadow--inject-33" d="M309.82,437.68c4.82,2.79,4.82,7.3,0,10.09s-12.64,2.78-17.47,0-4.82-7.3,0-10.09S305,434.9,309.82,437.68Z" style="opacity:.1"/><path id="freepik--shadow--inject-33" d="M247,395.05l22.53-13,11,6.36c4.5,2.6,11.69,2.31,16-.63l65-44.71c4.28-2.94,4.11-7.48-.4-10.07L320,309.19c-4.5-2.6-12-2.87-16.69-.6l-79,38.3c-4.68,2.26-4.82,6.25-.32,8.85L234.89,362l-22.42,13.05c-4.5,2.62-4.49,6.88,0,9.48l18.18,10.5C235.17,397.65,242.53,397.65,247,395.05Z" style="opacity:.1"/></g><g id="freepik--Clouds--inject-33"><g id="freepik--clouds--inject-33"><path d="M116.62,24.35,112,27c0-.21,0-.41,0-.61V25.07c0-2.39-1.68-3.36-3.75-2.16A7.24,7.24,0,0,0,106,25.06c-.34-3-2.7-4.13-5.56-2.48a12.41,12.41,0,0,0-5.62,9.72v2a5.33,5.33,0,0,0,.48,2.33l-3.85,2.23a4.59,4.59,0,0,0-2.08,3.6c0,1.33.93,1.87,2.08,1.2l25.14-14.51a4.61,4.61,0,0,0,2.08-3.61C118.7,24.23,117.77,23.69,116.62,24.35Z" style="fill:#ebebeb"/><path d="M70.68,38.21l-2.55,1V33.55c0-4.47-3.57-5.54-7.44-3.3h0a15.49,15.49,0,0,0-7,12.14v.82a3.7,3.7,0,0,0-3.25.5h0a11.12,11.12,0,0,0-5,8.73v.37l-3.57,2.06a7.34,7.34,0,0,0-3.32,5.76c0,2.11,1.48,3,3.32,1.91L70.68,45.88A7.34,7.34,0,0,0,74,40.13C74,38,72.52,37.15,70.68,38.21Z" style="fill:#ebebeb"/></g></g><g id="freepik--Sun--inject-33"><circle id="freepik--sun--inject-33" cx="395.35" cy="59.97" r="15.12" transform="translate(73.39 297.12) rotate(-45)" style="fill:#f0997a"/></g><g id="freepik--Trees--inject-33"><g id="freepik--Tree--inject-33"><path id="freepik--Bush--inject-33" d="M467.19,288.31c-4.51.72-8.55-.53-9.25-5.41a43.47,43.47,0,0,1,0-12.11c.2-1.45.72-3.16,2.13-3.54a2.7,2.7,0,0,1,2.91,1.64,7.87,7.87,0,0,1,.5,3.55c.71-1.58,1.77-3.41,3.51-3.45s2.82,1.65,2.87,3.25a9.26,9.26,0,0,1-1.46,4.53c1.21-.16,2.59-.25,3.51.55a3.08,3.08,0,0,1,.13,4,9,9,0,0,1-3.54,2.53,1.6,1.6,0,0,1,2.15,1.05,2.43,2.43,0,0,1-.92,2.43A5.2,5.2,0,0,1,467.19,288.31Z" style="fill:#455a64"/><g id="freepik--tree--inject-33"><path d="M472,98.92c-2.18-4.7-5-7.82-9.92-9.69-7.32-2.77-18.94-2.78-23.08,5.29-1.53,3-1.59,6.61-2.74,9.74-1.63,4.45-6.16,7-9.81,9.62-6.41,4.55-9.42,13.79-6.81,21.14,1.38,3.91,4.45,7.16,5.15,11.32.8,4.8-2.55,9.67-3.62,14.23a36.93,36.93,0,0,0-.65,12.41c1.27,10.79,12.48,17.5,22.16,19.7,11.16,2.53,24.28,2.14,34.65-3.07,5.77-2.9,10.84-6.37,13-12.73,1.76-5.24.33-11.27-2.51-15.85-3-4.83-6.37-8.94-2.69-14.35,2.25-3.33,5-6.23,6.4-10.05a16.26,16.26,0,0,0-.27-10.29c-1.19-3.46-4.18-6-7-8.19-3.2-2.45-7.76-4.55-9.39-8.47-1.08-2.57-.83-5.21-1.66-7.8A26,26,0,0,0,472,98.92Z" style="fill:#092853"/><path d="M472,98.92c-2.18-4.7-5-7.82-9.92-9.69-7.32-2.77-18.94-2.78-23.08,5.29-1.53,3-1.59,6.61-2.74,9.74-1.63,4.45-6.16,7-9.81,9.62-6.41,4.55-9.42,13.79-6.81,21.14,1.38,3.91,4.45,7.16,5.15,11.32.8,4.8-2.55,9.67-3.62,14.23a36.93,36.93,0,0,0-.65,12.41c1.27,10.79,12.48,17.5,22.16,19.7,11.16,2.53,24.28,2.14,34.65-3.07,5.77-2.9,10.84-6.37,13-12.73,1.76-5.24.33-11.27-2.51-15.85-3-4.83-6.37-8.94-2.69-14.35,2.25-3.33,5-6.23,6.4-10.05a16.26,16.26,0,0,0-.27-10.29c-1.19-3.46-4.18-6-7-8.19-3.2-2.45-7.76-4.55-9.39-8.47-1.08-2.57-.83-5.21-1.66-7.8A26,26,0,0,0,472,98.92Z" style="opacity:.05"/><path d="M472,98.92c-2.18-4.7-5-7.82-9.92-9.69-7.32-2.77-18.94-2.78-23.08,5.29-1.53,3-1.59,6.61-2.74,9.74-1.63,4.45-6.16,7-9.81,9.62-6.41,4.55-9.42,13.79-6.81,21.14,1.38,3.91,4.45,7.16,5.15,11.32.8,4.8-2.55,9.67-3.62,14.23a36.93,36.93,0,0,0-.65,12.41c1.27,10.79,12.48,17.5,22.16,19.7,11.16,2.53,24.28,2.14,34.65-3.07,5.77-2.9,10.84-6.37,13-12.73,1.76-5.24.33-11.27-2.51-15.85-3-4.83-6.37-8.94-2.69-14.35,2.25-3.33,5-6.23,6.4-10.05a16.26,16.26,0,0,0-.27-10.29c-1.19-3.46-4.18-6-7-8.19-3.2-2.45-7.76-4.55-9.39-8.47-1.08-2.57-.83-5.21-1.66-7.8A26,26,0,0,0,472,98.92Z" style="opacity:.2"/><path d="M481.29,187.42c-12.54,3-24.76,6.3-37.36.41-9.08-4.25-20.76-13.12-15.18-24.26,2.66-5.33,7.19-10.29,6.43-16.69-.66-5.59-4.48-8.23-8.31-11.81-3.3-3.09-6.4-6.93-7.28-11.33a18.12,18.12,0,0,0,.07,11.28c1.38,3.91,4.45,7.16,5.15,11.32.8,4.8-2.55,9.67-3.62,14.23a36.93,36.93,0,0,0-.65,12.41c1.27,10.79,12.48,17.5,22.16,19.7,11.16,2.53,24.28,2.14,34.65-3.07C478.72,188.92,480,188.2,481.29,187.42Z" style="opacity:.1"/><path d="M454.17,87.6a19.12,19.12,0,0,1,8.79,4c2.15,1.88,3.85,5.42,3.23,8.27s-3,5.37-2.77,8.33a8.19,8.19,0,0,0,4.12,6.27c4.57,2.52,10.27,2.13,15.54,2.8-3.06-2.12-6.8-4.16-8.24-7.63-1.08-2.57-.83-5.21-1.66-7.8a26,26,0,0,0-1.16-3c-2.18-4.7-5-7.82-9.92-9.69A27,27,0,0,0,454.17,87.6Z" style="opacity:.1"/><path d="M489.11,163.45a22.4,22.4,0,0,0-1.3-2.42c-3-4.83-6.37-8.94-2.69-14.35.7-1,1.45-2,2.2-3-5.07,1.45-12,3.67-10.33,9.94C478.1,157.74,484.76,160.62,489.11,163.45Z" style="opacity:.1"/></g><path d="M438.92,170.73l15.84,31.4V187.68l1.61-61.54,2.34,61.54v9.72L476.12,167l-17.41,37.36V283a1,1,0,0,1-.58.8,3.05,3.05,0,0,1-2.79,0,1,1,0,0,1-.58-.8v-72.9Z" style="fill:#37474f"/><path id="freepik--bush--inject-33" d="M455.13,286.68s-11.54-6.65-14.2-8.2a11.44,11.44,0,0,1-3.09-2.9,8.23,8.23,0,0,1-1.73-3.68,1.93,1.93,0,0,1,.15-1.4c.51-.75,1.73-.49,2.41.12s1.21,1.14,1.93,1.91a21.43,21.43,0,0,1-.28-4.93,2.25,2.25,0,0,1,.6-1.64,1.86,1.86,0,0,1,2,0c1.86,1,2.65,3.22,3.29,5.24a17,17,0,0,1,.19-6.27c.49-2.24,3.06-3.12,3.93-1a12.44,12.44,0,0,1,.76,3.57,14.93,14.93,0,0,1-.32,4.72,14.92,14.92,0,0,1,3.78-5.25,2.33,2.33,0,0,1,2.19-.76c.9.35,1,1.54.95,2.5a13.33,13.33,0,0,1-1.93,5.71,11.91,11.91,0,0,1,4.8-1.86,1.43,1.43,0,0,1,1.51.49,1.92,1.92,0,0,1-.33,2,12,12,0,0,1-3.82,3.55,12.4,12.4,0,0,1,4.65-.49,1.62,1.62,0,0,1,1.25.52c.4.59-.07,1.39-.58,1.89a14.1,14.1,0,0,1-3.33,2,4.71,4.71,0,0,1,2.05.34,1.63,1.63,0,0,1,1,1.69,2.1,2.1,0,0,1-1.5,1.32C458.66,286.82,457.89,287.14,455.13,286.68Z" style="fill:#092853"/><path id="freepik--bush--inject-33" d="M455.13,286.68s-11.54-6.65-14.2-8.2a11.44,11.44,0,0,1-3.09-2.9,8.23,8.23,0,0,1-1.73-3.68,1.93,1.93,0,0,1,.15-1.4c.51-.75,1.73-.49,2.41.12s1.21,1.14,1.93,1.91a21.43,21.43,0,0,1-.28-4.93,2.25,2.25,0,0,1,.6-1.64,1.86,1.86,0,0,1,2,0c1.86,1,2.65,3.22,3.29,5.24a17,17,0,0,1,.19-6.27c.49-2.24,3.06-3.12,3.93-1a12.44,12.44,0,0,1,.76,3.57,14.93,14.93,0,0,1-.32,4.72,14.92,14.92,0,0,1,3.78-5.25,2.33,2.33,0,0,1,2.19-.76c.9.35,1,1.54.95,2.5a13.33,13.33,0,0,1-1.93,5.71,11.91,11.91,0,0,1,4.8-1.86,1.43,1.43,0,0,1,1.51.49,1.92,1.92,0,0,1-.33,2,12,12,0,0,1-3.82,3.55,12.4,12.4,0,0,1,4.65-.49,1.62,1.62,0,0,1,1.25.52c.4.59-.07,1.39-.58,1.89a14.1,14.1,0,0,1-3.33,2,4.71,4.71,0,0,1,2.05.34,1.63,1.63,0,0,1,1,1.69,2.1,2.1,0,0,1-1.5,1.32C458.66,286.82,457.89,287.14,455.13,286.68Z" style="opacity:.4"/></g><g id="freepik--tree--inject-33"><path id="freepik--bush--inject-33" d="M32.81,288.31c4.51.72,8.55-.53,9.25-5.41a43.47,43.47,0,0,0,0-12.11c-.2-1.45-.72-3.16-2.13-3.54A2.7,2.7,0,0,0,37,268.89a7.87,7.87,0,0,0-.5,3.55C35.81,270.86,34.75,269,33,269s-2.82,1.65-2.87,3.25a9.26,9.26,0,0,0,1.46,4.53c-1.21-.16-2.59-.25-3.51.55a3.08,3.08,0,0,0-.13,4,9,9,0,0,0,3.54,2.53,1.6,1.6,0,0,0-2.15,1.05,2.43,2.43,0,0,0,.92,2.43A5.2,5.2,0,0,0,32.81,288.31Z" style="fill:#455a64"/><g id="freepik--tree--inject-33"><path d="M28,110c2.18-4.7,5-7.82,9.92-9.68,7.32-2.78,18.94-2.79,23.08,5.28,1.53,3,1.59,6.62,2.74,9.74,1.63,4.45,6.16,7,9.81,9.62,6.41,4.55,9.42,13.79,6.81,21.15-1.38,3.9-4.45,7.16-5.15,11.32-.8,4.8,2.55,9.66,3.62,14.22a36.93,36.93,0,0,1,.65,12.41C78.19,194.89,67,201.6,57.3,203.8,46.14,206.34,33,206,22.65,200.73c-5.77-2.9-10.84-6.37-13-12.72-1.76-5.24-.33-11.27,2.51-15.86,3-4.83,6.37-8.94,2.69-14.35-2.25-3.33-5-6.23-6.4-10.05a16.26,16.26,0,0,1,.27-10.29c1.19-3.46,4.18-6,7-8.19,3.2-2.45,7.76-4.55,9.39-8.46,1.08-2.58.83-5.22,1.66-7.81A26.69,26.69,0,0,1,28,110Z" style="fill:#092853"/><path d="M28,110c2.18-4.7,5-7.82,9.92-9.68,7.32-2.78,18.94-2.79,23.08,5.28,1.53,3,1.59,6.62,2.74,9.74,1.63,4.45,6.16,7,9.81,9.62,6.41,4.55,9.42,13.79,6.81,21.15-1.38,3.9-4.45,7.16-5.15,11.32-.8,4.8,2.55,9.66,3.62,14.22a36.93,36.93,0,0,1,.65,12.41C78.19,194.89,67,201.6,57.3,203.8,46.14,206.34,33,206,22.65,200.73c-5.77-2.9-10.84-6.37-13-12.72-1.76-5.24-.33-11.27,2.51-15.86,3-4.83,6.37-8.94,2.69-14.35-2.25-3.33-5-6.23-6.4-10.05a16.26,16.26,0,0,1,.27-10.29c1.19-3.46,4.18-6,7-8.19,3.2-2.45,7.76-4.55,9.39-8.46,1.08-2.58.83-5.22,1.66-7.81A26.69,26.69,0,0,1,28,110Z" style="opacity:.05"/><path d="M28,110c2.18-4.7,5-7.82,9.92-9.68,7.32-2.78,18.94-2.79,23.08,5.28,1.53,3,1.59,6.62,2.74,9.74,1.63,4.45,6.16,7,9.81,9.62,6.41,4.55,9.42,13.79,6.81,21.15-1.38,3.9-4.45,7.16-5.15,11.32-.8,4.8,2.55,9.66,3.62,14.22a36.93,36.93,0,0,1,.65,12.41C78.19,194.89,67,201.6,57.3,203.8,46.14,206.34,33,206,22.65,200.73c-5.77-2.9-10.84-6.37-13-12.72-1.76-5.24-.33-11.27,2.51-15.86,3-4.83,6.37-8.94,2.69-14.35-2.25-3.33-5-6.23-6.4-10.05a16.26,16.26,0,0,1,.27-10.29c1.19-3.46,4.18-6,7-8.19,3.2-2.45,7.76-4.55,9.39-8.46,1.08-2.58.83-5.22,1.66-7.81A26.69,26.69,0,0,1,28,110Z" style="opacity:.2"/><path d="M18.71,198.55c12.54,3,24.76,6.29,37.36.4,9.08-4.24,20.76-13.11,15.18-24.26-2.66-5.33-7.19-10.28-6.43-16.69.66-5.58,4.48-8.23,8.31-11.81,3.3-3.09,6.4-6.93,7.28-11.33a18.15,18.15,0,0,1-.07,11.29c-1.38,3.9-4.45,7.16-5.15,11.32-.8,4.8,2.55,9.66,3.62,14.22a36.93,36.93,0,0,1,.65,12.41C78.19,194.89,67,201.6,57.3,203.8,46.14,206.34,33,206,22.65,200.73,21.28,200,20,199.33,18.71,198.55Z" style="opacity:.1"/><path d="M45.84,98.72a19.21,19.21,0,0,0-8.8,4c-2.15,1.88-3.85,5.42-3.23,8.27s3,5.37,2.77,8.33a8.19,8.19,0,0,1-4.12,6.27c-4.57,2.52-10.27,2.13-15.54,2.81,3.06-2.13,6.8-4.17,8.24-7.63,1.08-2.58.83-5.22,1.66-7.81A26.69,26.69,0,0,1,28,110c2.18-4.7,5-7.82,9.92-9.68A26.73,26.73,0,0,1,45.84,98.72Z" style="opacity:.1"/><path d="M10.89,174.57a22.4,22.4,0,0,1,1.3-2.42c3-4.83,6.37-8.94,2.69-14.35-.7-1-1.45-2-2.2-3,5.07,1.44,12,3.67,10.33,9.93C21.9,168.86,15.24,171.74,10.89,174.57Z" style="opacity:.1"/></g><path d="M61.08,181.86l-15.84,31.4V198.81l-1.61-61.55-2.34,61.55v9.72L23.88,178.1l17.41,37.35V283a1,1,0,0,0,.58.8,3.05,3.05,0,0,0,2.79,0,1,1,0,0,0,.58-.8V221.27Z" style="fill:#37474f"/><path id="freepik--bush--inject-33" d="M44.87,286.68s11.54-6.65,14.2-8.2a11.44,11.44,0,0,0,3.09-2.9,8.23,8.23,0,0,0,1.73-3.68,1.93,1.93,0,0,0-.15-1.4c-.51-.75-1.73-.49-2.41.12s-1.21,1.14-1.93,1.91a21.43,21.43,0,0,0,.28-4.93,2.25,2.25,0,0,0-.6-1.64,1.86,1.86,0,0,0-2,0c-1.86,1-2.65,3.22-3.29,5.24a17,17,0,0,0-.19-6.27c-.49-2.24-3.06-3.12-3.93-1a12.44,12.44,0,0,0-.76,3.57,14.93,14.93,0,0,0,.32,4.72A14.92,14.92,0,0,0,45.46,267a2.33,2.33,0,0,0-2.19-.76c-.9.35-1.05,1.54-1,2.5a13.33,13.33,0,0,0,1.93,5.71,11.91,11.91,0,0,0-4.8-1.86,1.43,1.43,0,0,0-1.51.49,1.92,1.92,0,0,0,.33,2,12,12,0,0,0,3.82,3.55,12.4,12.4,0,0,0-4.65-.49,1.62,1.62,0,0,0-1.25.52c-.4.59.07,1.39.58,1.89a14.1,14.1,0,0,0,3.33,2,4.71,4.71,0,0,0-2.05.34,1.63,1.63,0,0,0-1,1.69,2.1,2.1,0,0,0,1.5,1.32C41.34,286.82,42.11,287.14,44.87,286.68Z" style="fill:#092853"/><path id="freepik--bush--inject-33" d="M44.87,286.68s11.54-6.65,14.2-8.2a11.44,11.44,0,0,0,3.09-2.9,8.23,8.23,0,0,0,1.73-3.68,1.93,1.93,0,0,0-.15-1.4c-.51-.75-1.73-.49-2.41.12s-1.21,1.14-1.93,1.91a21.43,21.43,0,0,0,.28-4.93,2.25,2.25,0,0,0-.6-1.64,1.86,1.86,0,0,0-2,0c-1.86,1-2.65,3.22-3.29,5.24a17,17,0,0,0-.19-6.27c-.49-2.24-3.06-3.12-3.93-1a12.44,12.44,0,0,0-.76,3.57,14.93,14.93,0,0,0,.32,4.72A14.92,14.92,0,0,0,45.46,267a2.33,2.33,0,0,0-2.19-.76c-.9.35-1.05,1.54-1,2.5a13.33,13.33,0,0,0,1.93,5.71,11.91,11.91,0,0,0-4.8-1.86,1.43,1.43,0,0,0-1.51.49,1.92,1.92,0,0,0,.33,2,12,12,0,0,0,3.82,3.55,12.4,12.4,0,0,0-4.65-.49,1.62,1.62,0,0,0-1.25.52c-.4.59.07,1.39.58,1.89a14.1,14.1,0,0,0,3.33,2,4.71,4.71,0,0,0-2.05.34,1.63,1.63,0,0,0-1,1.69,2.1,2.1,0,0,0,1.5,1.32C41.34,286.82,42.11,287.14,44.87,286.68Z" style="opacity:.4"/></g></g><g id="freepik--Hen--inject-33"><g id="freepik--hen--inject-33"><path d="M436.32,374.07l-2.14,14.37s4.12-.15,3.79.75-4.34,1.46-4.34,1.46-3.16,10.42-4.42,10.42,2.21-9.63,2.21-9.63-11.45,7.18-12.48,6.39,10.19-7.89,10.19-7.89-11,1.58-11.13.63,13.81-2.84,13.81-3,.08-14.93.08-14.93Z" style="fill:#455a64"/><path d="M431.86,379a12.08,12.08,0,0,0,3.09-.4,4.43,4.43,0,0,0,.73-.29l.64-4.25-4.43-1.43S431.88,375.68,431.86,379Z" style="opacity:.15"/><path d="M429.13,389.94l1.11-.72-8.73,1.15c-2.24.3-3.18.3-3.37,0-.1.07-.15.14-.14.2C418.15,391.52,429.13,389.94,429.13,389.94Z" style="opacity:.15"/><path d="M431.85,390.21s-3.16,2.05-6.67,4.23-5.41,3.37-6.3,3.26a.2.2,0,0,0,.06.13c1,.79,12.48-6.39,12.48-6.39Z" style="opacity:.15"/><path d="M438,389.19c.07-.19-.05-.32-.29-.43.23.26,0,.57-1.28.81a23.77,23.77,0,0,1-2.53.33l-.24.75S437.65,390.09,438,389.19Z" style="opacity:.15"/><path d="M417.21,363.91l-2.13,14.37s4.11-.15,3.79.75-4.35,1.46-4.35,1.46-3.16,10.42-4.42,10.42,2.21-9.63,2.21-9.63-11.45,7.19-12.48,6.4,10.19-7.9,10.19-7.9-11,1.58-11.13.63,13.82-2.84,13.82-3,.08-14.92.08-14.92Z" style="fill:#455a64"/><path d="M412.72,375c.92.14,1.85.26,2.79.34l1.7-11.46-4.42-1.42S412.74,370.82,412.72,375Z" style="opacity:.15"/><path d="M410,379.78l1.11-.72-8.72,1.15c-2.25.3-3.19.3-3.38,0-.1.07-.15.14-.14.2C399.05,381.36,410,379.78,410,379.78Z" style="opacity:.15"/><path d="M412.74,380.05s-3.16,2.05-6.67,4.24-5.41,3.37-6.29,3.25a.19.19,0,0,0,.05.14c1,.79,12.48-6.4,12.48-6.4Z" style="opacity:.15"/><path d="M418.87,379c.06-.18-.06-.32-.29-.43.23.26,0,.57-1.28.82s-2.53.33-2.53.33l-.25.74S418.54,379.94,418.87,379Z" style="opacity:.15"/><path d="M416.79,373.45c3.61,2.08,13.31,4.15,17.78,2.84s9.12-10.52,9.12-10.52Z" style="fill:#e0e0e0"/><path d="M384,346.39c.67,6,3.92,16.1,13.06,21.21,11.49,6.44,26.15,8,38.54,3s17.53-16.43,18.61-24.31c.31-2.25.5-4.53.61-6.8.09-1.68-.06-3.39.06-5,.21-3,3.17-6,1.95-9.08a5.3,5.3,0,0,1-.7-2c0-1.24,1.59-1.73,2.48-2.3s1.93-1.36,1.85-2.42a4.09,4.09,0,0,0-.85-1.72,1.72,1.72,0,0,1-.22-1.82,1.59,1.59,0,0,1,1.37-.53,12.11,12.11,0,0,1,2.27.49,3.12,3.12,0,0,0,2.27-.15,2.9,2.9,0,0,0,1.2-2.65c-.08-2.44-1.79-4.52-3.7-6A19.14,19.14,0,0,0,447,302.57c-4.82,1.07-8.5,3.22-11.55,9.31-2.15,4.28-5.67,8.76-10,10.57-6.44,2.7-10.49,2.18-20.15,4.92S384,346.39,384,346.39Z" style="fill:#f0f0f0"/><path d="M394.74,310.3c3.08,1.12,5,4.44,5.81,9.56s1.82,7.12,4,7.3,2.91,3.83,0,4.92a4.06,4.06,0,0,1,.27,5.82c-2.64,3.37-5.1,2.1-5.1,2.1a4.47,4.47,0,0,1-1.62,6c-3.65,2.64-7.2-1.73-7.2-1.73s-1.52,3.48-6.88,2.11a32.19,32.19,0,0,1,.05-10.4c1-5.09,3.64-10.1,2.09-12s-3.08-5.74-2.81-8.1S386.46,306.64,394.74,310.3Z" style="fill:#e6e6e6"/><path d="M386.58,319.65c.64.09,1.61,1.06,1.59,2.82,0,1.5-1.4,3.12-2.94,2.72s-1.51-1.71-1.11-2.65a2.87,2.87,0,0,0-.24-2.13Z" style="fill:#092853"/><path d="M386.58,319.65c.64.09,1.61,1.06,1.59,2.82,0,1.5-1.4,3.12-2.94,2.72s-1.51-1.71-1.11-2.65a2.87,2.87,0,0,0-.24-2.13Z" style="opacity:.30000000000000004"/><path d="M383.75,316.41a6.81,6.81,0,0,1,3.33-5.79c2.51-1.65,5.89-1,7.66-.32a5.46,5.46,0,0,0,3.14-3.76c.58-2.79,0-4-1.18-3.38s-2,1.89-2.24,1.22-.19-2-1.25-1.65-1.14,1.77-1.92,1.85-1-1.81-2.12-1.1-.53,3-1.28,3.13-1.79-1.27-2.39-.35c-.94,1.44.64,3.11-.39,3.58-1.23.56-2.44.76-3.1,3.33a6.09,6.09,0,0,0,.51,3.76Z" style="fill:#092853"/><path d="M383.75,316.41a6.81,6.81,0,0,1,3.33-5.79c2.51-1.65,5.89-1,7.66-.32a5.46,5.46,0,0,0,3.14-3.76c.58-2.79,0-4-1.18-3.38s-2,1.89-2.24,1.22-.19-2-1.25-1.65-1.14,1.77-1.92,1.85-1-1.81-2.12-1.1-.53,3-1.28,3.13-1.79-1.27-2.39-.35c-.94,1.44.64,3.11-.39,3.58-1.23.56-2.44.76-3.1,3.33a6.09,6.09,0,0,0,.51,3.76Z" style="opacity:.30000000000000004"/><path d="M382.52,316.93c1.07-1.1,4.56-.72,4.56,2.93a3.23,3.23,0,0,0-2.38.87c-1.57,1.39-1.47,2.53-2.18,2.53S380.65,320,382.52,316.93Z" style="fill:#455a64"/><path d="M389.39,316.21a.72.72,0,1,1-.72-.72A.72.72,0,0,1,389.39,316.21Z" style="fill:#455a64"/><path d="M410.89,340.9c-5.85,5.69,0,15.24,10.83,17.51s16.72-1.47,13.37-4.14c0,0,9.9.8,12.71-2.41S443,345,443,345s10.57-1.62,7.63-5.49S423.86,328.27,410.89,340.9Z" style="fill:#e6e6e6"/></g></g><g id="freepik--Chicks--inject-33"><g id="freepik--Chicken--inject-33"><path d="M387.6,433.92l-.41,4.16s1.18-.1,1.1.17-1.23.48-1.23.48-.77,3-1.13,3.06.5-2.81.5-2.81-3.19,2.23-3.5,2,2.82-2.42,2.82-2.42-3.14.61-3.19.34,3.93-1,3.93-1.06-.18-4.29-.18-4.29Z" style="fill:#455a64"/><path d="M386.39,435.4a3.21,3.21,0,0,0,.88-.16,1,1,0,0,0,.21-.09l.12-1.23-1.29-.35S386.35,434.44,386.39,435.4Z" style="opacity:.15"/><path d="M385.75,438.58l.31-.22-2.49.45c-.65.12-.92.13-1,.05s-.05,0,0,.06C382.61,439.19,385.75,438.58,385.75,438.58Z" style="opacity:.15"/><path d="M386.54,438.62s-.88.64-1.86,1.31-1.51,1.05-1.77,1a.08.08,0,0,0,0,0c.31.21,3.5-2,3.5-2Z" style="opacity:.15"/><path d="M388.29,438.25q0-.09-.09-.12c.07.07,0,.16-.36.25a7.13,7.13,0,0,1-.72.13l-.06.22S388.2,438.51,388.29,438.25Z" style="opacity:.15"/><path d="M382.6,432.2l-.42,4.17s1.19-.1,1.11.16-1.23.48-1.23.48-.77,3.05-1.13,3.06.5-2.8.5-2.8-3.2,2.23-3.5,2,2.82-2.41,2.82-2.41-3.14.61-3.19.34,3.93-1,3.93-1.06-.18-4.3-.18-4.3Z" style="fill:#455a64"/><path d="M381.46,435.47l.81.06.33-3.33-1.29-.35S381.41,434.25,381.46,435.47Z" style="opacity:.15"/><path d="M380.75,436.87l.31-.22-2.49.45c-.65.12-.92.13-1,0s0,0,0,.06C377.61,437.48,380.75,436.87,380.75,436.87Z" style="opacity:.15"/><path d="M381.54,436.91s-.88.63-1.86,1.31-1.51,1-1.77,1a.05.05,0,0,0,0,0c.3.22,3.5-2,3.5-2Z" style="opacity:.15"/><path d="M383.29,436.53s0-.09-.09-.12,0,.17-.36.25a7.13,7.13,0,0,1-.72.13l-.06.22S383.2,436.8,383.29,436.53Z" style="opacity:.15"/><path d="M390.52,431.39c-.77,1-2.28,2.92-3.46,3.09s-2.94-1.36-2.94-1.36a2.72,2.72,0,0,1-2.17,1.1c-1.28-.11-2.64-2.37-2.64-2.37a13.5,13.5,0,0,1,5.41-1.3A24.36,24.36,0,0,1,390.52,431.39Z" style="fill:#092853"/><path d="M390.52,431.39c-.77,1-2.28,2.92-3.46,3.09s-2.94-1.36-2.94-1.36a2.72,2.72,0,0,1-2.17,1.1c-1.28-.11-2.64-2.37-2.64-2.37a13.5,13.5,0,0,1,5.41-1.3A24.36,24.36,0,0,1,390.52,431.39Z" style="fill:#fff;opacity:.6000000000000001"/><path d="M390.52,431.39c-.77,1-2.28,2.92-3.46,3.09s-2.94-1.36-2.94-1.36a2.72,2.72,0,0,1-2.17,1.1c-1.28-.11-2.64-2.37-2.64-2.37a13.5,13.5,0,0,1,5.41-1.3A24.36,24.36,0,0,1,390.52,431.39Z" style="opacity:.05"/><path d="M371.8,421c-.77-2.66,0-5.62,3-6.63,4.17-1.39,5.89,1.71,7.77,3a6.8,6.8,0,0,0,7,.19c2.77-1.71,3.54-4.49,5.11-3.83,1.38.58.42,3.83.42,3.83A2.65,2.65,0,0,1,396.6,420c-.1,1.7-1.91,3.4-1.91,3.4a6.76,6.76,0,0,1-.36,3.65,10.6,10.6,0,0,1-8.23,6c-5.2.63-8.36-1.36-9.72-4.72-1.2-3-1.61-4.29-2.55-5.13C372.58,422,372.16,422.21,371.8,421Z" style="fill:#092853"/><path d="M371.8,421c-.77-2.66,0-5.62,3-6.63,4.17-1.39,5.89,1.71,7.77,3a6.8,6.8,0,0,0,7,.19c2.77-1.71,3.54-4.49,5.11-3.83,1.38.58.42,3.83.42,3.83A2.65,2.65,0,0,1,396.6,420c-.1,1.7-1.91,3.4-1.91,3.4a6.76,6.76,0,0,1-.36,3.65,10.6,10.6,0,0,1-8.23,6c-5.2.63-8.36-1.36-9.72-4.72-1.2-3-1.61-4.29-2.55-5.13C372.58,422,372.16,422.21,371.8,421Z" style="fill:#fff;opacity:.65"/><path d="M373.83,423.15a2.07,2.07,0,0,0-.75-1.7c-.85-.69-1.28-.47-1.28-.47a4.33,4.33,0,0,0-1,2.76A8.21,8.21,0,0,0,373.83,423.15Z" style="fill:#fafafa"/><path d="M375.94,419.46a.63.63,0,0,0,.63.63.63.63,0,0,0,0-1.26A.63.63,0,0,0,375.94,419.46Z" style="fill:#455a64"/><path d="M381.65,425.92c1.66,2.8,6.13,2,6.45.93s-.48-1.38-.48-1.38,2.6-.2,3.53-1.58-.24-2.2-.65-2.2a1.51,1.51,0,0,1,1.34,2.4,5.78,5.78,0,0,1-3,1.75,1.78,1.78,0,0,1-.48,1.82A4.3,4.3,0,0,1,381.65,425.92Z" style="opacity:.1"/></g><g id="freepik--chicken--inject-33"><path d="M332.63,406l.42,4.16s-1.19-.1-1.1.17,1.23.48,1.23.48.76,3,1.12,3.06-.5-2.8-.5-2.8,3.2,2.22,3.5,2-2.82-2.41-2.82-2.41,3.14.6,3.2.33-3.94-1-3.94-1.05.19-4.3.19-4.3Z" style="fill:#455a64"/><path d="M333.85,407.49a3.66,3.66,0,0,1-.89-.15l-.2-.1-.13-1.23,1.3-.35S333.89,406.53,333.85,407.49Z" style="opacity:.15"/><path d="M334.48,410.68l-.31-.23,2.5.46c.64.11.91.12,1,0a.07.07,0,0,1,0,.06C337.62,411.28,334.48,410.68,334.48,410.68Z" style="opacity:.15"/><path d="M333.7,410.72s.88.63,1.86,1.31,1.51,1,1.76,1c0,0,0,0,0,0-.3.21-3.5-2-3.5-2Z" style="opacity:.15"/><path d="M332,410.34c0-.06,0-.09.09-.12s0,.16.35.25a7,7,0,0,0,.73.13l.06.22S332,410.6,332,410.34Z" style="opacity:.15"/><path d="M337.63,404.3l.42,4.16s-1.18-.1-1.1.16,1.23.48,1.23.48.76,3,1.13,3.07-.51-2.81-.51-2.81,3.2,2.23,3.5,2-2.82-2.42-2.82-2.42,3.14.61,3.2.34-3.94-1-3.94-1.06.19-4.29.19-4.29Z" style="fill:#455a64"/><path d="M338.77,407.56l-.8.06-.34-3.32,1.3-.35S338.82,406.35,338.77,407.56Z" style="opacity:.15"/><path d="M339.48,409l-.31-.22,2.5.45c.64.12.91.13,1,.05a.07.07,0,0,1,0,.06C342.62,409.57,339.48,409,339.48,409Z" style="opacity:.15"/><path d="M338.7,409s.88.64,1.86,1.31,1.51,1.05,1.76,1a0,0,0,0,1,0,0c-.3.21-3.5-2-3.5-2Z" style="opacity:.15"/><path d="M337,408.62c0-.05,0-.09.09-.12s0,.17.35.26a7,7,0,0,0,.73.13l.06.21S337,408.89,337,408.62Z" style="opacity:.15"/><path d="M329.71,403.48c.77,1,2.28,2.93,3.47,3.1s2.93-1.36,2.93-1.36a2.72,2.72,0,0,0,2.17,1.09c1.29-.11,2.65-2.36,2.65-2.36a13.58,13.58,0,0,0-5.42-1.3A24.63,24.63,0,0,0,329.71,403.48Z" style="fill:#092853"/><path d="M329.71,403.48c.77,1,2.28,2.93,3.47,3.1s2.93-1.36,2.93-1.36a2.72,2.72,0,0,0,2.17,1.09c1.29-.11,2.65-2.36,2.65-2.36a13.58,13.58,0,0,0-5.42-1.3A24.63,24.63,0,0,0,329.71,403.48Z" style="fill:#fff;opacity:.6000000000000001"/><path d="M329.71,403.48c.77,1,2.28,2.93,3.47,3.1s2.93-1.36,2.93-1.36a2.72,2.72,0,0,0,2.17,1.09c1.29-.11,2.65-2.36,2.65-2.36a13.58,13.58,0,0,0-5.42-1.3A24.63,24.63,0,0,0,329.71,403.48Z" style="opacity:.05"/><path d="M348.43,393.08c.78-2.67.05-5.63-3-6.64-4.16-1.38-5.89,1.71-7.76,3a6.79,6.79,0,0,1-7,.19c-2.77-1.71-3.53-4.49-5.1-3.83-1.39.59-.43,3.83-.43,3.83a2.67,2.67,0,0,0-1.49,2.45c.11,1.7,1.92,3.41,1.92,3.41a6.66,6.66,0,0,0,.35,3.64,10.61,10.61,0,0,0,8.23,6c5.2.62,8.36-1.37,9.72-4.73,1.2-3,1.61-4.29,2.55-5.13C347.65,394.13,348.08,394.31,348.43,393.08Z" style="fill:#092853"/><path d="M348.43,393.08c.78-2.67.05-5.63-3-6.64-4.16-1.38-5.89,1.71-7.76,3a6.79,6.79,0,0,1-7,.19c-2.77-1.71-3.53-4.49-5.1-3.83-1.39.59-.43,3.83-.43,3.83a2.67,2.67,0,0,0-1.49,2.45c.11,1.7,1.92,3.41,1.92,3.41a6.66,6.66,0,0,0,.35,3.64,10.61,10.61,0,0,0,8.23,6c5.2.62,8.36-1.37,9.72-4.73,1.2-3,1.61-4.29,2.55-5.13C347.65,394.13,348.08,394.31,348.43,393.08Z" style="fill:#fff;opacity:.65"/><path d="M346.4,395.24a2.07,2.07,0,0,1,.75-1.7c.86-.69,1.28-.46,1.28-.46a4.32,4.32,0,0,1,1,2.75A8,8,0,0,1,346.4,395.24Z" style="fill:#fafafa"/><path d="M344.29,391.55a.63.63,0,0,1-1.26,0,.63.63,0,0,1,1.26,0Z" style="fill:#455a64"/><path d="M338.59,398c-1.67,2.8-6.14,2-6.46.93s.49-1.38.49-1.38-2.6-.2-3.54-1.58.25-2.19.65-2.19a1.51,1.51,0,0,0-1.34,2.39,5.81,5.81,0,0,0,3.05,1.75,1.79,1.79,0,0,0,.49,1.83A4.31,4.31,0,0,0,338.59,398Z" style="opacity:.1"/></g><g id="freepik--chicken--inject-33"><path d="M297.21,438.26l.41,4.17s-1.18-.1-1.1.16,1.23.48,1.23.48.76,3.05,1.13,3.06-.51-2.8-.51-2.8,3.2,2.23,3.51,2-2.83-2.41-2.83-2.41,3.14.61,3.2.34-3.94-1-3.94-1.06.19-4.29.19-4.29Z" style="fill:#455a64"/><path d="M298.42,439.75a3.07,3.07,0,0,1-.88-.16,1,1,0,0,1-.21-.09l-.12-1.24,1.29-.34S298.46,438.79,298.42,439.75Z" style="opacity:.15"/><path d="M299.05,442.93l-.31-.22,2.5.45c.64.12.91.13,1,0a.07.07,0,0,1,0,.06C302.19,443.54,299.05,442.93,299.05,442.93Z" style="opacity:.15"/><path d="M298.27,443s.88.64,1.86,1.31,1.51,1.05,1.76,1c0,0,0,0,0,0-.31.22-3.51-2-3.51-2Z" style="opacity:.15"/><path d="M296.52,442.59s0-.09.09-.12,0,.17.36.26.72.13.72.13l.06.21S296.6,442.86,296.52,442.59Z" style="opacity:.15"/><path d="M302.21,436.55l.41,4.17s-1.18-.1-1.1.16,1.23.48,1.23.48.76,3,1.13,3.06-.51-2.8-.51-2.8,3.2,2.22,3.51,2-2.83-2.41-2.83-2.41,3.14.6,3.2.33-3.94-1-3.94-1.05.19-4.3.19-4.3Z" style="fill:#455a64"/><path d="M303.34,439.81c-.26,0-.53.05-.8.06l-.33-3.32,1.29-.35S303.4,438.6,303.34,439.81Z" style="opacity:.15"/><path d="M304.05,441.22l-.31-.22,2.5.45c.64.11.91.13,1,.05s0,0,0,.05C307.19,441.82,304.05,441.22,304.05,441.22Z" style="opacity:.15"/><path d="M303.27,441.26s.88.63,1.86,1.31,1.51,1,1.77,1l0,0c-.31.21-3.51-2-3.51-2Z" style="opacity:.15"/><path d="M301.52,440.88c0-.05,0-.09.09-.12s0,.16.36.25a6.64,6.64,0,0,0,.72.13l.06.22S301.6,441.15,301.52,440.88Z" style="opacity:.15"/><path d="M294.28,435.73c.77,1,2.28,2.93,3.47,3.1s2.93-1.36,2.93-1.36a2.74,2.74,0,0,0,2.17,1.09c1.29-.11,2.65-2.36,2.65-2.36a13.52,13.52,0,0,0-5.42-1.3A24.74,24.74,0,0,0,294.28,435.73Z" style="fill:#092853"/><path d="M294.28,435.73c.77,1,2.28,2.93,3.47,3.1s2.93-1.36,2.93-1.36a2.74,2.74,0,0,0,2.17,1.09c1.29-.11,2.65-2.36,2.65-2.36a13.52,13.52,0,0,0-5.42-1.3A24.74,24.74,0,0,0,294.28,435.73Z" style="fill:#fff;opacity:.6000000000000001"/><path d="M294.28,435.73c.77,1,2.28,2.93,3.47,3.1s2.93-1.36,2.93-1.36a2.74,2.74,0,0,0,2.17,1.09c1.29-.11,2.65-2.36,2.65-2.36a13.52,13.52,0,0,0-5.42-1.3A24.74,24.74,0,0,0,294.28,435.73Z" style="opacity:.05"/><path d="M313,425.33c.78-2.66.05-5.62-3-6.63-4.17-1.39-5.89,1.71-7.77,3a6.8,6.8,0,0,1-7,.19c-2.77-1.71-3.54-4.5-5.11-3.83-1.39.58-.43,3.83-.43,3.83a2.67,2.67,0,0,0-1.49,2.45c.11,1.7,1.92,3.4,1.92,3.4a6.7,6.7,0,0,0,.35,3.65,10.6,10.6,0,0,0,8.23,6c5.2.63,8.37-1.36,9.72-4.72,1.2-3,1.61-4.29,2.56-5.13C312.22,426.39,312.65,426.56,313,425.33Z" style="fill:#092853"/><path d="M313,425.33c.78-2.66.05-5.62-3-6.63-4.17-1.39-5.89,1.71-7.77,3a6.8,6.8,0,0,1-7,.19c-2.77-1.71-3.54-4.5-5.11-3.83-1.39.58-.43,3.83-.43,3.83a2.67,2.67,0,0,0-1.49,2.45c.11,1.7,1.92,3.4,1.92,3.4a6.7,6.7,0,0,0,.35,3.65,10.6,10.6,0,0,0,8.23,6c5.2.63,8.37-1.36,9.72-4.72,1.2-3,1.61-4.29,2.56-5.13C312.22,426.39,312.65,426.56,313,425.33Z" style="fill:#fff;opacity:.65"/><path d="M311,427.5a2,2,0,0,1,.74-1.7c.86-.69,1.28-.47,1.28-.47a4.32,4.32,0,0,1,1,2.75A8.07,8.07,0,0,1,311,427.5Z" style="fill:#fafafa"/><path d="M308.86,423.81a.63.63,0,0,1-.63.63.63.63,0,0,1,0-1.26A.63.63,0,0,1,308.86,423.81Z" style="fill:#455a64"/><path d="M303.16,430.26c-1.67,2.81-6.13,2-6.46.94s.49-1.38.49-1.38-2.6-.2-3.53-1.59.24-2.19.65-2.19a1.51,1.51,0,0,0-1.34,2.4,5.72,5.72,0,0,0,3,1.74,1.81,1.81,0,0,0,.49,1.83A4.31,4.31,0,0,0,303.16,430.26Z" style="opacity:.1"/></g></g><g id="freepik--Wheelbarrow--inject-33"><g id="freepik--wheelbarrow--inject-33"><path d="M375.8,174.64h0a1.72,1.72,0,0,1,1.76.17,5.47,5.47,0,0,1,2.49,4.3,1.74,1.74,0,0,1-.75,1.62h0l-15.83,9.11L360,183.75Z" style="fill:#455a64"/><path d="M360.37,181.46a2.58,2.58,0,0,1,2.6.25,8.26,8.26,0,0,1,3.72,6.45,2.6,2.6,0,0,1-1.05,2.36l-1.17.64a2.66,2.66,0,0,1-2.5-.31,8.2,8.2,0,0,1-3.72-6.44,2.65,2.65,0,0,1,1-2.35Z" style="fill:#37474f"/><path d="M365.66,188.71a8.18,8.18,0,0,0-3.71-6.42c-2-1.18-3.7-.23-3.7,2.14a8.22,8.22,0,0,0,3.7,6.42C364,192,365.66,191.07,365.66,188.71Z" style="fill:#263238"/><path d="M213.57,358.69a1.25,1.25,0,0,0,.66-.19l79.31-50.89a1.21,1.21,0,0,0,.55-.82L303,255.5a11.27,11.27,0,0,1,2.48-5.35L353.28,193l9.16-5.28c.58-.34-.64-2.46-1.23-2.12L351.86,191a1.18,1.18,0,0,0-.32.27l-48,57.28a13.76,13.76,0,0,0-3,6.5l-8.79,50.76L212.9,356.43a1.23,1.23,0,0,0,.67,2.26Z" style="fill:#f5f5f5"/><rect width="54.81" height="2.45" x="202.84" y="329.57" transform="translate(-169.88 379.18) rotate(-62.06)" style="fill:#f5f5f5"/><path d="M261.87,342.61l4.47-8.88-10.64-6.16h0c-3.38-1.95-7.89-1.73-12.84,1.13-10.51,6.07-19,21.72-19,35,0,6.93,2.34,11.82,6.07,14h0l.15.08,0,0,10.91,6.3,4.72-9.37C254.63,367.9,261.52,354.42,261.87,342.61Z" style="fill:#37474f"/><path d="M261.87,342.61l4.47-8.88-10.64-6.16h0c-3.38-1.95-7.89-1.73-12.84,1.13-10.51,6.07-19,21.72-19,35,0,6.93,2.34,11.82,6.07,14h0l.15.08,0,0,10.91,6.3,4.72-9.37C254.63,367.9,261.52,354.42,261.87,342.61Z" style="fill:#263238"/><path d="M273,348.07c0,11.42-6.33,24.63-14.82,31.94,0,0,0,0,0,0a28,28,0,0,1-4.18,3c-10.51,6.08-19,.26-19-13,0-10,4.87-21.39,11.78-29,0,0,0,0,.06-.06a30.82,30.82,0,0,1,7.19-5.93C264.44,329,273,334.84,273,348.07Z" style="fill:#37474f"/><path d="M253.93,343.08c6.69-3.86,12.11.16,12.11,9s-5.42,19.11-12.11,23-12.11-.16-12.11-9S247.24,346.94,253.93,343.08Z" style="fill:#455a64"/><path d="M259.4,356.62c-.46,4.39-3.28,9-6.3,10.39a2.93,2.93,0,0,1-3.29-.28c-1.06-.91-1.61-2.76-1.35-5.23.46-4.38,3.28-9,6.31-10.38a3.3,3.3,0,0,1,2.21-.29h0C258.73,351.26,259.74,353.43,259.4,356.62Z" style="fill:#fafafa"/><path d="M258.33,356.05c-.46,4.39-3.29,9.05-6.31,10.39a3.43,3.43,0,0,1-2.21.29c-1.06-.91-1.61-2.76-1.35-5.23.46-4.38,3.28-9,6.31-10.38a3.3,3.3,0,0,1,2.21-.29h0C258,351.74,258.58,353.6,258.33,356.05Z" style="fill:#f0f0f0"/><path d="M273,348.07c0,11.42-6.33,24.63-14.82,31.94a53.94,53.94,0,0,0,12.07-23.36c1.61-7.63,1-18.58-5.54-21.35s-15.2,3.06-17.93,5.72a30.82,30.82,0,0,1,7.19-5.93C264.44,329,273,334.84,273,348.07Z" style="fill:#455a64"/><path d="M435.55,209.37h0a1.74,1.74,0,0,1,1.76.17,5.48,5.48,0,0,1,2.49,4.31,1.72,1.72,0,0,1-.75,1.61h0l-15.83,9.11-3.51-6.09Z" style="fill:#455a64"/><path d="M420.12,216.2a2.56,2.56,0,0,1,2.6.25,8.2,8.2,0,0,1,3.72,6.44,2.59,2.59,0,0,1-1.05,2.36c-.09.06-1.05.58-1.17.64a2.65,2.65,0,0,1-2.5-.3,8.21,8.21,0,0,1-3.72-6.45,2.62,2.62,0,0,1,1-2.34C419.12,216.73,420,216.24,420.12,216.2Z" style="fill:#37474f"/><path d="M425.41,223.44A8.19,8.19,0,0,0,421.7,217c-2-1.18-3.7-.22-3.7,2.14a8.21,8.21,0,0,0,3.7,6.42C423.75,226.76,425.41,225.8,425.41,223.44Z" style="fill:#263238"/><path d="M223.6,373.5a24.6,24.6,0,0,0,11-2.45L312,331.1a6.29,6.29,0,0,1,8.35,2.45l5.22,9c3.71,6.44,11.68,8.82,17.76,5.32s11.46-11.85,12.8-19.55l6.78-39.18a11.47,11.47,0,0,1,2.52-5.39l46.36-54.73a11.19,11.19,0,0,1,3-2.49l7.45-4.3c.59-.34-.64-2.46-1.23-2.12l-7.45,4.29a13.77,13.77,0,0,0-3.63,3L363.52,282.2a13.76,13.76,0,0,0-3.06,6.55l-6.79,39.18c-1.2,6.94-6.3,14.78-11.61,17.84-4.9,2.83-11.37.85-14.41-4.42l-5.22-9a8.74,8.74,0,0,0-11.6-3.4L233.5,368.87c-5.68,2.93-14.51,2.89-19.68-.1-2.16-1.24-3.37-2.91-3.41-4.69,0-2,1.35-4,3.82-5.58a1.23,1.23,0,0,0-1.33-2.07c-3.2,2.06-5,4.87-4.94,7.71.06,2.67,1.71,5.07,4.63,6.76A22.57,22.57,0,0,0,223.6,373.5Z" style="fill:#f5f5f5"/><rect width="54.81" height="2.45" x="226.06" y="342.97" transform="translate(-172.75 376.73) rotate(-58)" style="fill:#f5f5f5"/><path d="M203.25,272.09l19.7,25a45.28,45.28,0,0,0,5.62,5.73l87.64-60.7a12.54,12.54,0,0,1,6.54-2.22h0V214.58Z" style="fill:#263238"/><path d="M322.75,239.91a12.52,12.52,0,0,1,6.91,1.67l45.45,26.24a26.65,26.65,0,0,0,2.42-10.11v-11.5l-54.77-31.63Z" style="fill:#37474f"/><path d="M316.21,242.13a12.56,12.56,0,0,1,13.45-.56l45.46,26.25a30.18,30.18,0,0,1-6.53,9.78l-56.4,52.92a26.49,26.49,0,0,1-31.35,3.62l-45.41-26.22a47.33,47.33,0,0,1-6.86-5.08Z" style="fill:#455a64"/><path d="M377.53,246.21v11.61c0,6.35-4,15.17-8.94,19.78l-56.4,52.92a26.42,26.42,0,0,1-18.69,7.14l-15.56-22.45Z" style="fill:#37474f"/><path d="M277.94,315.21l15.56,22.45a26.33,26.33,0,0,1-12.65-3.52l-45.42-26.22a52.55,52.55,0,0,1-12.49-10.82l-19.69-25Z" style="fill:#263238"/><path d="M204,278.28l68.6,39.61A10.69,10.69,0,0,0,283,317.5l95-64.85c5.19-3.54,5-9-.46-12.16L328.07,211.9a12.91,12.91,0,0,0-10.82-.37L204.43,266.64C198.3,269.64,198.12,274.87,204,278.28Zm4.74-8.85,108.47-52.19a13,13,0,0,1,10.83.41l44.16,25.5c2.93,1.69,3,4.62.27,6.55l-89.52,62a10.52,10.52,0,0,1-10.35.42l-64.07-37C205.63,273.46,205.72,270.9,208.77,269.43Z" style="fill:#455a64"/><path d="M222.75,273.28a8.41,8.41,0,0,1,6.91,3.61,21,21,0,0,1,14.56-9,8.4,8.4,0,0,1,14-5.2A21,21,0,0,1,294,265.81a5.06,5.06,0,0,1,1.52-2,5.1,5.1,0,0,1,8.26,4.18,20.71,20.71,0,0,1,4.95-.6,20.94,20.94,0,0,1,16.66,8.24,5,5,0,0,1,1.68-2.37,5.11,5.11,0,0,1,7.19.87,5.29,5.29,0,0,1,.8,1.52L283,311.72a10.52,10.52,0,0,1-10.35.42l-57.77-33.35A8.39,8.39,0,0,1,222.75,273.28Z" style="fill:#b16668"/><path d="M285.49,281.79a6.82,6.82,0,0,1,8.82-2,9.81,9.81,0,0,1,16.74,2.91,9.81,9.81,0,0,0-14.88-1.41,9.49,9.49,0,0,0-.94,1.06,5.19,5.19,0,0,0-.46-.36,6.52,6.52,0,0,0-1.43-.8,6.81,6.81,0,0,0-8.1,2.31,6.39,6.39,0,0,0-1,2.13A6.68,6.68,0,0,1,285.49,281.79Z" style="fill:#9a4a4d"/><path d="M270.35,273.71a5.17,5.17,0,0,0-6.7-1.49,7.45,7.45,0,0,0-12.71,2.21,7.45,7.45,0,0,1,11.3-1.07,7.76,7.76,0,0,1,.72.8l.34-.27a5.6,5.6,0,0,1,1.09-.61,5.19,5.19,0,0,1,6.15,1.76,5,5,0,0,1,.79,1.61A5.06,5.06,0,0,0,270.35,273.71Z" style="fill:#9a4a4d"/><path d="M279.83,295.88a5.19,5.19,0,0,0-6.7-1.5,7.45,7.45,0,0,0-12.71,2.22,7.45,7.45,0,0,1,11.3-1.07,7.88,7.88,0,0,1,.72.8,3.1,3.1,0,0,1,.34-.27,4.89,4.89,0,0,1,1.09-.61,5.16,5.16,0,0,1,6.15,1.76,4.83,4.83,0,0,1,.79,1.61A5.11,5.11,0,0,0,279.83,295.88Z" style="fill:#9a4a4d"/></g></g><g id="freepik--Character--inject-33"><g id="freepik--character--inject-33"><g id="freepik--Arm--inject-33"><path d="M170.53,159.88c4.81,11.69,11.42,28.71,11.42,28.71,7.41,5.3,15.29,9.88,22.56,12.25a5.6,5.6,0,0,0,3.91-.17c3.3-1.37,5.62-1.25,8.92-1.74,2.58-.38,3.82-1.34,4.19-.82a2.81,2.81,0,0,1-1,3.79,20.44,20.44,0,0,1-4.38,2.14c.22-.08,1.36.57,1.58.65a25.56,25.56,0,0,0,4.11,1.14,17,17,0,0,0,4.6.38l5.39-.51a3.88,3.88,0,0,1,1.63.06,1.41,1.41,0,0,1,1,1.16,1.8,1.8,0,0,1-1,1.43,4.08,4.08,0,0,0-1.42,1.1c-.4.63-.3,1.45-.62,2.12a4.68,4.68,0,0,1-.88,1.11,23.59,23.59,0,0,0-1.85,2.75,5.34,5.34,0,0,1-3,2.37,18.2,18.2,0,0,1-2.74.65,28.08,28.08,0,0,1-7.44.09,43.79,43.79,0,0,1-7-1.39,112.74,112.74,0,0,1-13-4.07c-11.48-4.81-13.27-5-21-9-1.94-1-5.5-3.58-7.08-6.57-10.75-20.42-14.08-26.53-18.2-37.83l-.26-22.26C160.94,141.35,162.53,140.39,170.53,159.88Z" style="fill:#ffa8a7"/><path d="M150.1,137c10.73,1,13,5.15,16.87,13.2,4.79,10,14.62,36.69,14.62,36.69a28.31,28.31,0,0,1-16.17,7.64l-14.78-28.12S142.74,145.14,150.1,137Z" style="fill:#37474f"/><path d="M185.6,191.11c.13-.67-1.24-1.54-2.14-3s-2-5.4-3.28-4.95c0,0-6.72,4.09-10.81,4.9a44.41,44.41,0,0,1-6.92.87s-1.95.09.59,5.56,6.6,8.69,8.2,8.93,1.82-.24,1.82-.24A34.71,34.71,0,0,0,185.6,191.11Z" style="fill:#263238"/></g><g id="freepik--Chest--inject-33"><path d="M102.24,143.43S99,145.51,99,151.53c0,2.39.17,8.14,2.81,19.15,2.39,10,2.5,14.45,3.1,21.5L103,217.36c7.48,8.38,40.45,12.21,57.22.33,0,0,.92-45.59-.61-60.12-1-9.86-6-17.57-9.5-20.53-4.65-.7-6-1.16-9.16-1.19l-17.38-1.77Z" style="fill:#455a64"/></g><g id="freepik--Botom--inject-33"><path d="M138.35,386.14c-.31.31-.29,3.08.28,3.43,2.09,1.26,10.73,2.78,13,4.32,2.61,1.8,5.74,6.48,14.81,7.22,11.49.93,16.65-2.7,18.25-4.66.52-.63.7-5,.25-5.07C183.14,391.1,138.35,386.14,138.35,386.14Z" style="fill:#37474f"/><path d="M102.69,208.59c-1.63,24-2.82,87.15-2.82,87.15-.38,3-4.24,10.58-4.94,21.34-1,15.61-.83,41.89-.83,41.89s9.4,4.41,16.36,1.86c0,0,11.57-45.23,14.17-56.44,3.1-13.36,6.39-45.8,6.39-45.8l4.13,40.5a92.55,92.55,0,0,0,0,19.41c.79,7.14,4.8,36.33,4.8,36.33s10.39,2.17,17.94,0c0,0,2.72-49.82,3.13-56.38.47-7.48.06-88.36.06-88.36.62-25.74,2.89-64.33-11-73l-5.55-.91A37.78,37.78,0,0,1,151,155.06l-25.84,1.79-9.13-19.48-7,3.08s5.32,12.88,6,25.46-11.36,31.72-11.36,31.72S103,203.5,102.69,208.59Z" style="fill:#092853"/><path d="M102.69,208.59c-1.63,24-2.82,87.15-2.82,87.15-.38,3-4.24,10.58-4.94,21.34-1,15.61-.83,41.89-.83,41.89s9.4,4.41,16.36,1.86c0,0,11.57-45.23,14.17-56.44,3.1-13.36,6.39-45.8,6.39-45.8l4.13,40.5a92.55,92.55,0,0,0,0,19.41c.79,7.14,4.8,36.33,4.8,36.33s10.39,2.17,17.94,0c0,0,2.72-49.82,3.13-56.38.47-7.48.06-88.36.06-88.36.62-25.74,2.89-64.33-11-73l-5.55-.91A37.78,37.78,0,0,1,151,155.06l-25.84,1.79-9.13-19.48-7,3.08s5.32,12.88,6,25.46-11.36,31.72-11.36,31.72S103,203.5,102.69,208.59Z" style="fill:#fff;opacity:.6000000000000001"/><path d="M131,258.59l3.52-22.51s8.26-.27,13.94-5.53c0,0-.74,5.28-11.07,8.4l-4,19,1.65,40.5Z" style="fill:#092853;opacity:.25"/><path d="M131,258.59l3.52-22.51s8.26-.27,13.94-5.53c0,0-.74,5.28-11.07,8.4l-4,19,1.65,40.5Z" style="fill:#092853"/><path d="M134.68,310c0,2.13,6.22,3.67,13.8,4.07s11.86-3.14,11.92-4.07l.1-1.78s1.67-.22,1.14,5.36-2,47.71-2,50.6,1.43,8.78,5.87,12.13a92,92,0,0,0,14.66,8.78c4.33,2.05,5.75,4,5.05,8.22,0,0-3.08,5.74-15.19,5.91-11,.15-13.66-4-17.38-7s-9.15-2.33-13.95-5.26c0,0-1.46-2.73.17-10.66.82-4,.15-10.08-.71-17.28s-4.79-43.8-5-47.24.48-4.88,1.5-4.88Z" style="fill:#455a64"/><path d="M110.55,399.91c-.09,4.71-.78,7.85-2.54,10.67s-5.28,3.81-8.92,3.14-8.36-2.65-9.58-6.66-1.14-6.79-.52-11.17Z" style="fill:#263238"/><path d="M121.39,317.66l-.58,2.33s-5.17,2-14.48-.05-11-7.07-11-7.07l.49-2.87c-1.52.12-1.59,1.78-1.78,5.87s-1,20.82-.92,28.54-.23,15.61-.5,21.12-.9,8.53-1,13.78-3,11.75-2.8,18.91h0a13.46,13.46,0,0,0,2.8,9.23c2.69,3.74,11.76,7.16,15.9,1.52a15.78,15.78,0,0,0,3-9.06h0a49.4,49.4,0,0,0-.3-6.82c-.17-1.72-.33-3.29-.47-4.78-.53-7.16.5-16.08,1.7-24.12s9.08-39,10-42.75S121.39,317.66,121.39,317.66Z" style="fill:#455a64"/></g><g id="freepik--apple-box--inject-33"><polygon points="150.97 275 217.11 236.81 177.42 213.89 111.28 252.08 150.97 275" style="fill:#455a64"/><polygon points="225.24 187.19 222.59 188.72 174.84 161.15 177.49 159.62 225.24 187.19" style="fill:#092853"/><polygon points="225.24 187.19 225.24 196.38 222.59 197.91 222.59 188.72 225.24 187.19" style="fill:#092853"/><polygon points="225.24 187.19 225.24 196.38 222.59 197.91 222.59 188.72 225.24 187.19" style="opacity:.2"/><polygon points="174.84 161.15 174.84 170.34 222.59 197.91 222.59 188.72 174.84 161.15" style="fill:#092853"/><polygon points="174.84 161.15 174.84 170.34 222.59 197.91 222.59 188.72 174.84 161.15" style="opacity:.30000000000000004"/><polygon points="105.87 200.97 174.84 161.15 177.49 162.68 108.52 202.5 105.87 200.97" style="fill:#092853"/><polygon points="108.52 202.5 108.52 211.69 177.49 171.87 177.49 162.68 108.52 202.5" style="fill:#092853"/><polygon points="108.52 202.5 108.52 211.69 177.49 171.87 177.49 162.68 108.52 202.5" style="opacity:.30000000000000004"/><polygon points="177.09 172.1 177.49 162.68 177.49 171.87 177.09 172.1" style="opacity:.2"/><polygon points="105.87 219.35 174.84 179.53 177.49 181.06 108.52 220.88 105.87 219.35" style="fill:#092853"/><polygon points="108.52 220.88 108.52 230.07 177.49 190.25 177.49 181.06 108.52 220.88" style="fill:#092853"/><polygon points="108.52 220.88 108.52 230.07 177.49 190.25 177.49 181.06 108.52 220.88" style="opacity:.30000000000000004"/><polygon points="177.09 190.48 177.49 181.06 177.49 190.25 177.09 190.48" style="opacity:.2"/><polygon points="105.87 237.73 174.84 197.91 177.49 199.44 108.52 239.26 105.87 237.73" style="fill:#092853"/><polygon points="108.52 239.26 108.52 248.45 177.49 208.63 177.49 199.44 108.52 239.26" style="fill:#092853"/><polygon points="108.52 239.26 108.52 248.45 177.49 208.63 177.49 199.44 108.52 239.26" style="opacity:.30000000000000004"/><polygon points="177.09 208.86 177.49 199.44 177.49 208.63 177.09 208.86" style="opacity:.2"/><polygon points="225.24 205.57 222.59 207.1 174.84 179.53 177.49 178 225.24 205.57" style="fill:#092853"/><polygon points="225.24 205.57 225.24 214.76 222.59 216.29 222.59 207.1 225.24 205.57" style="fill:#092853"/><polygon points="225.24 205.57 225.24 214.76 222.59 216.29 222.59 207.1 225.24 205.57" style="opacity:.2"/><polygon points="174.84 179.53 174.84 188.72 222.59 216.29 222.59 207.1 174.84 179.53" style="fill:#092853"/><polygon points="174.84 179.53 174.84 188.72 222.59 216.29 222.59 207.1 174.84 179.53" style="opacity:.30000000000000004"/><polygon points="225.24 223.95 222.59 225.48 174.84 197.91 177.49 196.38 225.24 223.95" style="fill:#092853"/><polygon points="225.24 223.95 225.24 233.14 222.59 234.67 222.59 225.48 225.24 223.95" style="fill:#092853"/><polygon points="225.24 223.95 225.24 233.14 222.59 234.67 222.59 225.48 225.24 223.95" style="opacity:.2"/><polygon points="174.84 197.91 174.84 207.1 222.59 234.67 222.59 225.48 174.84 197.91" style="fill:#092853"/><polygon points="174.84 197.91 174.84 207.1 222.59 234.67 222.59 225.48 174.84 197.91" style="opacity:.30000000000000004"/><polygon points="108.52 202.5 111.17 204.04 113.83 202.5 111.17 200.97 108.52 202.5" style="fill:#092853"/><polygon points="111.17 204.04 111.17 253.05 108.52 251.51 108.52 202.5 111.17 204.04" style="fill:#092853"/><polygon points="111.17 204.04 111.17 253.05 108.52 251.51 108.52 202.5 111.17 204.04" style="opacity:.25"/><polygon points="111.17 204.04 111.17 253.05 113.83 251.51 113.83 202.5 111.17 204.04" style="fill:#092853"/><polygon points="111.17 204.04 111.17 253.05 113.83 251.51 113.83 202.5 111.17 204.04" style="opacity:.15"/><polygon points="108.52 214.76 111.17 216.29 111.17 217.44 108.52 215.91 108.52 214.76" style="opacity:.2"/><polygon points="108.52 233.14 111.17 234.67 111.17 235.82 108.52 234.29 108.52 233.14" style="opacity:.2"/><polygon points="111.17 200.97 108.52 202.5 111.17 204.04 109.33 202.5 111.17 200.97" style="opacity:.2"/><polygon points="174.84 164.22 177.49 165.75 180.15 164.22 177.49 162.68 174.84 164.22" style="fill:#092853"/><polygon points="177.49 165.75 177.49 214.76 174.84 213.22 174.84 164.22 177.49 165.75" style="fill:#092853"/><polygon points="177.49 165.75 177.49 214.76 174.84 213.22 174.84 164.22 177.49 165.75" style="opacity:.25"/><polygon points="177.49 165.75 177.49 214.76 180.15 213.22 180.15 164.22 177.49 165.75" style="fill:#092853"/><polygon points="177.49 165.75 177.49 214.76 180.15 213.22 180.15 164.22 177.49 165.75" style="opacity:.15"/><polygon points="174.84 164.22 177.49 162.68 180.15 164.22 177.49 163.2 174.84 164.22" style="opacity:.2"/><g id="freepik--Apple--inject-33"><path d="M192.63,214.41c-2.25-.36-6.17-.91-9.65,3.51-4,5-2.77,12.64.79,16.51,4.46,4.87,12.69,6.9,18.53,3.52,6.46-3.73,8.89-12.94,6.1-17.81s-8.7-5-10.31-4.66C195.67,215.94,194.37,214.69,192.63,214.41Z" style="fill:#f28f8f"/><path d="M192.63,214.41c-2.25-.36-6.17-.91-9.65,3.51-4,5-2.77,12.64.79,16.51,4.46,4.87,12.69,6.9,18.53,3.52,6.46-3.73,8.89-12.94,6.1-17.81s-8.7-5-10.31-4.66C195.67,215.94,194.37,214.69,192.63,214.41Z" style="opacity:.15"/><path d="M199.5,236.14c-6.43,1.89-14.06-.81-18-5.48a12,12,0,0,0,2.29,3.77c4.46,4.87,12.69,6.9,18.53,3.52,4.9-2.82,7.47-8.8,7.22-13.65C209.46,225.63,206.57,234.07,199.5,236.14Z" style="opacity:.1"/><g style="opacity:.2"><path d="M189.89,215.88c-1.4-.44-3.75.38-5.26,2.09a13.91,13.91,0,0,0-2.92,8.07c-.25,5.2,4,8.89,4.58,8.56s-2.24-4.36.79-8.93S192.19,216.59,189.89,215.88Z" style="fill:#fff"/></g><g style="opacity:.2"><path d="M188.61,216.44c-1.56.18-3.76,2.14-4.56,3.69s-.83,2.72-.64,3c.32.44,3.91-1.81,5.16-2.89C190.33,218.65,191.13,216.16,188.61,216.44Z" style="fill:#fff"/></g><path d="M194,219.2c-.64-.79-1.3-1.26-1.89-.42s1.16,2.77,3.6,2.6,3.56-1.49,3.67-2.26a4.28,4.28,0,0,1-3,1.27A4,4,0,0,1,194,219.2Z" style="fill:#b16668"/><path d="M195.83,220.79a22,22,0,0,0,.33-6.49c-.4-3.17-1.78-5.63-2.23-6a6.22,6.22,0,0,0-2.43-.93c-1.18-.24-2.75.24-2.47.78s1.91,1.25,3.55,3.62,2.79,6.54,2.3,8.78A.94.94,0,0,0,195.83,220.79Z" style="fill:#37474f"/><path d="M193.85,208.28l-.1-.07h0a6.79,6.79,0,0,0-2.24-.8,3.28,3.28,0,0,0-2.35.38c-.11.15.09.44,1.11.82a6.79,6.79,0,0,0,3.16.39C193.92,208.93,194.18,208.56,193.85,208.28Z" style="fill:#455a64"/><path d="M195.1,216.75c-.34-2.85-2.67-5.67-4.38-7.07h0a12.31,12.31,0,0,1,1.86,2.13c1.64,2.37,2.79,6.54,2.3,8.78a.94.94,0,0,0,1,.2s.17-.8.3-2C195.84,219.87,195.43,219.38,195.1,216.75Z" style="opacity:.1"/><path d="M196.28,216.05a5.18,5.18,0,0,0,7.2-5.67,5.26,5.26,0,0,0-4.82.43A6.24,6.24,0,0,0,196.28,216.05Z" style="fill:#092853"/><path d="M196.28,216.05a5.18,5.18,0,0,0,7.2-5.67,5.26,5.26,0,0,0-4.82.43A6.24,6.24,0,0,0,196.28,216.05Z" style="opacity:.30000000000000004"/><path d="M203.48,210.38a5.26,5.26,0,0,0-4.82.43,6.24,6.24,0,0,0-2.38,5.24C198.49,212.24,203.48,210.38,203.48,210.38Z" style="fill:#092853"/></g><g id="freepik--apple--inject-33"><path d="M174.54,226.57c-2.24-.36-6.17-.91-9.65,3.51-4,5-2.76,12.64.79,16.51,4.47,4.87,12.69,6.9,18.53,3.52,6.46-3.73,8.89-12.94,6.1-17.81s-8.69-5-10.3-4.66C177.59,228.1,176.29,226.85,174.54,226.57Z" style="fill:#f28f8f"/><path d="M174.54,226.57c-2.24-.36-6.17-.91-9.65,3.51-4,5-2.76,12.64.79,16.51,4.47,4.87,12.69,6.9,18.53,3.52,6.46-3.73,8.89-12.94,6.1-17.81s-8.69-5-10.3-4.66C177.59,228.1,176.29,226.85,174.54,226.57Z" style="opacity:.1"/><path d="M181.41,248.3c-6.43,1.89-14.06-.81-18-5.48a12.13,12.13,0,0,0,2.28,3.77c4.47,4.87,12.69,6.9,18.53,3.52,4.9-2.82,7.48-8.8,7.22-13.65C191.37,237.79,188.48,246.23,181.41,248.3Z" style="opacity:.1"/><g style="opacity:.2"><path d="M171.81,228c-1.41-.44-3.76.37-5.27,2.08a14,14,0,0,0-2.92,8.08c-.25,5.2,4,8.89,4.58,8.56s-2.24-4.36.79-8.93S174.11,228.75,171.81,228Z" style="fill:#fff"/></g><g style="opacity:.2"><path d="M170.53,228.6c-1.57.18-3.76,2.14-4.56,3.69s-.83,2.72-.65,3c.33.44,3.92-1.81,5.16-2.9C172.25,230.81,173.05,228.32,170.53,228.6Z" style="fill:#fff"/></g><path d="M175.91,231.36c-.64-.79-1.31-1.26-1.9-.42s1.16,2.77,3.6,2.6,3.56-1.49,3.68-2.26a4.31,4.31,0,0,1-3,1.27A3.92,3.92,0,0,1,175.91,231.36Z" style="fill:#b16668"/><path d="M177.74,233a22.19,22.19,0,0,0,.34-6.49,12,12,0,0,0-2.23-6,6.22,6.22,0,0,0-2.43-.93c-1.18-.24-2.76.24-2.47.78s1.91,1.25,3.54,3.62,2.79,6.54,2.31,8.78A.93.93,0,0,0,177.74,233Z" style="fill:#37474f"/><path d="M175.77,220.44l-.11-.07h0a7.08,7.08,0,0,0-2.23-.79,3.27,3.27,0,0,0-2.35.38c-.12.15.09.44,1.11.82a6.64,6.64,0,0,0,3.16.38C175.83,221.09,176.1,220.72,175.77,220.44Z" style="fill:#455a64"/><path d="M177,228.91c-.35-2.85-2.68-5.67-4.39-7.07h0a11.9,11.9,0,0,1,1.86,2.13c1.64,2.37,2.79,6.54,2.31,8.78a.93.93,0,0,0,.94.2,19.83,19.83,0,0,0,.31-2C177.75,232,177.34,231.54,177,228.91Z" style="opacity:.1"/><path d="M178.19,228.21a5.19,5.19,0,0,0,7.21-5.67,5.28,5.28,0,0,0-4.83.43A6.27,6.27,0,0,0,178.19,228.21Z" style="fill:#092853"/><path d="M178.19,228.21a5.19,5.19,0,0,0,7.21-5.67,5.28,5.28,0,0,0-4.83.43A6.27,6.27,0,0,0,178.19,228.21Z" style="opacity:.30000000000000004"/><path d="M185.4,222.54a5.28,5.28,0,0,0-4.83.43,6.27,6.27,0,0,0-2.38,5.24C180.41,224.4,185.4,222.54,185.4,222.54Z" style="fill:#092853"/></g><g id="freepik--apple--inject-33"><path d="M154.61,236.9c-2.25-.35-6.17-.9-9.65,3.52-4,5-2.77,12.63.79,16.51,4.46,4.86,12.69,6.89,18.53,3.52,6.46-3.73,8.89-12.95,6.1-17.82s-8.7-4.95-10.31-4.65C157.65,238.44,156.35,237.18,154.61,236.9Z" style="fill:#f28f8f"/><path d="M154.61,236.9c-2.25-.35-6.17-.9-9.65,3.52-4,5-2.77,12.63.79,16.51,4.46,4.86,12.69,6.89,18.53,3.52,6.46-3.73,8.89-12.95,6.1-17.82s-8.7-4.95-10.31-4.65C157.65,238.44,156.35,237.18,154.61,236.9Z" style="opacity:.15"/><path d="M161.47,258.64c-6.42,1.89-14.05-.81-18-5.48a12,12,0,0,0,2.29,3.77c4.46,4.86,12.69,6.89,18.53,3.52,4.9-2.83,7.47-8.81,7.22-13.66C171.43,248.12,168.55,256.57,161.47,258.64Z" style="opacity:.1"/><g style="opacity:.2"><path d="M151.87,238.37c-1.4-.43-3.75.38-5.27,2.09a13.93,13.93,0,0,0-2.91,8.08c-.25,5.19,4,8.88,4.58,8.56s-2.24-4.37.78-8.93S154.17,239.09,151.87,238.37Z" style="fill:#fff"/></g><g style="opacity:.2"><path d="M150.59,238.94c-1.56.17-3.76,2.13-4.56,3.69s-.83,2.72-.65,3c.33.43,3.92-1.81,5.17-2.9C152.31,241.15,153.11,238.66,150.59,238.94Z" style="fill:#fff"/></g><path d="M156,241.69c-.64-.79-1.3-1.26-1.89-.41s1.15,2.77,3.6,2.6,3.56-1.49,3.67-2.26a4.32,4.32,0,0,1-3,1.27A4,4,0,0,1,156,241.69Z" style="fill:#b16668"/><path d="M157.8,243.29a21.85,21.85,0,0,0,.34-6.5,12,12,0,0,0-2.23-6,6.4,6.4,0,0,0-2.43-.92c-1.18-.24-2.75.24-2.47.78s1.91,1.24,3.55,3.62,2.79,6.54,2.3,8.77A.92.92,0,0,0,157.8,243.29Z" style="fill:#37474f"/><path d="M155.83,230.78l-.1-.07h0a7.06,7.06,0,0,0-2.24-.79,3.28,3.28,0,0,0-2.35.38c-.12.15.09.44,1.11.81a6.66,6.66,0,0,0,3.16.39C155.89,231.42,156.16,231.06,155.83,230.78Z" style="fill:#455a64"/><path d="M157.08,239.25c-.34-2.85-2.67-5.68-4.38-7.08h0a12.43,12.43,0,0,1,1.86,2.14c1.64,2.37,2.79,6.54,2.3,8.77a.92.92,0,0,0,.94.21,19.83,19.83,0,0,0,.31-2C157.82,242.37,157.4,241.88,157.08,239.25Z" style="opacity:.1"/><path d="M158.26,238.55a5.19,5.19,0,0,0,7.2-5.67,5.28,5.28,0,0,0-4.83.43A6.22,6.22,0,0,0,158.26,238.55Z" style="fill:#092853"/><path d="M158.26,238.55a5.19,5.19,0,0,0,7.2-5.67,5.28,5.28,0,0,0-4.83.43A6.22,6.22,0,0,0,158.26,238.55Z" style="opacity:.30000000000000004"/><path d="M165.46,232.88a5.28,5.28,0,0,0-4.83.43,6.22,6.22,0,0,0-2.37,5.24C160.47,234.73,165.46,232.88,165.46,232.88Z" style="fill:#092853"/></g><g id="freepik--apple--inject-33"><path d="M171.91,175.49c-2,.44-5.46,1.28-6.92,6.14-1.65,5.52,1.88,11.49,6.14,13.55,5.35,2.6,12.9,1.57,16.68-3.19,4.17-5.26,3.15-13.78-.8-16.93s-8.92-1.27-10.17-.48C175,175.76,173.46,175.14,171.91,175.49Z" style="fill:#f28f8f"/><path d="M171.91,175.49c-2,.44-5.46,1.28-6.92,6.14-1.65,5.52,1.88,11.49,6.14,13.55,5.35,2.6,12.9,1.57,16.68-3.19,4.17-5.26,3.15-13.78-.8-16.93s-8.92-1.27-10.17-.48C175,175.76,173.46,175.14,171.91,175.49Z" style="fill:#fff;opacity:.2"/><path d="M184.86,191.41a16.37,16.37,0,0,1-16.9,1.37,10.68,10.68,0,0,0,3.17,2.4c5.35,2.6,12.9,1.57,16.68-3.19a13.93,13.93,0,0,0,1.51-13.82C189.71,179.3,190.1,187.33,184.86,191.41Z" style="opacity:.1"/><g style="opacity:.2"><path d="M170.11,177.62c-1.32.1-3,1.56-3.72,3.5a12.57,12.57,0,0,0,.23,7.73c1.51,4.43,6.31,6.1,6.67,5.64s-3.32-2.91-2.3-7.73S172.27,177.46,170.11,177.62Z" style="fill:#fff"/></g><g style="opacity:.2"><path d="M169.22,178.52c-1.25.66-2.44,3-2.59,4.6s.2,2.55.43,2.69c.42.26,2.68-2.81,3.37-4.13C171.39,179.8,171.24,177.45,169.22,178.52Z" style="fill:#fff"/></g><path d="M174.64,179c-.8-.45-1.51-.62-1.73.29s1.89,1.93,3.88,1,2.49-2.43,2.33-3.11a3.88,3.88,0,0,1-2.07,2A3.49,3.49,0,0,1,174.64,179Z" style="fill:#b16668"/><path d="M176.7,179.77a19.86,19.86,0,0,0-1.87-5.55A10.71,10.71,0,0,0,171,170a5.7,5.7,0,0,0-2.34,0c-1.07.19-2.23,1.12-1.81,1.47s2,.41,4.17,1.86,4.5,4.55,4.83,6.58A.83.83,0,0,0,176.7,179.77Z" style="fill:#37474f"/><path d="M170.91,170l-.12,0h0a6.32,6.32,0,0,0-2.13.07,2.91,2.91,0,0,0-1.84,1.1c-.05.17.22.34,1.2.31a6,6,0,0,0,2.77-.72C171.17,170.47,171.27,170.08,170.91,170Z" style="fill:#455a64"/><path d="M174.76,176.63c-1.24-2.27-4.12-3.87-6-4.47h0a10.72,10.72,0,0,1,2.27,1.17c2.16,1.44,4.5,4.55,4.83,6.58a.83.83,0,0,0,.86-.14s-.12-.73-.4-1.77C176.41,179,175.9,178.72,174.76,176.63Z" style="opacity:.1"/><path d="M175.51,175.65a4.66,4.66,0,0,0,4.15-7.13,4.75,4.75,0,0,0-3.9,2A5.61,5.61,0,0,0,175.51,175.65Z" style="fill:#092853"/><path d="M175.51,175.65a4.66,4.66,0,0,0,4.15-7.13,4.75,4.75,0,0,0-3.9,2A5.61,5.61,0,0,0,175.51,175.65Z" style="opacity:.30000000000000004"/><path d="M179.66,168.52a4.75,4.75,0,0,0-3.9,2,5.61,5.61,0,0,0-.25,5.17C176.1,171.73,179.66,168.52,179.66,168.52Z" style="fill:#092853"/></g><g id="freepik--apple--inject-33"><path d="M197.46,185.54c-2.14-.34-5.87-.86-9.19,3.34-3.77,4.79-2.62,12,.76,15.71,4.25,4.63,12.07,6.56,17.63,3.35,6.15-3.55,8.46-12.32,5.81-16.95s-8.28-4.72-9.81-4.43C200.36,187,199.12,185.8,197.46,185.54Z" style="fill:#f28f8f"/><path d="M197.46,185.54c-2.14-.34-5.87-.86-9.19,3.34-3.77,4.79-2.62,12,.76,15.71,4.25,4.63,12.07,6.56,17.63,3.35,6.15-3.55,8.46-12.32,5.81-16.95s-8.28-4.72-9.81-4.43C200.36,187,199.12,185.8,197.46,185.54Z" style="opacity:.05"/><path d="M204,206.22A17.33,17.33,0,0,1,186.85,201a11.61,11.61,0,0,0,2.18,3.59c4.25,4.63,12.07,6.56,17.63,3.35a14.73,14.73,0,0,0,6.87-13C213.47,196.21,210.72,204.25,204,206.22Z" style="opacity:.1"/><g style="opacity:.2"><path d="M194.86,186.93c-1.34-.41-3.58.36-5,2a13.29,13.29,0,0,0-2.77,7.69c-.24,4.94,3.82,8.45,4.36,8.14s-2.14-4.15.75-8.49S197.05,187.61,194.86,186.93Z" style="fill:#fff"/></g><g style="opacity:.2"><path d="M193.64,187.47c-1.49.17-3.58,2-4.34,3.51s-.79,2.59-.62,2.82c.31.41,3.73-1.72,4.91-2.76C195.27,189.58,196,187.21,193.64,187.47Z" style="fill:#fff"/></g><path d="M198.76,190.09c-.61-.75-1.24-1.2-1.81-.39s1.11,2.63,3.43,2.47,3.39-1.42,3.5-2.15a4.1,4.1,0,0,1-2.83,1.21A3.79,3.79,0,0,1,198.76,190.09Z" style="fill:#b16668"/><path d="M200.5,191.61a20.86,20.86,0,0,0,.32-6.18,11.39,11.39,0,0,0-2.12-5.67,6,6,0,0,0-2.31-.88c-1.12-.23-2.62.23-2.35.74s1.81,1.19,3.37,3.45,2.65,6.22,2.19,8.35A.9.9,0,0,0,200.5,191.61Z" style="fill:#37474f"/><path d="M198.62,179.71l-.09-.07h0a6.82,6.82,0,0,0-2.12-.75,3.15,3.15,0,0,0-2.24.36c-.11.15.09.42,1.06.78a6.37,6.37,0,0,0,3,.37C198.68,180.32,198.94,180,198.62,179.71Z" style="fill:#455a64"/><path d="M199.81,187.77c-.33-2.72-2.54-5.4-4.17-6.73h0a11.13,11.13,0,0,1,1.77,2c1.56,2.25,2.65,6.22,2.19,8.35a.9.9,0,0,0,.9.19s.17-.76.3-1.89C200.51,190.73,200.12,190.27,199.81,187.77Z" style="opacity:.1"/><path d="M200.93,187.1a4.94,4.94,0,0,0,6.86-5.39,5,5,0,0,0-4.6.4A6,6,0,0,0,200.93,187.1Z" style="fill:#092853"/><path d="M200.93,187.1a4.94,4.94,0,0,0,6.86-5.39,5,5,0,0,0-4.6.4A6,6,0,0,0,200.93,187.1Z" style="opacity:.30000000000000004"/><path d="M207.79,181.71a5,5,0,0,0-4.6.4,6,6,0,0,0-2.26,5C203,183.47,207.79,181.71,207.79,181.71Z" style="fill:#092853"/></g><g id="freepik--apple--inject-33"><path d="M128.24,228.91c-2.41-.38-6.62-1-10.36,3.77-4.26,5.4-3,13.56.85,17.72,4.79,5.22,13.62,7.4,19.89,3.78,6.93-4,9.54-13.89,6.55-19.12s-9.34-5.32-11.07-5C131.51,230.55,130.11,229.21,128.24,228.91Z" style="fill:#f28f8f"/><path d="M128.24,228.91c-2.41-.38-6.62-1-10.36,3.77-4.26,5.4-3,13.56.85,17.72,4.79,5.22,13.62,7.4,19.89,3.78,6.93-4,9.54-13.89,6.55-19.12s-9.34-5.32-11.07-5C131.51,230.55,130.11,229.21,128.24,228.91Z" style="opacity:.1"/><path d="M135.61,252.24c-6.9,2-15.09-.87-19.33-5.89a12.82,12.82,0,0,0,2.45,4.05c4.79,5.22,13.62,7.4,19.89,3.78,5.25-3,8-9.45,7.74-14.66C146.3,241,143.2,250,135.61,252.24Z" style="opacity:.1"/><g style="opacity:.2"><path d="M125.3,230.49c-1.5-.47-4,.4-5.65,2.24a15,15,0,0,0-3.13,8.67c-.27,5.58,4.31,9.53,4.91,9.19s-2.4-4.69.85-9.59S127.77,231.25,125.3,230.49Z" style="fill:#fff"/></g><g style="opacity:.2"><path d="M123.93,231.1c-1.68.18-4,2.29-4.9,4s-.89,2.92-.69,3.18c.35.47,4.2-1.94,5.54-3.11C125.77,233.47,126.63,230.8,123.93,231.1Z" style="fill:#fff"/></g><path d="M129.7,234.05c-.68-.85-1.4-1.35-2-.44s1.24,3,3.86,2.79,3.82-1.6,3.95-2.43a4.62,4.62,0,0,1-3.19,1.36A4.28,4.28,0,0,1,129.7,234.05Z" style="fill:#b16668"/><path d="M131.67,235.77a23.55,23.55,0,0,0,.36-7c-.43-3.39-1.91-6-2.39-6.39a6.76,6.76,0,0,0-2.61-1c-1.27-.26-3,.26-2.65.84s2.05,1.34,3.81,3.88,3,7,2.47,9.42A1,1,0,0,0,131.67,235.77Z" style="fill:#37474f"/><path d="M129.55,222.34l-.11-.08h0a7.79,7.79,0,0,0-2.4-.85,3.49,3.49,0,0,0-2.52.41c-.13.16.09.47,1.19.88a7.23,7.23,0,0,0,3.39.41C129.62,223,129.9,222.64,129.55,222.34Z" style="fill:#455a64"/><path d="M130.9,231.43c-.38-3.06-2.88-6.09-4.71-7.59h0a13,13,0,0,1,2,2.28c1.75,2.55,3,7,2.47,9.42a1,1,0,0,0,1,.23s.19-.87.33-2.14C131.68,234.77,131.24,234.25,130.9,231.43Z" style="opacity:.1"/><path d="M132.16,230.68a6.05,6.05,0,0,0,6-1c2.24-1.91,1.76-5.14,1.76-5.14a5.67,5.67,0,0,0-5.18.46A6.69,6.69,0,0,0,132.16,230.68Z" style="fill:#092853"/><path d="M132.16,230.68a6.05,6.05,0,0,0,6-1c2.24-1.91,1.76-5.14,1.76-5.14a5.67,5.67,0,0,0-5.18.46A6.69,6.69,0,0,0,132.16,230.68Z" style="opacity:.30000000000000004"/><path d="M139.89,224.59a5.67,5.67,0,0,0-5.18.46,6.69,6.69,0,0,0-2.55,5.63C134.53,226.58,139.89,224.59,139.89,224.59Z" style="fill:#092853"/></g><g id="freepik--apple--inject-33"><path d="M154.83,180.51c2.09-.33,5.74-.84,9,3.27,3.69,4.68,2.57,11.76-.74,15.36-4.15,4.53-11.8,6.42-17.24,3.28-6-3.47-8.27-12-5.68-16.58s8.1-4.61,9.59-4.33C152,181.94,153.2,180.77,154.83,180.51Z" style="fill:#f28f8f"/><path d="M154.83,180.51c2.09-.33,5.74-.84,9,3.27,3.69,4.68,2.57,11.76-.74,15.36-4.15,4.53-11.8,6.42-17.24,3.28-6-3.47-8.27-12-5.68-16.58s8.1-4.61,9.59-4.33C152,181.94,153.2,180.77,154.83,180.51Z" style="opacity:.05"/><path d="M148.44,200.74a17,17,0,0,0,16.76-5.11,11.1,11.1,0,0,1-2.13,3.51c-4.15,4.53-11.8,6.42-17.24,3.28a14.41,14.41,0,0,1-6.72-12.71C139.17,191,141.86,198.81,148.44,200.74Z" style="opacity:.1"/><g style="opacity:.2"><path d="M157.37,181.88c1.31-.41,3.5.35,4.91,1.94a13,13,0,0,1,2.71,7.52c.23,4.83-3.74,8.26-4.26,8s2.08-4.06-.73-8.3S155.23,182.54,157.37,181.88Z" style="fill:#fff"/></g><g style="opacity:.2"><path d="M158.57,182.41c1.45.16,3.49,2,4.24,3.43s.77,2.53.6,2.75c-.3.41-3.64-1.68-4.8-2.69C157,184.46,156.22,182.15,158.57,182.41Z" style="fill:#fff"/></g><path d="M153.56,185c.59-.74,1.21-1.17,1.76-.39s-1.07,2.58-3.35,2.42-3.31-1.39-3.42-2.1a4,4,0,0,0,2.77,1.18A3.73,3.73,0,0,0,153.56,185Z" style="fill:#b16668"/><path d="M151.85,186.46a20.54,20.54,0,0,1-.31-6.05,11.14,11.14,0,0,1,2.08-5.55,5.93,5.93,0,0,1,2.26-.86c1.09-.22,2.56.23,2.29.73s-1.77,1.16-3.3,3.37-2.59,6.08-2.14,8.16A.88.88,0,0,1,151.85,186.46Z" style="fill:#37474f"/><path d="M153.69,174.81l.1-.06h0a6.54,6.54,0,0,1,2.08-.74,3,3,0,0,1,2.18.36c.11.14-.08.4-1,.76a6.35,6.35,0,0,1-2.94.36C153.63,175.41,153.38,175.07,153.69,174.81Z" style="fill:#455a64"/><path d="M152.53,182.7c.32-2.66,2.48-5.29,4.08-6.59h0a11.39,11.39,0,0,0-1.74,2c-1.52,2.2-2.59,6.08-2.14,8.16a.88.88,0,0,1-.88.2s-.16-.75-.28-1.86C151.84,185.59,152.23,185.14,152.53,182.7Z" style="opacity:.1"/><path d="M151.43,182a4.82,4.82,0,0,1-6.7-5.27,4.88,4.88,0,0,1,4.49.4A5.8,5.8,0,0,1,151.43,182Z" style="fill:#092853"/><path d="M151.43,182a4.82,4.82,0,0,1-6.7-5.27,4.88,4.88,0,0,1,4.49.4A5.8,5.8,0,0,1,151.43,182Z" style="opacity:.30000000000000004"/><path d="M144.73,176.77a4.88,4.88,0,0,1,4.49.4,5.8,5.8,0,0,1,2.21,4.87C149.37,178.49,144.73,176.77,144.73,176.77Z" style="fill:#092853"/></g><g id="freepik--apple--inject-33"><path d="M128.17,194.5c-2.18-.35-6-.88-9.39,3.42-3.86,4.89-2.69,12.3.77,16.06,4.35,4.74,12.35,6.72,18,3.43,6.28-3.63,8.65-12.6,5.94-17.34s-8.47-4.82-10-4.52C131.14,196,129.87,194.77,128.17,194.5Z" style="fill:#f28f8f"/><path d="M134.86,215.65c-6.26,1.84-13.68-.79-17.53-5.34a11.69,11.69,0,0,0,2.22,3.67c4.35,4.74,12.35,6.72,18,3.43,4.76-2.75,7.27-8.57,7-13.29C144.55,205.42,141.74,213.63,134.86,215.65Z" style="opacity:.1"/><g style="opacity:.2"><path d="M125.51,195.93c-1.36-.43-3.65.37-5.12,2a13.6,13.6,0,0,0-2.84,7.86c-.25,5.06,3.91,8.65,4.46,8.33s-2.18-4.25.76-8.69S127.75,196.62,125.51,195.93Z" style="fill:#fff"/></g><g style="opacity:.2"><path d="M124.27,196.48c-1.53.17-3.66,2.08-4.44,3.59s-.81,2.64-.63,2.88c.32.42,3.81-1.76,5-2.82C125.94,198.63,126.72,196.21,124.27,196.48Z" style="fill:#fff"/></g><path d="M129.51,199.16c-.63-.77-1.27-1.23-1.85-.4s1.13,2.69,3.5,2.52,3.47-1.45,3.58-2.19a4.21,4.21,0,0,1-2.89,1.23A3.83,3.83,0,0,1,129.51,199.16Z" style="fill:#b16668"/><path d="M131.29,200.71a21.4,21.4,0,0,0,.32-6.32,11.57,11.57,0,0,0-2.17-5.8,5.93,5.93,0,0,0-2.36-.9c-1.15-.24-2.68.24-2.4.76s1.85,1.21,3.45,3.52,2.71,6.37,2.24,8.54A.89.89,0,0,0,131.29,200.71Z" style="fill:#37474f"/><path d="M129.37,188.54l-.1-.07h0a6.86,6.86,0,0,0-2.18-.77,3.18,3.18,0,0,0-2.29.37c-.11.15.09.43,1.08.79a6.58,6.58,0,0,0,3.08.38C129.43,189.16,129.69,188.81,129.37,188.54Z" style="fill:#455a64"/><path d="M130.59,196.78c-.34-2.78-2.61-5.52-4.27-6.88h0a12,12,0,0,1,1.81,2.07c1.59,2.31,2.71,6.37,2.24,8.54a.89.89,0,0,0,.92.2s.17-.78.3-1.93C131.3,199.81,130.9,199.34,130.59,196.78Z" style="opacity:.1"/><path d="M131.73,196.1a5,5,0,0,0,7-5.52,5.14,5.14,0,0,0-4.7.42A6.08,6.08,0,0,0,131.73,196.1Z" style="fill:#092853"/><path d="M131.73,196.1a5,5,0,0,0,7-5.52,5.14,5.14,0,0,0-4.7.42A6.08,6.08,0,0,0,131.73,196.1Z" style="opacity:.30000000000000004"/><path d="M138.74,190.58a5.14,5.14,0,0,0-4.7.42,6.08,6.08,0,0,0-2.31,5.1C133.88,192.39,138.74,190.58,138.74,190.58Z" style="fill:#092853"/></g><g id="freepik--apple--inject-33"><path d="M176.79,192.09c2.15-.34,5.92-.87,9.26,3.37,3.81,4.83,2.66,12.13-.76,15.85-4.28,4.67-12.18,6.62-17.79,3.39-6.2-3.58-8.53-12.43-5.85-17.11s8.35-4.76,9.89-4.47C173.87,193.56,175.11,192.36,176.79,192.09Z" style="fill:#f28f8f"/><path d="M170.2,213c6.17,1.81,13.49-.78,17.29-5.27a11.51,11.51,0,0,1-2.2,3.62c-4.28,4.67-12.18,6.62-17.79,3.39a14.89,14.89,0,0,1-6.93-13.12C160.63,202.86,163.4,211,170.2,213Z" style="opacity:.1"/><g style="opacity:.2"><path d="M179.41,193.5c1.35-.42,3.61.36,5.06,2a13.43,13.43,0,0,1,2.8,7.75c.24,5-3.86,8.53-4.4,8.22s2.15-4.19-.75-8.57S177.21,194.19,179.41,193.5Z" style="fill:#fff"/></g><g style="opacity:.2"><path d="M180.64,194.05c1.51.16,3.61,2,4.38,3.53s.8,2.62.62,2.85c-.31.42-3.76-1.74-4.95-2.78C179,196.17,178.22,193.78,180.64,194.05Z" style="fill:#fff"/></g><path d="M175.48,196.69c.61-.76,1.25-1.21,1.82-.4s-1.11,2.66-3.46,2.5-3.42-1.44-3.53-2.17a4.11,4.11,0,0,0,2.86,1.21A3.8,3.8,0,0,0,175.48,196.69Z" style="fill:#b16668"/><path d="M173.72,198.22a20.83,20.83,0,0,1-.32-6.23,11.56,11.56,0,0,1,2.14-5.73,6.23,6.23,0,0,1,2.33-.89c1.13-.23,2.64.24,2.37.75s-1.83,1.2-3.41,3.48-2.67,6.28-2.2,8.42A.9.9,0,0,1,173.72,198.22Z" style="fill:#37474f"/><path d="M175.61,186.21l.1-.07h0a6.88,6.88,0,0,1,2.15-.77,3.14,3.14,0,0,1,2.26.37c.11.15-.09.42-1.07.78a6.37,6.37,0,0,1-3,.38C175.55,186.83,175.3,186.48,175.61,186.21Z" style="fill:#455a64"/><path d="M174.41,194.34c.34-2.74,2.57-5.45,4.21-6.79h0a11.76,11.76,0,0,0-1.79,2c-1.57,2.28-2.67,6.28-2.2,8.42a.9.9,0,0,1-.91.2s-.17-.77-.3-1.91C173.71,197.33,174.1,196.87,174.41,194.34Z" style="opacity:.1"/><path d="M173.28,193.67a5,5,0,0,1-6.91-5.44,5,5,0,0,1,4.63.41A6,6,0,0,1,173.28,193.67Z" style="fill:#092853"/><path d="M173.28,193.67a5,5,0,0,1-6.91-5.44,5,5,0,0,1,4.63.41A6,6,0,0,1,173.28,193.67Z" style="opacity:.30000000000000004"/><path d="M166.37,188.23a5,5,0,0,1,4.63.41,6,6,0,0,1,2.28,5C171.16,190,166.37,188.23,166.37,188.23Z" style="fill:#092853"/></g><g id="freepik--apple--inject-33"><path d="M150.57,202c-2.41-.38-6.62-1-10.35,3.77-4.26,5.4-3,13.57.85,17.72,4.79,5.23,13.61,7.41,19.88,3.79,6.94-4,9.54-13.9,6.55-19.13s-9.33-5.32-11.06-5C153.84,203.68,152.45,202.33,150.57,202Z" style="fill:#f28f8f"/><path d="M150.57,202c-2.41-.38-6.62-1-10.35,3.77-4.26,5.4-3,13.57.85,17.72,4.79,5.23,13.61,7.41,19.88,3.79,6.94-4,9.54-13.9,6.55-19.13s-9.33-5.32-11.06-5C153.84,203.68,152.45,202.33,150.57,202Z" style="fill:#fff;opacity:.2"/><path d="M157.94,225.36c-6.9,2-15.08-.87-19.33-5.88a12.8,12.8,0,0,0,2.46,4c4.79,5.23,13.61,7.41,19.88,3.79,5.26-3,8-9.46,7.75-14.66C168.64,214.07,165.54,223.14,157.94,225.36Z" style="opacity:.1"/><g style="opacity:.2"><path d="M147.64,203.61c-1.51-.47-4,.41-5.66,2.24a15,15,0,0,0-3.13,8.67c-.26,5.58,4.32,9.54,4.92,9.19s-2.4-4.69.84-9.58S150.11,204.37,147.64,203.61Z" style="fill:#fff"/></g><g style="opacity:.2"><path d="M146.26,204.22c-1.67.18-4,2.29-4.89,3.95s-.89,2.92-.69,3.18c.35.47,4.2-1.94,5.54-3.11C148.11,206.59,149,203.92,146.26,204.22Z" style="fill:#fff"/></g><path d="M152,207.18c-.69-.85-1.4-1.36-2-.45s1.25,3,3.87,2.79,3.82-1.6,3.94-2.43a4.59,4.59,0,0,1-3.19,1.36A4.3,4.3,0,0,1,152,207.18Z" style="fill:#b16668"/><path d="M154,208.89a23.9,23.9,0,0,0,.36-7c-.43-3.4-1.92-6-2.4-6.4a6.76,6.76,0,0,0-2.6-1c-1.27-.26-3,.26-2.65.84s2,1.34,3.8,3.89,3,7,2.47,9.42A1,1,0,0,0,154,208.89Z" style="fill:#37474f"/><path d="M151.89,195.46l-.11-.08h0a7.51,7.51,0,0,0-2.4-.86,3.57,3.57,0,0,0-2.53.41c-.12.17.1.47,1.2.88a7.09,7.09,0,0,0,3.39.41C152,196.15,152.24,195.76,151.89,195.46Z" style="fill:#455a64"/><path d="M153.23,204.55c-.37-3.06-2.87-6.09-4.71-7.59h0a12.68,12.68,0,0,1,2,2.29c1.76,2.54,3,7,2.47,9.42a1,1,0,0,0,1,.22s.18-.86.33-2.14C154,207.9,153.58,207.37,153.23,204.55Z" style="opacity:.1"/><path d="M154.49,203.8a6.07,6.07,0,0,0,6-1c2.24-1.91,1.76-5.14,1.76-5.14a5.7,5.7,0,0,0-5.19.46A6.7,6.7,0,0,0,154.49,203.8Z" style="fill:#092853"/><path d="M154.49,203.8a6.07,6.07,0,0,0,6-1c2.24-1.91,1.76-5.14,1.76-5.14a5.7,5.7,0,0,0-5.19.46A6.7,6.7,0,0,0,154.49,203.8Z" style="opacity:.30000000000000004"/><path d="M162.23,197.71a5.7,5.7,0,0,0-5.19.46,6.7,6.7,0,0,0-2.55,5.63C156.87,199.7,162.23,197.71,162.23,197.71Z" style="fill:#092853"/></g><polygon points="148.31 225.48 150.97 227.01 153.62 225.48 150.97 223.95 148.31 225.48" style="fill:#092853"/><polygon points="150.97 227.01 150.97 276.02 148.31 274.49 148.31 225.48 150.97 227.01" style="fill:#092853"/><polygon points="150.97 227.01 150.97 276.02 148.31 274.49 148.31 225.48 150.97 227.01" style="opacity:.25"/><polygon points="150.97 227.01 150.97 276.02 153.62 274.49 153.62 225.48 150.97 227.01" style="fill:#092853"/><polygon points="150.97 227.01 150.97 276.02 153.62 274.49 153.62 225.48 150.97 227.01" style="opacity:.15"/><polygon points="148.31 237.73 150.97 239.26 153.62 237.73 153.62 238.83 150.97 240.36 148.31 238.83 148.31 237.73" style="opacity:.2"/><polygon points="148.31 256.11 150.97 257.64 153.62 256.11 153.62 257.2 150.97 258.74 148.31 257.21 148.31 256.11" style="opacity:.2"/><polygon points="148.31 225.48 150.97 227.01 153.62 225.48 150.97 226.57 148.31 225.48" style="opacity:.2"/><polygon points="214.63 187.19 217.28 188.72 219.94 187.19 217.28 185.66 214.63 187.19" style="fill:#092853"/><polygon points="217.28 188.72 217.28 237.73 214.63 236.2 214.63 187.19 217.28 188.72" style="fill:#092853"/><polygon points="217.28 188.72 217.28 237.73 214.63 236.2 214.63 187.19 217.28 188.72" style="opacity:.25"/><polygon points="217.28 188.72 217.28 237.73 219.94 236.2 219.94 187.19 217.28 188.72" style="fill:#092853"/><polygon points="217.28 188.72 217.28 237.73 219.94 236.2 219.94 187.19 217.28 188.72" style="opacity:.15"/><polygon points="219.94 199.44 217.28 200.97 217.28 202.12 219.94 200.59 219.94 199.44" style="opacity:.2"/><polygon points="219.94 217.82 217.28 219.35 217.28 220.5 219.94 218.97 219.94 217.82" style="opacity:.2"/><polygon points="217.28 185.66 219.94 187.19 217.28 188.72 219.17 187.19 217.28 185.66" style="opacity:.2"/><polygon points="150.97 227.01 219.94 187.19 222.59 188.72 153.62 228.54 150.97 227.01" style="fill:#092853"/><polygon points="153.62 228.54 153.62 237.73 222.59 197.91 222.59 188.72 153.62 228.54" style="fill:#092853"/><polygon points="153.62 228.54 153.62 237.73 222.59 197.91 222.59 188.72 153.62 228.54" style="opacity:.15"/><polygon points="222.19 198.14 222.59 188.72 222.59 197.91 222.19 198.14" style="opacity:.2"/><polygon points="153.62 228.54 150.97 230.07 103.22 202.5 105.87 200.97 153.62 228.54" style="fill:#092853"/><polygon points="153.62 228.54 153.62 237.73 150.97 239.26 150.97 230.07 153.62 228.54" style="fill:#092853"/><polygon points="153.62 228.54 153.62 237.73 150.97 239.26 150.97 230.07 153.62 228.54" style="opacity:.2"/><polygon points="153.62 237.73 153.62 228.54 154.02 237.5 153.62 237.73" style="opacity:.2"/><polygon points="103.22 202.5 103.22 211.69 150.97 239.26 150.97 230.07 103.22 202.5" style="fill:#092853"/><polygon points="103.22 202.5 103.22 211.69 150.97 239.26 150.97 230.07 103.22 202.5" style="opacity:.25"/><polygon points="150.97 245.39 219.94 205.57 222.59 207.1 153.62 246.92 150.97 245.39" style="fill:#092853"/><polygon points="153.62 246.92 153.62 256.11 222.59 216.29 222.59 207.1 153.62 246.92" style="fill:#092853"/><polygon points="153.62 246.92 153.62 256.11 222.59 216.29 222.59 207.1 153.62 246.92" style="opacity:.15"/><polygon points="222.19 216.52 222.59 207.1 222.59 216.29 222.19 216.52" style="opacity:.2"/><polygon points="153.62 246.92 150.97 248.45 103.22 220.88 105.87 219.35 153.62 246.92" style="fill:#092853"/><polygon points="153.62 246.92 153.62 256.11 150.97 257.64 150.97 248.45 153.62 246.92" style="fill:#092853"/><polygon points="153.62 246.92 153.62 256.11 150.97 257.64 150.97 248.45 153.62 246.92" style="opacity:.2"/><polygon points="153.62 256.11 153.62 246.92 154.02 255.88 153.62 256.11" style="opacity:.2"/><polygon points="103.22 220.88 103.22 230.07 150.97 257.64 150.97 248.45 103.22 220.88" style="fill:#092853"/><polygon points="103.22 220.88 103.22 230.07 150.97 257.64 150.97 248.45 103.22 220.88" style="opacity:.25"/><polygon points="150.97 263.77 219.94 223.95 222.59 225.48 153.62 265.3 150.97 263.77" style="fill:#092853"/><polygon points="153.62 265.3 153.62 274.49 222.59 234.67 222.59 225.48 153.62 265.3" style="fill:#092853"/><polygon points="153.62 265.3 153.62 274.49 222.59 234.67 222.59 225.48 153.62 265.3" style="opacity:.15"/><polygon points="222.19 234.9 222.59 225.48 222.59 234.67 222.19 234.9" style="opacity:.2"/><polygon points="153.62 265.3 150.97 266.83 103.22 239.26 105.87 237.73 153.62 265.3" style="fill:#092853"/><polygon points="153.62 265.3 153.62 274.49 150.97 276.02 150.97 266.83 153.62 265.3" style="fill:#092853"/><polygon points="153.62 265.3 153.62 274.49 150.97 276.02 150.97 266.83 153.62 265.3" style="opacity:.2"/><polygon points="153.62 274.49 153.62 265.3 154.02 274.26 153.62 274.49" style="opacity:.2"/><polygon points="103.22 239.26 103.22 248.45 150.97 276.02 150.97 266.83 103.22 239.26" style="fill:#092853"/><polygon points="103.22 239.26 103.22 248.45 150.97 276.02 150.97 266.83 103.22 239.26" style="opacity:.25"/></g><g id="freepik--Hat--inject-33"><path d="M133.5,113c-11.75,4.58-24.33.46-28.09-9.2s2.7-21.2,14.45-25.78,24.33-.47,28.1,9.19S145.25,108.41,133.5,113Z" style="fill:#092853"/><ellipse cx="129.68" cy="109.3" rx="41.69" ry="25.68" transform="translate(-33.17 61.93) rotate(-23.91)" style="fill:#092853"/><ellipse cx="129.68" cy="109.3" rx="41.69" ry="25.68" transform="translate(-33.17 61.93) rotate(-23.91)" style="opacity:.30000000000000004"/></g><g id="freepik--Head--inject-33"><path d="M124.12,105.52c-.37,4-3.93,9-3.93,9l.33,5.6.25,8A9.06,9.06,0,0,1,114.5,123a5.11,5.11,0,0,0-2.09-2.92c-.88-.54-1.86-.91-2.72-1.49a6.77,6.77,0,0,1-2.9-5.27v0c.5-5.9,6.22-11.94,13.68-16.06l1.11-.59c.63.56,1.26,1.14,1.92,1.64a4.51,4.51,0,0,1,.32,1A18.52,18.52,0,0,1,124.12,105.52Z" style="fill:#455a64"/><path d="M153.16,102.71a15,15,0,1,1-27.64-7.91c9-3.58,19.23-4.2,25.85,1h0A15,15,0,0,1,153.16,102.71Z" style="fill:#455a64"/><path d="M113.63,122.33a4.41,4.41,0,0,0,5.07-.89l.64,17.15a13.18,13.18,0,0,0,6,5.77c4.12,1.78,8.79.3,12.93,4.85,3.28-5.05,5.11-7.56.12-11.78l-.18-5.08a31.2,31.2,0,0,0,5.82-.07c3.68-.6,6-3.54,7.06-7.53,1.73-6.43,1.24-16-1.31-28.48-4.15-3.18-17.7-3.58-26.33,2,.47,7.33-1.54,10.6-1.51,13.26a7,7,0,0,1-1.58,2.08c-1.34,1.17-2.46-1.84-3.6-3a4.82,4.82,0,0,0-7.26,2.06C107.71,116.6,111.09,121.36,113.63,122.33Z" style="fill:#ffa8a7"/><path d="M138.25,132.35c-4.4-.18-10.48-1.77-12.34-3.77a26.83,26.83,0,0,1-3.59-5.82s.42,5.34,2.87,7.82,8,4.08,13.16,4.49Z" style="fill:#f28f8f"/><path d="M138.31,149.21c-2.14-1.29-6.84-3.53-9.17-1s-3.58,3.19-5.13,2.74-7.86-5.8-10.11-8.25-1.79-3.57-1.79-3.57a42,42,0,0,1,3.69-4.28c1.61-1.5,2-1.89,3.3-2l.13,2.49s.88,1.93,4.73,4.52S135.51,143.2,138.31,149.21Z" style="fill:#37474f"/><path d="M138.31,149.21c1.27-1.16,4-4.06,6.1-3.48s3,1.84,3,.73-1.8-5.12-3.39-7.46-4.36-4.69-5.75-4.92l.12,3.35s2.48,3.23,2.2,5.11S138.56,147.39,138.31,149.21Z" style="fill:#37474f"/><path d="M150.85,95.39a4.16,4.16,0,0,1-.94,1.47,12.25,12.25,0,0,1-1.4,2.2,4.92,4.92,0,0,1-2.86.78c-1.32.15-1.94,1-3.08,1.42a6.64,6.64,0,0,1-4.5-.16c-1.42-.51-2.93-1.65-2.79-3.16a5.11,5.11,0,0,1-4.85,2.27,4.69,4.69,0,0,1-3.73-2.44,3.73,3.73,0,0,1-2.88,1.43,3.14,3.14,0,0,1-1-.12,3.76,3.76,0,0,1-2.3-1.89l1.11-.59C131.15,91.66,143.2,89.9,150.85,95.39Z" style="fill:#455a64"/><path d="M135.13,110.88a1.65,1.65,0,1,1-1.67-1.7A1.68,1.68,0,0,1,135.13,110.88Z" style="fill:#263238"/><path d="M132.89,105.2l-3.51,2a2.12,2.12,0,0,1,.8-2.82A2,2,0,0,1,132.89,105.2Z" style="fill:#263238"/><path d="M148.9,105.89l-3.8-1.43a2,2,0,0,1,2.55-1.23A2.14,2.14,0,0,1,148.9,105.89Z" style="fill:#263238"/><path d="M147.85,110a1.66,1.66,0,0,1-1.63,1.72,1.71,1.71,0,1,1,1.63-1.72Z" style="fill:#263238"/><polygon points="139.17 107.16 140.26 117.67 145.76 115.59 139.17 107.16" style="fill:#f28f8f"/><path d="M135.06,120.76l7,1.5a3.53,3.53,0,0,1-4.2,2.88A3.75,3.75,0,0,1,135.06,120.76Z" style="fill:#b16668"/><path d="M135.91,121.9a3.69,3.69,0,0,0-.88,0,3.71,3.71,0,0,0,2.86,3.22,3.2,3.2,0,0,0,1.15,0A3.29,3.29,0,0,0,135.91,121.9Z" style="fill:#f28f8f"/></g><g id="freepik--arm--inject-33"><path d="M127,223.13c-1.19-.52-2.44-.91-3.63-1.44a26.89,26.89,0,0,1-2.91-1.53c-.18-.12-.79-.68-1-.67a19.72,19.72,0,0,0,4.65-.51,2.81,2.81,0,0,0,2.23-3.1c-.14-.6-1.59-.14-4-.63-3.1-.64-5.12-1.5-8.54-1.33a5.22,5.22,0,0,1-3.53-1.12c-5.59-4.52-18.64-17.41-18.64-17.41l-16.07,5.69c.78,4.18.34,4.07,8.09,9.32,5.7,3.87,8.23,4.53,15.42,10,3.48,2.65,7,6.05,9.83,8.1a43.22,43.22,0,0,0,7.39,4.56c2.28,1.06,4.46,2,6.82.64a15.83,15.83,0,0,1,3.26-1.7c1.09-.29,2.43-.29,3-1.23.3-.45.35-1,.66-1.47.46-.64,1.34-.78,2.08-1.05s1.53-.95,1.3-1.71c-.15-.49-.67-.76-1.14-1l-4.83-2.23A4.69,4.69,0,0,0,127,223.13Z" style="fill:#ffa8a7"/><path d="M103.79,142.75a23.5,23.5,0,0,0-10,3.76c-3.67,2.55-6,8-10.56,19.6-6.49,16.58-9.24,26.85-8.82,33,0,0,5.59-5.89,17.27-1L106.3,172.6S112.34,159.39,103.79,142.75Z" style="fill:#37474f"/><path d="M95,198.68s.71-.78-.44-2.23c-1-1.23.48-2.87-.37-3.32a14.78,14.78,0,0,0-10.23-2.72c-5.07.47-8.94,2.63-9.44,3.42s-1.19,9.83,2.35,12.26a1.66,1.66,0,0,0,1.28.37l-.72-.65s1.56-3,7.18-5.34c6.48-2.73,9.73-2.43,9.73-2.43Z" style="fill:#263238"/></g></g></g></svg>