<svg viewBox="0 0 60.04 68.56" xmlns="http://www.w3.org/2000/svg"><rect fill="#fff" height="47.06" rx="2.55" width="12.73" x="46.78" y="12.99"/><path d="m52.75 31.38v-18.9h-37v47.3h37z" fill="#c9d2df" opacity=".45"/><path d="m35.34 44.3h21.02v1.64h-21.02z" fill="#c9d2df"/><path d="m35.34 48.04h21.02v1.64h-21.02z" fill="#c9d2df"/><path d="m35.34 51.77h21.02v1.64h-21.02z" fill="#c9d2df"/><path d="m35.34 30.48h21.02v1.64h-21.02z" fill="#c9d2df"/><path d="m35.34 34.21h21.02v1.64h-21.02z" fill="#c9d2df"/><path d="m35.34 37.93h21.02v1.64h-21.02z" fill="#c9d2df"/><path d="m35.34 16.2h21.02v1.64h-21.02z" fill="#c9d2df"/><path d="m35.34 16.09h21.02v9.22h-21.02z" fill="#c9d2df"/><path d="m58.55 60.13a.35.35 0 0 1 -.35-.35.35.35 0 0 1 .35-.35.62.62 0 0 0 .62-.62v-22.88a.35.35 0 0 1 .29-.4.34.34 0 0 1 .4.28.24.24 0 0 1 0 .12v22.88a1.32 1.32 0 0 1 -1.31 1.32z" fill="#3e3126"/><path d="m56.18 60.13h-4.41a.35.35 0 0 1 -.35-.35.35.35 0 0 1 .35-.35h4.41a.35.35 0 1 1 0 .7z" fill="#3e3126"/><path d="m47.06 60.13h-23.58a1.32 1.32 0 0 1 -1.32-1.32v-44.31a2.38 2.38 0 0 1 2.38-2.37h33a2.36 2.36 0 0 1 2.31 2.37v16.92a.35.35 0 0 1 -.29.4.34.34 0 0 1 -.4-.28.24.24 0 0 1 0-.12v-16.92a1.69 1.69 0 0 0 -1.68-1.67h-32.94a1.68 1.68 0 0 0 -1.69 1.67v44.31a.62.62 0 0 0 .62.62h23.59a.35.35 0 0 1 .35.35.35.35 0 0 1 -.35.35z" fill="#3e3126"/><path d="m.36 7.06h49.34v55.71h-49.34z" fill="#fff"/><path d="m49.69 23.26v38.37a1.46 1.46 0 0 1 -1.46 1.46h-43.56c26.12-7.58 39.42-28.2 45.02-39.83z" fill="#c9d2df" opacity=".2"/><path d="m.6 24.4h49.09v.21h-49.09z" fill="#c9d2df" opacity=".5"/><path d="m.6 39.27h49.09v.21h-49.09z" fill="#c9d2df" opacity=".5"/><path d="m.6 55.17h49.09v.21h-49.09z" fill="#c9d2df" opacity=".5"/><path d="m1.34 1.93h47.6a.74.74 0 0 1 .74.74v4.08h-49.08v-4.08a.74.74 0 0 1 .74-.74z" fill="#c3c6e3"/><circle cx="5.01" cy="3.77" fill="#57a8b2" r=".89"/><circle cx="7.72" cy="3.77" fill="#57a8b2" r=".89"/><circle cx="10.43" cy="3.77" fill="#57a8b2" r=".89"/><path d="m49.69 8h-49.09a.38.38 0 0 1 -.39-.4.38.38 0 0 1 .38-.38h49.1a.38.38 0 0 1 .38.38.4.4 0 0 1 -.38.4z" fill="#c9d2df" opacity=".2"/><circle cx="5.01" cy="3.77" fill="#8f98d8" r=".89"/><circle cx="7.72" cy="3.77" fill="#8f98d8" r=".89"/><circle cx="10.43" cy="3.77" fill="#8f98d8" r=".89"/><path d="m5 4.84a1.07 1.07 0 1 1 1.07-1.08 1.05 1.05 0 0 1 -1.07 1.08zm0-1.78a.72.72 0 1 0 .71.73.71.71 0 0 0 -.71-.73z" fill="#3e3126"/><path d="m7.72 4.84a1.07 1.07 0 1 1 1.06-1.08 1.05 1.05 0 0 1 -1 1.07zm0-1.78a.72.72 0 0 0 0 1.43.72.72 0 0 0 0-1.43z" fill="#3e3126"/><path d="m10.43 4.84a1.07 1.07 0 1 1 1.06-1.08 1.07 1.07 0 0 1 -1.06 1.08zm0-1.78a.72.72 0 1 0 .71.73.71.71 0 0 0 -.71-.73z" fill="#3e3126"/><path d="m28.21 17.42h4.54v.82h-4.54z" fill="#c9d2df"/><path d="m28.36 32.12h4.54v.82h-4.54z" fill="#c9d2df"/><path d="m28.36 46.89h4.54v.82h-4.54z" fill="#c9d2df"/><rect fill="#c9d2df" height="1.64" rx=".29" width="21.02" x="4.89" y="27.57"/><rect fill="#c9d2df" height="1.64" rx=".29" width="21.02" x="4.89" y="31.3"/><rect fill="#c9d2df" height="1.64" rx=".29" width="21.02" x="4.89" y="35.03"/><rect fill="#c9d2df" height="1.64" rx=".29" width="21.02" x="4.89" y="11.51"/><rect fill="#c9d2df" height="1.64" rx=".29" width="21.02" x="4.89" y="15.24"/><rect fill="#c9d2df" height="1.64" rx=".29" width="21.02" x="4.89" y="18.98"/><rect fill="#c9d2df" height="1.64" rx=".29" width="21.02" x="4.89" y="42.27"/><rect fill="#c9d2df" height="1.64" rx=".29" width="21.02" x="4.89" y="46.01"/><rect fill="#c9d2df" height="1.64" rx=".29" width="21.02" x="4.89" y="49.74"/><g fill="#ff9c01"><path d="m29.42 12.67.33.67.73.11-.53.51.13.74-.66-.35-.66.35.13-.74-.53-.51.73-.11z"/><path d="m32.16 12.67.33.67.74.11-.54.51.13.74-.66-.35-.66.35.13-.74-.53-.51.73-.11z"/><path d="m34.9 12.67.33.67.73.11-.53.51.13.74-.66-.35-.66.35.13-.74-.53-.51.73-.11z"/><path d="m37.64 12.67.33.67.73.11-.53.51.13.74-.66-.35-.66.35.13-.74-.53-.51.73-.11z"/><path d="m40.38 12.67.33.67.73.11-.53.51.13.74-.66-.35-.66.35.13-.74-.53-.51.73-.11z"/><path d="m29.42 27.38.33.67.73.1-.53.52.13.73-.66-.34-.66.34.13-.73-.53-.52.73-.1z"/><path d="m32.16 27.38.33.67.74.1-.54.52.13.73-.66-.34-.66.34.13-.73-.53-.52.73-.1z"/><path d="m34.9 27.38.33.67.73.1-.53.52.13.73-.66-.34-.66.34.13-.73-.53-.52.73-.1z"/><path d="m37.64 27.38.33.67.73.1-.53.52.13.73-.66-.34-.66.34.13-.73-.53-.52.73-.1z"/><path d="m40.38 27.38.33.67.73.1-.53.52.13.73-.66-.34-.66.34.13-.73-.53-.52.73-.1z"/><path d="m29.42 42.08.33.67.73.11-.53.52.13.73-.66-.35-.66.35.13-.73-.53-.52.73-.11z"/><path d="m32.16 42.08.33.67.74.11-.54.52.13.73-.66-.35-.66.35.13-.73-.53-.52.73-.11z"/><path d="m34.9 42.08.33.67.73.11-.53.52.13.73-.66-.35-.66.35.13-.73-.53-.52.73-.11z"/><path d="m37.64 42.08.33.67.73.11-.53.52.13.73-.66-.35-.66.35.13-.73-.53-.52.73-.11z"/><path d="m40.38 42.08.33.67.73.11-.53.52.13.73-.66-.35-.66.35.13-.73-.53-.52.73-.11z"/></g><rect fill="#fff" height="1.61" opacity=".45" rx=".8" width="6.33" x="17.65" y="1.13"/><ellipse cx="22.97" cy="3.86" fill="#fff" opacity=".45" rx="1.01" ry=".67"/><circle cx="59.51" cy="33.7" fill="#3e3126" r=".53"/><path d="m.36 5.98h49.33v.77h-49.33z" fill="#8f98d8"/><path d="m49.69 7.25h-49.09a.35.35 0 0 1 0-.7h49.09a.35.35 0 1 1 0 .7z" fill="#3e3126"/><path d="m.6 46a.53.53 0 0 1 -.53-.53v-16a.53.53 0 0 1 .68-.32.51.51 0 0 1 .32.32v16a.52.52 0 0 1 -.47.53z" fill="#3e3126"/><path d="m18.6 63.87h-16.75a1.85 1.85 0 0 1 -1.85-1.87v-12.77a.57.57 0 0 1 .64-.49.56.56 0 0 1 .49.49v12.77a.72.72 0 0 0 .72.72h16.75a.56.56 0 0 1 0 1.12z" fill="#3e3126"/><path d="m48.41 63.77h-14.56a.47.47 0 0 1 -.46-.46.45.45 0 0 1 .44-.46h14.58a.47.47 0 0 1 .46.46.48.48 0 0 1 -.46.46z" fill="#3e3126"/><path d="m49.69 57.76a.53.53 0 0 1 -.53-.53v-54a2.16 2.16 0 0 0 -2.16-2.16h-9.91a.53.53 0 0 1 -.68-.32.54.54 0 0 1 .33-.68.53.53 0 0 1 .35 0h9.91a3.23 3.23 0 0 1 3.22 3.21v54a.54.54 0 0 1 -.53.48z" fill="#3e3126"/><path d="m.6 25a.53.53 0 0 1 -.53-.53v-21.23a3.21 3.21 0 0 1 3.21-3.24h29.11a.53.53 0 0 1 .68.32.54.54 0 0 1 -.33.68.53.53 0 0 1 -.35 0h-29.11a2.16 2.16 0 0 0 -2.16 2.19v21.26a.53.53 0 0 1 -.46.55z" fill="#3e3126"/><circle cx="14.7" cy="59.15" fill="#c9d2df" opacity=".2" r="1.42"/><circle cx="16.69" cy="56.62" fill="#c9d2df" opacity=".2" r=".57"/><circle cx="10.74" cy="59.15" fill="#c9d2df" opacity=".2" r=".57"/><path d="m27.51 68.18a5.61 5.61 0 0 0 5.49-4.35h7.19v3.09h2.63v-3.09h1.7v3.09h2.63v-3.09h2.85a1.26 1.26 0 1 0 .22-2.51h-17.22a5.61 5.61 0 1 0 -5.46 6.86zm0-8.13a2.53 2.53 0 1 1 -2.51 2.52 2.53 2.53 0 0 1 2.54-2.52z" fill="#ffb320"/><path d="m30.03 62.35h21.19v.63h-21.19z" fill="#ffe56b"/><path d="m21.87 62.35h3.12v.63h-3.12z" fill="#ffe56b"/><path d="m30.03 62.03h21.19v.63h-21.19z" fill="#ffe56b"/><path d="m21.87 62.03h3.12v.63h-3.12z" fill="#ffe56b"/><path d="m30.03 64.72h2.65l-.31.63h-2.34z" fill="#ffe56b"/><path d="m22.33 64.72h2.66v.63h-2.49z" fill="#ffe56b"/><path d="m22.14 61.05a5.6 5.6 0 0 1 10.71-.56 7.84 7.84 0 0 0 -5.07-1.71 7.6 7.6 0 0 0 -5.64 2.27z" fill="#f27c00"/><path d="m46.75 66.07a.24.24 0 0 1 -.24-.24v-2.34a.23.23 0 0 1 .22-.24h2.6a.24.24 0 0 1 .24.24.24.24 0 0 1 -.24.24h-2.33v2.1a.24.24 0 0 1 -.25.24z" fill="#fff"/><path d="m46.08 66.83h-1.23a.26.26 0 0 1 -.24-.25v-2.85h-1.56a.24.24 0 0 1 -.24-.24.24.24 0 0 1 .24-.24h1.8a.23.23 0 0 1 .24.22v2.87h1a.25.25 0 0 1 0 .49z" fill="#fff"/><path d="m41.76 66.83h-1.22a.26.26 0 0 1 -.24-.25v-2.85h-1.57a.24.24 0 0 1 -.24-.24.24.24 0 0 1 .24-.24h1.81a.24.24 0 0 1 .25.23v2.85h1a.25.25 0 0 1 0 .49z" fill="#fff"/><path d="m27.51 68.56a6 6 0 0 1 -6-6v-.21a6 6 0 0 1 11.73-1.41h16.76a1.64 1.64 0 0 1 .26 3.27 1.13 1.13 0 0 1 -.26 0h-2.51v2.31a.76.76 0 0 1 -.77.77h-1.87a.76.76 0 0 1 -.77-.75v-2.33h-1v2.21a.83.83 0 0 1 -.83.83h-1.64a.83.83 0 0 1 -.83-.83v-2.25h-3.19a.38.38 0 0 1 0-.75h3.57a.38.38 0 0 1 .37.37v2.63a.09.09 0 0 0 .08.08h1.72s.07 0 .08-.06v-2.65a.38.38 0 0 1 .38-.37h1.7a.38.38 0 0 1 .38.37v2.69h1.85v-2.71a.39.39 0 0 1 .37-.37h2.91a.88.88 0 0 0 .63-.26.93.93 0 0 0 .25-.63.87.87 0 0 0 -.88-.88h-17a.38.38 0 0 1 -.37-.29 5.24 5.24 0 0 0 -5.21-4.06 5.22 5.22 0 0 0 -.07 10.44h.19a5.2 5.2 0 0 0 2.26-.52.39.39 0 0 1 .51.17.38.38 0 0 1 -.17.5 5.85 5.85 0 0 1 -2.63.69zm4.62-2.45a.39.39 0 0 1 -.21-.06.38.38 0 0 1 -.1-.52 5.07 5.07 0 0 0 .78-1.78.38.38 0 0 1 .37-.29h2.19a.39.39 0 0 1 .44.31.39.39 0 0 1 -.32.44.24.24 0 0 1 -.12 0h-1.9a5.91 5.91 0 0 1 -.82 1.79.38.38 0 0 1 -.31.11zm-4.62-.63a2.91 2.91 0 1 1 2.9-2.92 2.92 2.92 0 0 1 -2.9 2.92zm0-5.06a2.16 2.16 0 1 0 2.15 2.17 2.17 2.17 0 0 0 -2.15-2.17z" fill="#3e3126"/><circle cx="31.18" cy="66.86" fill="#3e3126" r=".42"/><circle cx=".6" cy="26.95" fill="#3e3126" r=".49"/><circle cx="34.74" cy=".56" fill="#3e3126" r=".49"/><path d="m43.7 17.42h-.11a.29.29 0 0 1 -.16-.38l1.57-3.77a.31.31 0 0 1 .39-.15.29.29 0 0 1 .15.38l-1.54 3.76a.3.3 0 0 1 -.3.16z" fill="#3e3126"/><path d="m45.85 15.57h-.12a.29.29 0 0 1 -.16-.38l.85-2a.29.29 0 0 1 .36-.16.29.29 0 0 1 .16.38l-.85 2a.3.3 0 0 1 -.24.16z" fill="#3e3126"/></svg>