<svg viewBox="0 0 1286.04 795.78" xmlns="http://www.w3.org/2000/svg" xmlns:xlink="http://www.w3.org/1999/xlink"><linearGradient id="a" gradientUnits="userSpaceOnUse" x1="1.32" x2="1254.6" y1="424.03" y2="424.03"><stop offset="0" stop-color="#c5e9fa"/><stop offset="1" stop-color="#c4f4ea"/></linearGradient><path d="m1218.18 502.3c-45.45 117.7-130.9 220.78-249.59 266.09a431.14 431.14 0 0 1 -47.21 14.95c-84.68 21.59-177.32 14.08-255.38-25.26-33.13-16.71-63.34-38.79-96.59-55.26s-71.22-27.25-107.41-19.12c-31.16 7-57.45 27.06-83.92 44.93-62.4 42.13-137.43 75.47-211.32 61-34-6.65-67.48-25.07-83.27-55.86-34.9-68.07 30.92-149 17.59-224.28-8.53-48.18-47.49-84.26-71.71-126.78-41.45-72.71-36.55-169.34 12.05-237.49s138.32-104.3 220.58-88.84c100.3 18.85 176.15 103.75 273.69 133.78 61 18.77 127.23 13.17 185.49-11.55 94.13-39.95 223.45-101.22 329.38-91.24 56.33 5.31 111.58 30.31 148.76 73 47 53.89 61.09 130.4 53.25 201.46a563.35 563.35 0 0 1 -34.39 140.47z" fill="url(#a)"/><path d="m1248.42 595.38a26.3 26.3 0 0 1 -6.2-.75 25.94 25.94 0 1 1 6.2.75zm0-40.18a14.09 14.09 0 0 0 -3.32 27.77 14.08 14.08 0 1 0 3.32-27.77z" fill="#e7f6ff"/><circle cx="1213.76" cy="620.24" fill="#e7f6ff" r="11.33" transform="matrix(.235651 -.97183775 .97183775 .235651 324.94 1653.64)"/><path d="m55.19 592.91a26.09 26.09 0 1 1 1.14 0zm0-40.17h-.59a14.09 14.09 0 1 0 .61 0z" fill="#e7f6ff"/><circle cx="36.08" cy="625.38" fill="#e7f6ff" r="11.33" transform="matrix(.99907092 -.04309628 .04309628 .99907092 -26.9 2.13)"/><path d="m709.08 171.11a26.06 26.06 0 1 1 14.92-4.72 26.07 26.07 0 0 1 -14.92 4.72zm-.08-40.17a14.14 14.14 0 1 0 2.47.22 14.17 14.17 0 0 0 -2.47-.22z" fill="#e7f6ff"/><circle cx="649.4" cy="160.43" fill="#e7f6ff" r="11.33" transform="matrix(.81875141 -.57414817 .57414817 .81875141 25.58 401.9)"/><path d="m713.36 157.98h44.48v44.48h-44.48z" fill="none"/><path d="m713.36 157.98h44.48v44.48h-44.48z" fill="none"/><path d="m1286 305.5a41.46 41.46 0 0 0 -41.41-41.5c-.92 0-1.83 0-2.73.09.06-.9.09-1.81.09-2.73a41.46 41.46 0 1 0 -81.56 10.54 41.46 41.46 0 1 0 -32.61 74.19 41.46 41.46 0 0 0 68.84 13.94 41.46 41.46 0 0 0 62.66-15.8 41.47 41.47 0 0 0 26.72-38.73z" fill="#fff"/><path d="m191.45 205.8a41.46 41.46 0 0 0 -41.45-41.46c-.92 0-1.83 0-2.73.09.06-.9.09-1.81.09-2.73a41.46 41.46 0 1 0 -81.56 10.54 41.46 41.46 0 1 0 -32.61 74.19 41.46 41.46 0 0 0 68.81 13.94 41.46 41.46 0 0 0 62.66-15.8 41.47 41.47 0 0 0 26.79-38.77z" fill="#fff"/><path d="m918.2 555.86h-293.74l-289.48 91.64v2.02h-295.87v97.91h295.87v-2.02l289.48-91.64h293.74v-.67l293.74-92.98v-97.91l-293.74 92.98z" fill="#a8a8a8" opacity=".04"/><path d="m154.73 172.94h252.53v577.72h-252.53z" fill="#fff"/><path d="m1150.46 586.46-252.52 79.93v-577.72l252.52-79.93z" fill="#e5e5e5"/><path d="m647.23 88.67h252.53v577.72h-252.53z" fill="#fff"/><path d="m649.05 666.39-252.53 79.94v-577.72l252.53-79.94z" fill="#e5e5e5"/><path d="m322.03 388.43h56.32v316.11h-56.32z" fill="#e8edf7"/><path d="m707.53 319.4h-36.68v301.58h120.08z" fill="#c0cee2"/><path d="m720.3 319.4 83.4 301.58h72.44v-301.58z" fill="#c0cee2"/><path d="m1114.63 60.97-185.81 56.9v27.12 60.22 5.19z" fill="#c0cee2"/><path d="m928.82 227.66v4.32 64.57l196.21-60.53v-91.03-75.12z" fill="#e8837e"/><path d="m1125.03 466.35v-18.62-151.39-26.77-20.24l-196.21 60.52v7.53z" fill="#c0cee2"/><path d="m431.04 610.08v87.2.4l43.58-14.15.07-.4 27.25-8.83-.06.38 125.37-40.71v-.28-79.26-26.77-113.79z" fill="#c0cee2"/><path d="m626.85 397.1.4.4v-21.22-26.77-24.44l-196.21 60.53v77.7 26.77 102.84z" fill="#c0cee2"/><path d="m1046.94 421.74-118.12-89.68v51.31 26.76 48.05z" fill="#e8837e"/><path d="m309.32 586.09v-197.66h-136.26v239.69z" fill="#e8837e"/><path d="m173.06 641.43v63.11h136.26v-105.15z" fill="#e8edf7"/><g fill="#fff"><path d="m1121.4 117.74h9.08v10.9h-9.08z"/><path d="m1130.48 215.84h-9.08v-21.84h9.08zm0-43.6h-9.08v-21.8h9.08z"/><path d="m1120.95 261.07-6.12-6.71 6.57-6v-8.9h9.08v12.91z"/><path d="m879.77 393.88h-21.77v-9.08h21.8zm-41.78 0h-21.8v-9.08h21.81zm-43.6 0h-21.8v-9.08h21.8zm108.65-2-2.11-8.84 21.07-5.04 2.11 8.84zm42.18-10.08-2.12-8.8 21.09-5 2.11 8.84zm42.18-10.08-2.11-8.84 13.1-3.13 4.34-4 6.12 6.71-6.07 5.54zm37.46-23.84-6.12-6.71 16-14.62 6.12 6.71zm32-29.25-6.12-6.71 16-14.62 6.12 6.71zm32-29.24-6.12-6.71 16-14.62 6.12 6.71z"/><path d="m738.86 401.11-8.05-4.21 6.32-12.1h13.65v9.08h-8.15z"/><path d="m704.69 464.68-8.05-4.2 8.42-16.12 8.05 4.2zm16.84-32.24-8.05-4.2 8.42-16.12 8.05 4.2z"/><path d="m687.26 498.05-9.23-17.14 8-4.31 1.11 2.06 1.08-2.07 8.05 4.2z"/><path d="m663.58 443.15h9.08v19.56h-9.08z" transform="matrix(.88047735 -.47408821 .47408821 .88047735 -134.87 370.87)"/><path d="m650.22 429.25-3.44-6.37-6.96 1.99-2.5-8.73 13.99-4.01 6.9 12.82z"/><path d="m402.49 493.8h-4.16v-9.08h2.88l16-4.59 2.5 8.73zm-26 0h-20v-9.08h20zm-41.78 0h-20v-9.08h20zm-40 0h-20v-9.08h20zm-41.78 0h-19.93v-9.08h20zm186.84-11.58-2.51-8.73 20-5.74 2.51 8.73zm40-11.47-2.5-8.73 20-5.73 2.5 8.73zm40-11.47-2.5-8.73 20-5.73 2.5 8.73zm40-11.47-2.5-8.73 20-5.73 2.5 8.73zm40-11.47-2.5-8.73 20-5.73 2.5 8.73z"/><path d="m203.95 499.25h-9.09v-16.35h16.35v9.09h-7.26z"/><path d="m196.68 526.51h9.08v27.25h-9.08z"/><path d="m196.68 582.82h9.08v10.9h-9.08z"/></g><path d="m247.55 212.21h130.8v163.51h-130.8z" fill="#e8edf7"/><path d="m173.06 212.21h61.77v163.51h-61.77z" fill="#e8837e"/><path d="m1059.4 431.2-87.13 26.88 59.17 126.34 93.59-30.39v-.27-72.73z" fill="#e8837e"/><path d="m1019.25 588.38-59.25-126.51-31.18 9.62v145.85.41l43.58-14.15.07-.4 27.25-8.83-.06.37z" fill="#c0cee2"/><path d="m155.14 751.49-12-.04.3-87.24v-500.13h252.15l250.66-79.35 33.3-.59h217.46l259.45-82.13v134.14h-12v-117.75l-245.59 77.74h-219.26l-31.4.56-250.76 79.38h-242.01v488.15z" fill="#426572"/><path d="m402.32 753.8h-252.88v-12h252.18l1.27-.15 245.2-79.79h251.28l3.47-.45 241.62-77.85v-300.42h12v309.16l-250.98 80.87-5.34.69h-250.14l-244.54 79.57z" fill="#426572"/><path d="m1144.46 234.15h12v22.5h-12z" fill="#426572"/><path d="m1144.46 158.98h12v60.66h-12z" fill="#426572"/><path d="m668 23.56c-150.32-.32-244 94.27-244.28 243.23-.1 46 24.12 117.86 65.92 204.62 18.88 36.61 41.8 77.28 66.11 118 29.68 50.16 62.06 100.34 94.48 146.44l16.2 21.72c5.43-6.78 10.86-13.53 16.29-21.65 32.61-47.32 65.21-96 95.11-146 24.48-40.58 46.23-81.15 65.26-117.69 43.53-86.57 68.05-158.3 68.15-204.33.31-144.96-96.98-244.02-243.24-244.34zm-.85 392.7c-89.38-.19-162.35-73.46-162.15-162.85s73.48-162.34 162.86-162.15 162.35 73.48 162.14 162.85-73.46 162.35-162.84 162.16z" fill="#8da3b2" opacity=".2"/><path d="m792.69 234.3c-.19 89.41-73.48 162.36-162.86 162.16-77.41-.17-142.52-55.15-158.42-128a161.51 161.51 0 0 1 -2.41-28.3c.17-89.36 73.46-162.34 162.83-162.16 77.29.17 142.32 55 158.37 127.63a.37.37 0 0 0 0 .12 161.39 161.39 0 0 1 2.49 28.55z" fill="#fff"/><path d="m632.3 5.8c-150.3-.33-243.96 94.27-244.3 243.2-.1 46 24.12 117.86 65.92 204.62 18.88 36.61 41.8 77.28 66.11 118 29.68 50.16 62.06 100.34 94.48 146.44l16.2 21.72c5.43-6.78 10.86-13.53 16.29-21.65 32.61-47.32 65.21-96 95.11-146 24.48-40.58 46.23-81.15 65.26-117.69 43.53-86.57 68.05-158.3 68.15-204.33.32-144.93-96.96-244-243.22-244.31zm-.85 392.7c-89.37-.19-162.34-73.5-162.15-162.85s73.48-162.35 162.85-162.16 162.35 73.51 162.16 162.86-73.48 162.35-162.86 162.15z" fill="#e8837e"/><path d="m798 476c-16.72 31.69-35.36 65.8-55.94 99.91-29.88 50-62.49 98.71-95.1 146-5.43 8.12-10.86 14.87-16.3 21.65l-16.2-21.72c-32.4-46.1-64.8-96.28-94.47-146.43-24.31-40.7-47.23-81.37-66.11-118-41.8-86.76-66-158.59-65.92-204.62.13-61.47 16.16-113.67 45.5-153.78-11.62 30.25-17.77 64.71-17.86 102.7-.1 46 24.12 117.87 65.92 204.62 18.88 36.61 41.8 77.28 66.11 118 29.67 50.15 62.06 100.33 94.47 146.43l16.2 21.72c5.44-6.78 10.87-13.53 16.3-21.65 32.6-47.31 65.21-96 95.1-146 9.89-16.35 19.3-32.72 28.3-48.83z" fill="#d66765"/><path d="m630.48 752.42-21.73-29.13c-32.43-46.13-65.2-96.93-94.77-146.91-25.35-42.38-48.28-83.38-66.31-118.32l-.08-.17c-44.3-91.94-66.71-161.81-66.61-207.67.16-75.14 23.66-138.26 67.94-182.54s107.42-67.68 182.57-67.68h.78c73.51.16 136.28 24.36 181.53 70a227.57 227.57 0 0 1 50.91 79.53c11.87 31 17.85 65.24 17.77 101.77-.1 46.27-23.92 118-68.9 207.46v.09c-16.94 32.52-39.69 75.32-65.47 118.07-31.94 53.46-66.12 104-95.34 146.39-5.48 8.18-11 15.1-16.39 21.79zm-10.33-37.26 10.71 14.36c3.47-4.43 6.87-9 10.3-14.07 29.14-42.28 63.16-92.59 94.91-145.73 25.58-42.41 48.19-84.95 65-117.28 44-87.5 67.29-157.06 67.39-201.16.15-69.36-22.2-128.64-64.62-171.42-42.55-42.94-101.9-65.71-171.6-65.86h-.75c-71.36 0-131.06 22-172.68 63.58s-63.68 101.31-63.81 172.67c-.09 43.1 22.45 112.77 65.18 201.48 17.89 34.7 40.66 75.33 65.85 117.5 29.36 49.66 61.91 100.11 94.12 145.93zm11.62-308.45h-.37a169.31 169.31 0 0 1 -119.1-289.49 168.3 168.3 0 0 1 119.45-49.52h.37a169.31 169.31 0 0 1 119.1 289.48 168.3 168.3 0 0 1 -119.45 49.53zm0-325a155.51 155.51 0 0 0 -.33 311h.34a155.51 155.51 0 0 0 .33-311z" fill="#426572"/><path d="m954.18 795.78h-596.5v-13h596.5a6.5 6.5 0 0 1 0 13z" fill="#426572"/><path d="m331 795.78h-36.47a6.5 6.5 0 0 1 0-13h36.47a6.5 6.5 0 1 1 0 13z" fill="#426572"/><path d="m270.86 795.78h-11.62a6.5 6.5 0 0 1 0-13h11.62a6.5 6.5 0 0 1 0 13z" fill="#426572"/><path d="m1163.34 795.78h-183.34v-13h183.34a6.5 6.5 0 0 1 0 13z" fill="#426572"/><path d="m226 795.78h-183.35v-13h183.35a6.5 6.5 0 1 1 0 13z" fill="#426572"/><path d="m767.08 87.74c34.92 32.41 59.08 74.26 68.73 121.05a259.15 259.15 0 0 1 5.06 52.21c0 7.72 12 7.73 12 0-.06-56.28-17.08-110.73-52.31-154.92a245.8 245.8 0 0 0 -25-26.85c-5.65-5.25-14.16 3.22-8.49 8.49z" fill="#fff"/><path d="m704.25 45.76.7.29c-1.92-.77 1 .45 1.44.65 2.93 1.33 5.81 2.76 8.66 4.24a247 247 0 0 1 28.36 17.5c6.31 4.47 12.32-5.93 6.06-10.36-13.07-9.26-27.07-18-42-23.89-7.18-2.84-10.3 8.76-3.19 11.57z" fill="#fff"/></svg>