<svg viewBox="0 0 38.4 65.42" xmlns="http://www.w3.org/2000/svg"><path d="m11.37 52.51v2a1.77 1.77 0 0 0 1.09 1.64c.19.08.41.17.65.25l.13.29v1.55a1.34 1.34 0 0 0 .83 1.26l.43.16v.34a4.88 4.88 0 0 0 9.76 0l.17-.43.28-.11a1.36 1.36 0 0 0 .84-1.26v-1.72c.3-.11.59-.22.82-.32a1.74 1.74 0 0 0 1.09-1.64v-2z" fill="#d9e1e4"/><path d="m19.41 61.93a14 14 0 0 1 -4.66-.79.48.48 0 0 1 .35-.9 12.53 12.53 0 0 0 8.2 0 .49.49 0 0 1 .37.9 11.3 11.3 0 0 1 -4.26.79z" fill="#94b5bf"/><path d="m19.56 55.31a24.63 24.63 0 0 1 -8.16-1.39.47.47 0 0 1 -.27-.62.48.48 0 0 1 .6-.29c.08 0 7.77 2.92 14.9 0a.49.49 0 0 1 .63.26.49.49 0 0 1 -.26.63 19.84 19.84 0 0 1 -7.44 1.41z" fill="#94b5bf"/><path d="m25.37 56.42v1.3l-.2.07a19.06 19.06 0 0 1 -6.17 1.21 18.9 18.9 0 0 1 -6-1.11v-1.25-.14a18.41 18.41 0 0 0 6 1.12z" fill="#94b5bf"/><path d="m28.67 51.29v-3.87s-.46-7.17 2.87-12.53 6.36-8.59 6.36-16.21-6.57-18.18-18.68-18.18-18.67 10.57-18.67 18.18 3 10.86 6.35 16.21a18.41 18.41 0 0 1 2.87 10.43v6a.9.9 0 0 0 .52.82 22 22 0 0 0 17.86 0 .89.89 0 0 0 .52-.85z" fill="#fbe481"/><path d="m31.21 35.13a18.41 18.41 0 0 0 -2.87 10.43v6a.9.9 0 0 1 -.52.82 21 21 0 0 1 -6.55 1.79c0-.71-.06-1.58-.11-2.61v-6a18.41 18.41 0 0 1 2.84-10.43c3.33-5.35 6.35-8.59 6.35-16.21 0-6.82-5.27-16-15.08-17.84a18.82 18.82 0 0 1 3.62-.34c12.11 0 18.68 10.57 18.68 18.18s-3.03 10.88-6.36 16.21z" fill="#f8a547" opacity=".5"/><path d="m31.05 35a16 16 0 0 0 -2.23 8.25v2.44l-.66 5.71a.94.94 0 0 1 -.52.82 21.3 21.3 0 0 1 -6.5 1.78v-.19a19.51 19.51 0 0 0 5.22-1.2c.33-.15.51.09.51-.26v-6.97a18.4 18.4 0 0 1 2.86-10.38c3.33-5.35 6.37-8.59 6.37-16.21s-6.36-17.87-18.1-18.21h.75c12.11 0 18.68 10.57 18.68 18.18s-3.05 10.84-6.38 16.24z" fill="#fca100"/><path d="m6.91 35a18.48 18.48 0 0 1 2.86 10.38v6a.89.89 0 0 0 .53.82 21.26 21.26 0 0 0 6.54 1.8v-.2a20.61 20.61 0 0 1 -5.2-1.6c-.33-.15-.52.49-.52.14l.82-3.82a18.36 18.36 0 0 0 -1.62-12.52c-.18-.33-.37-.66-.58-1-3.33-5.35-6.37-8.59-6.37-16.21s4.88-17.79 16.63-18.18h-.75a18.16 18.16 0 0 0 -14.54 6.9 18.72 18.72 0 0 0 -4.17 11.28c.01 7.57 3.04 10.81 6.37 16.21z" fill="#fff"/><path d="m4.82 32.21a.53.53 0 0 1 -.46-.21c-2.47-3.85-4.36-7.25-4.36-13.32a18.43 18.43 0 0 1 2.47-8.81.54.54 0 0 1 .95.53 17.44 17.44 0 0 0 -2.28 8.28c0 5.78 1.74 8.91 4.19 12.69a.55.55 0 0 1 -.51.84z" fill="#3e3126"/><path d="m28.73 43.7h-.05a.55.55 0 0 1 -.49-.59 17.63 17.63 0 0 1 .38-2.4 19.92 19.92 0 0 1 2.51-6.11c.52-.82 1-1.6 1.51-2.35 2.66-4.07 4.76-7.29 4.76-13.57 0-7.39-6.3-17.63-18.13-17.63a17.55 17.55 0 0 0 -11.93 4.5.55.55 0 0 1 -.77 0 .54.54 0 0 1 0-.76 18.6 18.6 0 0 1 12.66-4.79c12.54 0 19.22 10.87 19.22 18.72 0 6.57-2.26 10.08-4.9 14.08-.48.75-1 1.52-1.5 2.34a19.16 19.16 0 0 0 -2.37 5.77 17.42 17.42 0 0 0 -.36 2.26.55.55 0 0 1 -.54.53z" fill="#3e3126"/><path d="m19.33 54.57a22.79 22.79 0 0 1 -9.27-2 1.43 1.43 0 0 1 -.84-1.31v-4.46a.55.55 0 0 1 .55-.54.54.54 0 0 1 .54.54v4.5a.36.36 0 0 0 .2.32 21.4 21.4 0 0 0 17.42 0 .36.36 0 0 0 .2-.32v-6.64a.55.55 0 0 1 1.09-.15.38.38 0 0 1 0 .15v6.64a1.46 1.46 0 0 1 -.84 1.32 21.73 21.73 0 0 1 -9.05 1.95z" fill="#3e3126"/><path d="m9.46 42a.54.54 0 0 1 -.53-.44 18.32 18.32 0 0 0 -1.45-4.46.55.55 0 1 1 1-.46 20 20 0 0 1 1.52 4.69.55.55 0 0 1 -.43.64z" fill="#3e3126"/><ellipse cx="29.99" cy="25.51" fill="#ffb320" rx="2.29" ry="1.63" transform="matrix(.3462808 -.93813091 .93813091 .3462808 -4.33 44.82)"/><circle cx="31.84" cy="21.11" fill="#ffb320" r="1"/><circle cx="29.18" cy="21.85" fill="#ffb320" opacity=".75" r=".4"/><circle cx="27.55" cy="27.03" fill="#ffb320" r=".66"/><circle cx="30.94" cy="18.05" fill="#ffb320" opacity=".35" r=".74"/><circle cx="28.54" cy="19.5" fill="#ffb320" opacity=".35" r=".63"/><circle cx="26.99" cy="23.36" fill="#ffb320" opacity=".35" r=".53"/><circle cx="25.32" cy="12.69" fill="#e2ab63" opacity=".75" r=".4"/><circle cx="23.56" cy="8.89" fill="#e2ab63" opacity=".35" r=".74"/><circle cx="23.12" cy="11.67" fill="#e2ab63" opacity=".35" r=".63"/><circle cx="25.06" cy="15.34" fill="#e2ab63" opacity=".35" r=".53"/><path d="m20.5 53.9a.43.43 0 0 1 -.43-.43v-15.28h-2.13v15.11a.43.43 0 0 1 -.85 0v-15.11h-2.09a2.9 2.9 0 0 1 -2.9-2.9v-.49a2.91 2.91 0 0 1 5.81 0v2.59h2.13v-2.59a2.91 2.91 0 0 1 5.81 0v.54a2.9 2.9 0 0 1 -2.9 2.9h-2.03v15.28a.42.42 0 0 1 -.42.38zm.42-16.56h2.08a2.06 2.06 0 0 0 2-2v-.54a2.06 2.06 0 0 0 -4.11 0zm-5.92-4.64a2.06 2.06 0 0 0 -2 2v.54a2.06 2.06 0 0 0 2 2h2.11v-2.44a2.06 2.06 0 0 0 -2-2.1z" fill="#3e3126"/><ellipse cx="29.03" cy="11.27" fill="#ffb320" rx="2.79" ry="3.63" transform="matrix(.96757705 -.25257602 .25257602 .96757705 -1.91 7.7)"/><path d="m15.69 57.24h-.11a19.9 19.9 0 0 1 -3.21-1 1.76 1.76 0 0 1 -1.16-2 .5.5 0 0 1 .53-.43.48.48 0 0 1 .44.52.94.94 0 0 0 .49 1 21.47 21.47 0 0 0 3.12.93.5.5 0 0 1 .37.58.47.47 0 0 1 -.47.4z" fill="#fff"/><g fill="#3e3126"><path d="m16.14 57.8a20 20 0 0 1 -4-1.18 2.18 2.18 0 0 1 -1.36-2v-2a.43.43 0 0 1 .36-.49.44.44 0 0 1 .49.36.29.29 0 0 1 0 .13v2a1.34 1.34 0 0 0 .81 1.18 20.21 20.21 0 0 0 3.82 1.13.42.42 0 0 1 .34.49.43.43 0 0 1 -.46.38z"/><path d="m19 58.11a.43.43 0 1 1 -.13-.85h.13a19.11 19.11 0 0 0 7-1.43 1.35 1.35 0 0 0 .82-1.25v-2a.43.43 0 0 1 .36-.49.44.44 0 0 1 .49.36.29.29 0 0 1 0 .13v2a2.17 2.17 0 0 1 -1.35 2 19.82 19.82 0 0 1 -7.32 1.53z"/><path d="m19.36 61.11a15.56 15.56 0 0 1 -5.64-1.11 1.79 1.79 0 0 1 -1.1-1.66v-1.54a.43.43 0 0 1 .36-.49.44.44 0 0 1 .49.36.29.29 0 0 1 0 .13v1.54a.94.94 0 0 0 .58.87 14.28 14.28 0 0 0 5.31 1.09.44.44 0 0 1 .49.36.42.42 0 0 1 -.36.49h-.13z"/><path d="m19.08 61.11a.43.43 0 1 1 -.13-.85h.13a14.7 14.7 0 0 0 5.32-1.09.92.92 0 0 0 .6-.87v-1.5a.43.43 0 0 1 .36-.49.44.44 0 0 1 .49.36.29.29 0 0 1 0 .13v1.54a1.79 1.79 0 0 1 -1.13 1.66 15.36 15.36 0 0 1 -5.64 1.11z"/><path d="m19.22 65.42a5.31 5.31 0 0 1 -5.31-5.31.43.43 0 0 1 .36-.49.44.44 0 0 1 .49.36.29.29 0 0 1 0 .13 4.46 4.46 0 0 0 8.92 0 .43.43 0 0 1 .36-.49.44.44 0 0 1 .49.36.29.29 0 0 1 0 .13 5.31 5.31 0 0 1 -5.31 5.31z"/><circle cx="7.15" cy="35.24" r=".6"/><circle cx="9.77" cy="43.55" r=".6"/><circle cx="4.01" cy="8.72" r=".6"/><path d="m5.2 23.7h-.12a.3.3 0 0 1 -.17-.39l1.65-3.9a.3.3 0 0 1 .44-.16.29.29 0 0 1 .16.39l-1.7 3.9a.29.29 0 0 1 -.26.16z"/><path d="m7.39 21.8h-.12a.3.3 0 0 1 -.16-.39l.89-2.08a.29.29 0 0 1 .39-.16.32.32 0 0 1 .16.4l-.88 2.08a.32.32 0 0 1 -.28.15z"/></g><ellipse cx="7.97" cy="14.3" fill="#ffefae" rx="3.13" ry="2.12" transform="matrix(.57228901 -.82005201 .82005201 .57228901 -8.32 12.65)"/><ellipse cx="13.01" cy="10.94" fill="#ffefae" rx="1.56" ry="1.06" transform="matrix(.57228901 -.82005201 .82005201 .57228901 -3.41 15.35)"/></svg>