<svg viewBox="0 0 59.25 60.99" xmlns="http://www.w3.org/2000/svg"><ellipse cx="29.49" cy="31.5" fill="#fbd947" rx="28.82" ry="28.9"/><path d="m29.08 2.61c-.17 10.39-3.26 33.33-26.54 39.12a28.56 28.56 0 0 1 -1.87-10.23 24.71 24.71 0 0 1 .27-3.84 28.87 28.87 0 0 1 22.63-24.45 28.34 28.34 0 0 1 5.51-.6z" fill="#fbe481"/><path d="m57.8 31.16a28.86 28.86 0 0 1 -28.8 28.9 28.41 28.41 0 0 1 -10.27-1.9c24.04-8.89 29.59-29.81 28.38-49.46a28.89 28.89 0 0 1 10.69 22.46z" fill="#f8a547" opacity=".5"/><path d="m11.36 26.05h-.11a.3.3 0 0 1 -.17-.39l1.63-3.86a.28.28 0 0 1 .37-.16.3.3 0 0 1 .17.38l-1.63 3.86a.27.27 0 0 1 -.26.17z" fill="#3e3126"/><path d="m13.53 24.19h-.11a.3.3 0 0 1 -.17-.39l.87-2.07a.33.33 0 0 1 .39-.16.3.3 0 0 1 .16.39l-.87 2.04a.29.29 0 0 1 -.27.19z" fill="#3e3126"/><path d="m29.49 60.47a29 29 0 1 1 28.89-29.11v.11a29 29 0 0 1 -28.89 29zm0-55.64a26.67 26.67 0 1 0 26.59 26.75v-.08a26.66 26.66 0 0 0 -26.59-26.67z" fill="#f8a547"/><path d="m.67 32.08a.58.58 0 0 1 -.58-.58 29.7 29.7 0 0 1 .6-5.94.57.57 0 0 1 .63-.56.59.59 0 0 1 .53.63v.12a28.88 28.88 0 0 0 -.58 5.71.56.56 0 0 1 -.56.58z" fill="#3e3126"/><path d="m29.49 61a29.3 29.3 0 0 1 -29-24.5.56.56 0 0 1 .45-.66h.06a.57.57 0 0 1 .66.45 28.31 28.31 0 1 0 1.73-15.67.58.58 0 0 1 -1.07-.43 29.42 29.42 0 1 1 27.17 40.81z" fill="#3e3126"/><circle cx=".6" cy="33.89" fill="#3e3126" r=".6"/><path d="m29.49 54.89a23.39 23.39 0 1 1 23.33-23.45v.06a23.39 23.39 0 0 1 -23.33 23.39zm0-44.48a21.09 21.09 0 1 0 21 21.18v-.09a21.09 21.09 0 0 0 -21-21.09z" fill="#f8a547"/><path d="m13.37 48.34a.48.48 0 0 1 -.32-.13 23.33 23.33 0 0 1 -7-16.71 23.6 23.6 0 0 1 15.17-22 .47.47 0 0 1 .6.27.46.46 0 0 1 -.27.59 22.68 22.68 0 0 0 -14.55 21.12 22.4 22.4 0 0 0 6.69 16.05.46.46 0 0 1 0 .65.47.47 0 0 1 -.33.14z" fill="#3e3126"/><path d="m29.49 55a23.24 23.24 0 0 1 -12.09-3.38.45.45 0 0 1 -.21-.61.46.46 0 0 1 .62-.21h.07a22.53 22.53 0 1 0 11.61-41.8 25.44 25.44 0 0 0 -3.6.28.45.45 0 0 1 -.57-.3.46.46 0 0 1 .3-.58h.12a23.47 23.47 0 0 1 7.72 46.3 23 23 0 0 1 -3.97.3z" fill="#3e3126"/><circle cx="23.64" cy="9.21" fill="#3e3126" r=".6"/><circle cx="15.35" cy="49.77" fill="#3e3126" r=".6"/><path d="m29.49 54.89a23.39 23.39 0 1 1 23.33-23.45v.06a23.39 23.39 0 0 1 -23.33 23.39zm0-44.48a21.09 21.09 0 1 0 21 21.18v-.09a21.09 21.09 0 0 0 -21-21.09z" fill="#f8a547"/><path d="m13.37 48.34a.48.48 0 0 1 -.32-.13 23.33 23.33 0 0 1 -7-16.71 23.6 23.6 0 0 1 15.17-22 .47.47 0 0 1 .6.27.46.46 0 0 1 -.27.59 22.68 22.68 0 0 0 -14.55 21.12 22.4 22.4 0 0 0 6.69 16.05.46.46 0 0 1 0 .65.47.47 0 0 1 -.33.14z" fill="#3e3126"/><path d="m29.49 55a23.24 23.24 0 0 1 -12.09-3.38.45.45 0 0 1 -.21-.61.46.46 0 0 1 .62-.21h.07a22.53 22.53 0 1 0 11.61-41.8 25.44 25.44 0 0 0 -3.6.28.45.45 0 0 1 -.57-.3.46.46 0 0 1 .3-.58h.12a23.47 23.47 0 0 1 7.72 46.3 23 23 0 0 1 -3.97.3z" fill="#3e3126"/><circle cx="23.64" cy="9.21" fill="#3e3126" r=".6"/><circle cx="15.35" cy="49.77" fill="#3e3126" r=".6"/><circle cx="1.95" cy="22.87" fill="#3e3126" r=".6"/><ellipse cx="15.74" cy="10.53" fill="#fff" rx="1.15" ry=".7" transform="matrix(.76323247 -.64612398 .64612398 .76323247 -3.08 12.67)"/><path d="m8.54 18.22a.53.53 0 0 1 -.3-.09.56.56 0 0 1 -.24-.76 25.17 25.17 0 0 1 5.21-5.69.57.57 0 0 1 .8.08.58.58 0 0 1 -.08.81 24.85 24.85 0 0 0 -5 5.39.57.57 0 0 1 -.39.26z" fill="#fff"/><g fill="#f8a547"><circle cx="38" cy="43.81" opacity=".4" r=".51"/><circle cx="38.31" cy="49.86" r="1.77"/><circle cx="39.49" cy="46.09" r=".59"/><circle cx="34.22" cy="50.64" r=".59"/><circle cx="42.71" cy="47.97" r=".73"/><circle cx="34.69" cy="48.42" opacity=".4" r=".51"/><circle cx="36.24" cy="46.93" opacity=".4" r=".53"/><circle cx="36.18" cy="44.74" opacity=".4" r=".2"/><circle cx="36.89" cy="57.2" r="1.05"/><circle cx="37.61" cy="55.4" r=".35"/><circle cx="34.47" cy="58.11" r=".35"/><circle cx="39.53" cy="56.52" r=".43"/><circle cx="34.76" cy="56.79" opacity=".4" r=".3"/><circle cx="35.68" cy="55.9" opacity=".4" r=".32"/><circle cx="35.64" cy="54.59" opacity=".4" r=".12"/><circle cx="30.57" cy="52.55" r=".65"/></g><ellipse cx="17.5" cy="17.32" fill="#ffefae" rx="3.31" ry="2.24" transform="matrix(.57071357 -.82114921 .82114921 .57071357 -6.71 21.8)"/><path d="m36.5 34a6 6 0 0 0 -1.32-1.88 8.66 8.66 0 0 0 -1.81-1.3 15.31 15.31 0 0 0 -1.93-.89c-.89-.33-1.71-.67-2.49-1a5.79 5.79 0 0 1 -1.89-1.2 2.32 2.32 0 0 1 -.72-1.73 2.9 2.9 0 0 1 .33-1.41 2.18 2.18 0 0 1 1-.9 4.67 4.67 0 0 1 1.81-.31 3.52 3.52 0 0 1 1.85.47 5 5 0 0 1 1.37 1.25 12.92 12.92 0 0 1 1.06 1.69l2.92-1.79a8.84 8.84 0 0 0 -1.49-2.24 7.6 7.6 0 0 0 -2.39-1.77 7 7 0 0 0 -1.89-.57v-3.58h-3l.09 3.51a7.53 7.53 0 0 0 -2.23.65 6.42 6.42 0 0 0 -2.47 2 4.73 4.73 0 0 0 -.9 2.81 5.75 5.75 0 0 0 .57 2.68 6.33 6.33 0 0 0 1.44 1.88 7.88 7.88 0 0 0 1.87 1.26 13.78 13.78 0 0 0 1.82.77c.83.32 1.63.66 2.37 1a6.13 6.13 0 0 1 1.83 1.31 2.89 2.89 0 0 1 .7 2 3.37 3.37 0 0 1 -.36 1.62 2.27 2.27 0 0 1 -1.1 1 4.45 4.45 0 0 1 -1.87.35 4.65 4.65 0 0 1 -2.28-.54 5.86 5.86 0 0 1 -1.81-1.55 11.69 11.69 0 0 1 -1.58-2.46l-2.83 1.87a9.67 9.67 0 0 0 1.92 3 9 9 0 0 0 2.91 2.09 7.88 7.88 0 0 0 2 .63l-.06 3.36h3l-.06-3.29a8.3 8.3 0 0 0 2.67-.7 5.63 5.63 0 0 0 2.45-2.22 6.36 6.36 0 0 0 .89-3.38 6.12 6.12 0 0 0 -.39-2.49z" fill="#fff"/><ellipse cx="46.41" cy="12.81" fill="#fbd947" rx="12.57" ry="12.61"/><path d="m46.24.21c-.08 4.53-1.42 14.54-11.58 17.07a12.54 12.54 0 0 1 -.82-4.46 11.87 11.87 0 0 1 .16-1.68 12.51 12.51 0 0 1 12.24-10.93z" fill="#fbe481"/><path d="m58.77 12.66a12.59 12.59 0 0 1 -12.53 12.61 12.27 12.27 0 0 1 -4.48-.83c10.5-3.88 12.92-13 12.39-21.57a12.56 12.56 0 0 1 4.62 9.79z" fill="#f8a547" opacity=".5"/><path d="m38.51 10.44a.12.12 0 0 1 -.08-.15l.71-1.68a.14.14 0 0 1 .17-.07.13.13 0 0 1 .07.17l-.71 1.68a.12.12 0 0 1 -.16.05z" fill="#3e3126"/><path d="m39.46 9.62h-.06a.14.14 0 0 1 -.07-.17l.38-.9a.12.12 0 0 1 .15-.07.15.15 0 0 1 .07.17l-.38.9a.12.12 0 0 1 -.09.07z" fill="#3e3126"/><path d="m46.41 25.45a12.64 12.64 0 1 1 12.59-12.67 12.63 12.63 0 0 1 -12.59 12.67zm0-24.27a11.64 11.64 0 1 0 11.59 11.67 11.63 11.63 0 0 0 -11.59-11.67z" fill="#f8a547"/><path d="m33.84 13.07a.26.26 0 0 1 -.25-.26 13.31 13.31 0 0 1 .26-2.59.27.27 0 0 1 .3-.19.24.24 0 0 1 .19.28 13.06 13.06 0 0 0 -.25 2.49.26.26 0 0 1 -.25.27z" fill="#3e3126"/><path d="m46.41 25.67a12.77 12.77 0 0 1 -12.64-10.67.26.26 0 0 1 .23-.3.27.27 0 0 1 .29.21 12.34 12.34 0 1 0 .71-6.84.24.24 0 0 1 -.33.13.24.24 0 0 1 -.14-.32 12.84 12.84 0 1 1 11.88 17.8z" fill="#3e3126"/><circle cx="33.81" cy="13.86" fill="#3e3126" r=".26"/><path d="m46.41 23a10.21 10.21 0 1 1 10.18-10.25 10.2 10.2 0 0 1 -10.18 10.25zm0-19.41a9.2 9.2 0 1 0 9.18 9.22 9.2 9.2 0 0 0 -9.18-9.17z" fill="#f8a547"/><path d="m39.38 20.16a.2.2 0 0 1 -.14-.06 10.26 10.26 0 0 1 3.58-16.87.2.2 0 0 1 .26.11.2.2 0 0 1 -.08.26 9.85 9.85 0 0 0 -3.44 16.22.21.21 0 0 1 0 .29.24.24 0 0 1 -.18.05z" fill="#3e3126"/><path d="m46.41 23.05a10 10 0 0 1 -5.27-1.47.19.19 0 0 1 -.07-.26.19.19 0 0 1 .26-.07 9.83 9.83 0 0 0 10.17-16.85 9.93 9.93 0 0 0 -5.09-1.4 10.25 10.25 0 0 0 -1.56.12.19.19 0 0 1 -.23-.12.21.21 0 0 1 .16-.24 12.64 12.64 0 0 1 1.63-.13 10.24 10.24 0 0 1 0 20.48z" fill="#3e3126"/><circle cx="40.25" cy="20.79" fill="#3e3126" r=".26"/><path d="m46.41 23a10.21 10.21 0 1 1 10.18-10.25 10.2 10.2 0 0 1 -10.18 10.25zm0-19.41a9.2 9.2 0 1 0 9.18 9.22 9.2 9.2 0 0 0 -9.18-9.17z" fill="#f8a547"/><path d="m39.38 20.16a.2.2 0 0 1 -.14-.06 10.26 10.26 0 0 1 3.58-16.87.2.2 0 0 1 .26.11.2.2 0 0 1 -.08.26 9.85 9.85 0 0 0 -3.44 16.22.21.21 0 0 1 0 .29.24.24 0 0 1 -.18.05z" fill="#3e3126"/><path d="m46.41 23.05a10 10 0 0 1 -5.27-1.47.19.19 0 0 1 -.07-.26.19.19 0 0 1 .26-.07 9.83 9.83 0 0 0 10.17-16.85 9.93 9.93 0 0 0 -5.09-1.4 10.25 10.25 0 0 0 -1.56.12.19.19 0 0 1 -.23-.12.21.21 0 0 1 .16-.24 12.64 12.64 0 0 1 1.63-.13 10.24 10.24 0 0 1 0 20.48z" fill="#3e3126"/><circle cx="40.25" cy="20.79" fill="#3e3126" r=".26"/><circle cx="34.4" cy="9.05" fill="#3e3126" r=".26"/><path d="m37.24 7a.17.17 0 0 1 -.14 0 .26.26 0 0 1 -.1-.36 11.42 11.42 0 0 1 2.3-2.48.25.25 0 0 1 .35 0 .24.24 0 0 1 0 .35 11 11 0 0 0 -2.16 2.35.24.24 0 0 1 -.25.14z" fill="#fff"/><circle cx="50.13" cy="18.19" fill="#f8a547" opacity=".4" r=".22"/><circle cx="50.26" cy="20.82" fill="#f8a547" r=".77"/><circle cx="50.78" cy="19.18" fill="#f8a547" r=".26"/><circle cx="48.48" cy="21.17" fill="#f8a547" r=".26"/><circle cx="52.19" cy="20" fill="#f8a547" r=".32"/><circle cx="48.69" cy="20.2" fill="#f8a547" opacity=".4" r=".22"/><circle cx="49.36" cy="19.55" fill="#f8a547" opacity=".4" r=".23"/><circle cx="49.34" cy="18.59" fill="#f8a547" opacity=".4" r=".09"/><circle cx="49.64" cy="24.03" fill="#f8a547" r=".46"/><circle cx="49.96" cy="23.24" fill="#f8a547" r=".15"/><circle cx="48.59" cy="24.42" fill="#f8a547" r=".15"/><circle cx="50.8" cy="23.73" fill="#f8a547" r=".19"/><circle cx="48.71" cy="23.85" fill="#f8a547" opacity=".4" r=".13"/><circle cx="49.12" cy="23.46" fill="#f8a547" opacity=".4" r=".14"/><circle cx="49.1" cy="22.89" fill="#f8a547" opacity=".4" r=".05"/><circle cx="46.89" cy="22" fill="#f8a547" r=".28"/><ellipse cx="41.38" cy="6.83" fill="#ffefae" rx="1.45" ry=".98" transform="matrix(.57228901 -.82005201 .82005201 .57228901 12.1 36.85)"/><path d="m49.48 13.9a2.91 2.91 0 0 0 -.58-.82 4.07 4.07 0 0 0 -.79-.57 8 8 0 0 0 -.84-.38c-.39-.15-.75-.3-1.09-.45a2.54 2.54 0 0 1 -.82-.52 1 1 0 0 1 -.32-.77 1.2 1.2 0 0 1 .15-.61.9.9 0 0 1 .45-.39 1.94 1.94 0 0 1 .79-.14 1.76 1.76 0 0 1 .81.2 2.25 2.25 0 0 1 .6.55 6.45 6.45 0 0 1 .46.74l1.27-.74a3.82 3.82 0 0 0 -.65-1 3.61 3.61 0 0 0 -1-.77 3.32 3.32 0 0 0 -.83-.25v-1.59h-1.29v1.53a3.48 3.48 0 0 0 -1 .29 2.81 2.81 0 0 0 -1.08.88 2.09 2.09 0 0 0 -.39 1.23 2.59 2.59 0 0 0 .24 1.17 2.77 2.77 0 0 0 .63.81 3.84 3.84 0 0 0 .82.56 6 6 0 0 0 .79.33 9.6 9.6 0 0 1 1 .44 2.8 2.8 0 0 1 .79.57 1.3 1.3 0 0 1 .31.88 1.56 1.56 0 0 1 -.15.71 1 1 0 0 1 -.49.45 1.88 1.88 0 0 1 -.81.15 2 2 0 0 1 -1-.24 2.42 2.42 0 0 1 -.79-.67 5.38 5.38 0 0 1 -.67-1.08l-1.25.82a4.78 4.78 0 0 0 .84 1.32 4.14 4.14 0 0 0 1.25.91 3.11 3.11 0 0 0 .88.28v1.47h1.28v-1.44a3.39 3.39 0 0 0 1.16-.31 2.42 2.42 0 0 0 1.1-1 2.7 2.7 0 0 0 .41-1.45 2.86 2.86 0 0 0 -.19-1.1z" fill="#fff"/></svg>