<svg viewBox="0 0 66.34 48.85" xmlns="http://www.w3.org/2000/svg"><path d="m16.5 4.32v20.68a3.36 3.36 0 0 0 3.34 3.34l33.75.14a3.35 3.35 0 0 0 3.35-3.35v-20.67z" fill="#9ce5e5" opacity=".5"/><path d="m5 48.39h-2.14c-1.3 0-2.34-1.39-2.34-3.13v-35.87c0-1.74 1-3.15 2.34-3.15h2.14c-1.29 0-2.34 1.41-2.34 3.15v35.87c-.05 1.74 1 3.13 2.34 3.13z" fill="#cfb0ff"/><path d="m55.08 48.84h-5.43a.44.44 0 1 1 0-.88h5.43a2.71 2.71 0 0 0 2.71-2.71v-35.86a2.71 2.71 0 0 0 -2.71-2.71.44.44 0 0 1 0-.88 3.59 3.59 0 0 1 3.59 3.59v35.86a3.59 3.59 0 0 1 -3.59 3.59z" fill="#3e3126"/><path d="m46.64 4.63h-32.43a.45.45 0 1 1 0-.9h32.43a.45.45 0 0 1 0 .9z" fill="#3e3126"/><path d="m13.8 6.66h-2.27a.44.44 0 0 1 0-.88h2.27a.44.44 0 0 1 0 .88z" fill="#3e3126"/><rect fill="#7c6887" height="37.75" rx="2.02" width="50.66" x="5.19" y="8.4"/><path d="m62.59 27.79a3.35 3.35 0 0 1 -3.06 2l-33.76-.14a3.34 3.34 0 0 1 -3.34-3.33v-19.93h1.85v19.32a2.09 2.09 0 0 0 2.09 2.08z" fill="#3d3344" opacity=".5"/><path d="m5.3 23.51a.29.29 0 0 1 -.3-.26v-12.86a2.3 2.3 0 0 1 2.3-2.3h8.52a.29.29 0 0 1 .28.28.27.27 0 0 1 -.26.28h-8.52a1.74 1.74 0 0 0 -1.74 1.74v12.84a.3.3 0 0 1 -.28.28z" fill="#3e3126"/><path d="m53.94 46.39h-46.62a2.3 2.3 0 0 1 -2.32-2.3v-12.83a.27.27 0 0 1 .26-.26.29.29 0 0 1 .28.28v12.8a1.76 1.76 0 0 0 1.76 1.73h46.64a1.76 1.76 0 0 0 1.74-1.75v-14.26a.29.29 0 0 1 .28-.28.29.29 0 0 1 .28.29v14.25a2.3 2.3 0 0 1 -2.24 2.33z" fill="#3e3126"/><path d="m5.3 29.76a.29.29 0 0 1 -.3-.26v-3a.29.29 0 0 1 .28-.28.3.3 0 0 1 .28.28v2.94a.28.28 0 0 1 -.26.32z" fill="#3e3126"/><circle cx="36.66" cy="40.49" fill="#3d3344" opacity=".35" r=".49"/><path d="m53.83 43.86h-15.36v-.12a.76.76 0 0 0 -1.52 0v.12h-1.15a1 1 0 0 0 .05-.24.89.89 0 0 0 -1.78 0 1 1 0 0 0 0 .24h-26.86a2 2 0 0 1 -2-2v2.29a2 2 0 0 0 2 2h46.62a2 2 0 0 0 2-2v-2.32a2 2 0 0 1 -2 2z" fill="#3d3344" opacity=".5"/><circle cx="34.86" cy="39.99" fill="#3d3344" opacity=".35" r=".28"/><circle cx="38.67" cy="40.65" fill="#3d3344" opacity=".35" r=".19"/><circle cx="37.41" cy="38.7" fill="#3d3344" opacity=".35" r=".42"/><circle cx="33.15" cy="39.95" fill="#3d3344" opacity=".35" r=".42"/><rect fill="#3d3344" height="8.23" rx="1.03" width="2.06" x="13.96" y="20.01"/><path d="m63.35.21h-44.46a2.36 2.36 0 0 0 -.65.08h.57a2.32 2.32 0 0 0 -2.38 2.26v31.07a2.46 2.46 0 0 0 2.46 2.46h44.46a2.46 2.46 0 0 0 2.46-2.46v-30.95a2.46 2.46 0 0 0 -2.46-2.46z" fill="#fff"/><path d="m65.83 3v31a2.46 2.46 0 0 1 -2.46 2.46h-30.74c47.69.02 15.09-27.52 27.69-35.85h3a2.45 2.45 0 0 1 2.51 2.39z" fill="#c9d2df" opacity=".2"/><path d="m27.23 7.64h-3.76a.33.33 0 0 1 0-.66h3.76a.33.33 0 0 1 0 .66z" fill="#fff"/><path d="m27.23 19.88h-3.76a.33.33 0 1 1 0-.66h3.76a.33.33 0 1 1 0 .66z" fill="#fff"/><path d="m27.23 26h-3.76a.33.33 0 1 1 0-.66h3.76a.33.33 0 1 1 0 .66z" fill="#fff"/><path d="m19 36.33h-2.56a2.46 2.46 0 0 1 -2.44-2.46v-30.95a2.46 2.46 0 0 1 2.46-2.46h2.54a2.46 2.46 0 0 0 -2.46 2.46v30.95a2.46 2.46 0 0 0 2.46 2.46z" fill="#cfb0ff"/><path d="m15.12 5.41a1 1 0 0 1 1 1v4.2a1 1 0 0 1 -1 1 1 1 0 0 1 -1-1v-4.17a1 1 0 0 1 1-1.03z" fill="#8647ea" opacity=".6"/><g fill="#3e3126"><path d="m61.54 4.53h-43a.23.23 0 0 1 0-.46h43a.24.24 0 0 1 .22.23.22.22 0 0 1 -.21.23z"/><path d="m51.92 16h-11.38a.28.28 0 1 1 0-.56h11.38a.28.28 0 0 1 0 .56z"/><path d="m51.92 13.32h-11.38a.3.3 0 0 1 -.28-.28.29.29 0 0 1 .28-.28h11.38a.27.27 0 0 1 .28.26.29.29 0 0 1 -.28.3z"/><path d="m58 18.78h-17.46a.3.3 0 0 1 -.28-.28.29.29 0 0 1 .28-.28h17.46a.29.29 0 0 1 .28.28.3.3 0 0 1 -.28.28z"/><path d="m21.06 3.21a.7.7 0 1 1 .7-.7.7.7 0 0 1 -.7.7zm0-1.13a.43.43 0 0 0 -.43.43.44.44 0 0 0 .43.43.43.43 0 0 0 .43-.43.43.43 0 0 0 -.43-.43z"/><path d="m23.49 3.21a.7.7 0 1 1 .7-.7.7.7 0 0 1 -.7.7zm0-1.13a.43.43 0 0 0 -.43.43.43.43 0 0 0 .85.13.29.29 0 0 0 0-.13.42.42 0 0 0 -.41-.43z"/><path d="m25.91 3.21a.7.7 0 1 1 .7-.7.7.7 0 0 1 -.7.7zm0-1.13a.42.42 0 0 0 -.42.42.43.43 0 0 0 .85.13.29.29 0 0 0 0-.13.43.43 0 0 0 -.43-.43z"/><circle cx="9.66" cy="6.26" r=".57"/><circle cx="5.34" cy="24.95" r=".57"/><path d="m8.81 15.39h-.1a.25.25 0 0 1 -.13-.32l1.34-3.16a.23.23 0 0 1 .29-.14.23.23 0 0 1 .14.29l-1.35 3.16a.22.22 0 0 1 -.19.17z"/><path d="m10.59 13.85h-.1a.25.25 0 0 1 -.13-.32l.72-1.69a.23.23 0 0 1 .29-.14.24.24 0 0 1 .13.31l-.72 1.69a.22.22 0 0 1 -.19.15z"/></g><circle cx="15.28" cy="13.55" fill="#8647ea" opacity=".6" r=".97"/><path d="m25.82 36.58h-7.11a2.8 2.8 0 0 1 -2.79-2.79v-31a2.8 2.8 0 0 1 2.79-2.79h7.11a.33.33 0 0 1 .33.33.33.33 0 0 1 -.33.33h-7.11a2.15 2.15 0 0 0 -2.13 2.13v31a2.15 2.15 0 0 0 2.13 2.13h7.11a.33.33 0 0 1 .33.33.33.33 0 0 1 -.33.33z" fill="#3e3126"/><path d="m63.55 36.58h-47a2.8 2.8 0 0 1 -2.79-2.79v-31a2.8 2.8 0 0 1 2.79-2.79h47a2.8 2.8 0 0 1 2.79 2.79v31a2.8 2.8 0 0 1 -2.79 2.79zm-47-35.88a2.15 2.15 0 0 0 -2.13 2.13v31a2.15 2.15 0 0 0 2.13 2.17h47a2.15 2.15 0 0 0 2.13-2.13v-31a2.15 2.15 0 0 0 -2.13-2.17z" fill="#3e3126"/><rect fill="#8647ea" height="8.14" opacity=".6" rx=".99" width="1.99" x=".47" y="29.29"/><path d="m44.65 48.85h-41.06a3.59 3.59 0 0 1 -3.59-3.59v-35.87a3.59 3.59 0 0 1 3.59-3.59h4.31a.44.44 0 0 1 0 .88h-4.31a2.71 2.71 0 0 0 -2.71 2.71v35.87a2.71 2.71 0 0 0 2.71 2.74h41.06a.44.44 0 0 1 .44.44.43.43 0 0 1 -.42.44z" fill="#3e3126"/><path d="m5.66 48.69a3.44 3.44 0 0 1 -3.43-3.43v-35.87a3.44 3.44 0 0 1 3.43-3.39.3.3 0 0 1 .28.28.29.29 0 0 1 -.28.28 2.86 2.86 0 0 0 -2.87 2.83v35.87a2.86 2.86 0 0 0 2.85 2.87.3.3 0 0 1 .28.28.29.29 0 0 1 -.26.28z" fill="#3e3126"/><rect fill="#b29fbf" height="14" rx=".9" width="16.38" x="20.55" y="8.67"/><path d="m36.72 9.51v12.2a.91.91 0 0 1 -.91.91h-8.87a23.39 23.39 0 0 0 9.56-13.62.82.82 0 0 1 .22.51z" fill="#7c6887"/><path d="m36 23h-14.55a1.18 1.18 0 0 1 -1.18-1.18v-12.17a1.18 1.18 0 0 1 1.17-1.19h14.56a1.19 1.19 0 0 1 1.19 1.19v12.18a1.19 1.19 0 0 1 -1.19 1.17zm-14.57-14a.64.64 0 0 0 -.62.63v12.2a.64.64 0 0 0 .62.63h14.57a.63.63 0 0 0 .63-.63v-12.18a.63.63 0 0 0 -.63-.65z" fill="#3e3126"/></svg>