<svg xmlns="http://www.w3.org/2000/svg" viewBox="0 0 500 500"><g id="freepik--background-complete--inject-16"><rect width="10.78" height="14.95" x="44.86" y="151.96" style="fill:#e0e0e0"/><rect width="11.65" height="14.95" x="123.76" y="151.96" style="fill:#e0e0e0"/><rect width="119.67" height="10.14" x="30.67" y="142.98" style="fill:#e0e0e0"/><rect width="28.74" height="24.87" x="109.64" y="118.03" style="fill:#e0e0e0"/><rect width="24.11" height="24.87" x="102.51" y="118.03" style="fill:#ebebeb"/><path d="M112,118c.08.06-2,2.82-4.66,6.17s-4.85,6-4.93,5.94,2-2.82,4.66-6.16S111.94,118,112,118Z" style="fill:#fafafa"/><path d="M118.89,118.05c.08.06-3.55,5.06-8.09,11.18s-8.3,11-8.38,11,3.55-5.06,8.1-11.17S118.81,118,118.89,118.05Z" style="fill:#fafafa"/><path d="M126,118c.07.06-4,5.68-9.13,12.56s-9.33,12.41-9.4,12.35,4-5.68,9.12-12.56S125.9,118,126,118Z" style="fill:#fafafa"/><path d="M132.81,118c.08.06-3.92,5.67-8.94,12.54s-9.14,12.4-9.21,12.34,3.92-5.67,8.93-12.54S132.73,118,132.81,118Z" style="fill:#fafafa"/><path d="M138.21,120.43c.08.06-3.61,5.16-8.25,11.39s-8.46,11.23-8.53,11.18,3.61-5.16,8.25-11.39S138.14,120.37,138.21,120.43Z" style="fill:#fafafa"/><path d="M138.22,130.32c.08.06-2.09,3-4.84,6.47s-5,6.3-5.12,6.25,2.09-3,4.84-6.47S138.14,130.26,138.22,130.32Z" style="fill:#fafafa"/><polygon points="110.73 101.87 108.29 143.07 44.73 142.94 43.93 101.74 110.73 101.87" style="fill:#ebebeb"/><path d="M109,113s0,0,0,0l-1,.57.6-.93h0l-2.29-.47,2.26-.59s0,0,.06,0l-.52-.94.86.6s0,0,0,0l.55-2.29.51,2.29.07.11.08,0-.05.91a.13.13,0,0,0,0,.06l-.05.92,0,0-.51,2.39Z" style="fill:#fff"/><path d="M105.27,133.53l2.26-.59.06,0-.52-.95.86.6,0,0,.55-2.29.44,2,0,.53-.09,1.59-.08,1.38-.25,1.14-.54-2.44s0,0,0,0l-1,.57.6-.93h0Z" style="fill:#fff"/><path d="M96.89,142l-.53-.95.87.6,0,0,.54-2.29.52,2.29a.6.6,0,0,0,.06.11l1-.53-.62.84,2.32.6-2.37.46H96.85l-2.28-.47,2.26-.59Z" style="fill:#fff"/><path d="M91.25,115.42h0L89,114.94l2.26-.59.06,0-.52-.94.86.6s0,0,0,0l.54-2.28.52,2.29a.6.6,0,0,0,.06.11l1-.54-.63.85,2.32.59-2.37.46-.08,0,.62,1.07-.94-.67-.52,2.38-.54-2.43s0,0,0,0l-1,.57Z" style="fill:#fff"/><path d="M81.63,103.23l-2.29-.47,2.26-.59.06,0-.17-.31h1.63l0,.05.09-.05h.55l-.27.36,2.32.59-2.37.46-.08,0,.63,1.06-1-.66-.52,2.38L82,103.63s0,0,0,0l-1,.58.6-.93Z" style="fill:#fff"/><path d="M78.42,124.67l2.26-.59.06,0-.52-.94.86.6s0,0,0,0l.55-2.28.51,2.28s0,.08.07.12l1-.54-.63.85,2.32.59-2.37.46-.08,0,.63,1.06-.95-.66L81.63,128l-.54-2.43s0,0,0,0l-1,.58.6-.94h0Z" style="fill:#fff"/><path d="M45.12,141.37l.55-2.29.51,2.29.07.11,1-.53-.62.84,2.31.59-2.36.46-.08,0,0,.06h-1.8v-.09h0l0-1.06.06,0-.07-.11v-.52l.41.29Z" style="fill:#fff"/><path d="M62.58,121.17l-2.28-.46,2.26-.6s0,0,.06,0l-.52-1,.86.6s0,0,0,0l.55-2.29L64,119.7s0,.07.07.11l1-.53-.63.84,2.32.6-2.37.46-.08,0,.62,1.06-.94-.66L63.51,124,63,121.57v0l-1,.58.61-.94Z" style="fill:#fff"/><path d="M45,115.11l.55-2.29.51,2.29s0,.07.07.11l1-.53-.63.84,2.32.59-2.37.46-.08,0L47,117.7l-1-.67-.52,2.38L45,117l0,0-.75.44v-.2l.39-.6h0l-.4-.08v-.88l.38-.1s0,0,.06,0l-.46-.84v-.06l.8.56S45,115.12,45,115.11Z" style="fill:#fff"/><path d="M46.47,103.16l-2.28-.47,2.26-.59s0,0,.06,0l-.18-.31H48l0,0,.09,0h.55l-.26.36,2.32.59-2.37.46-.08,0,.62,1.07-1-.67L47.4,106l-.54-2.43s0,0,0,0l-1,.57.6-.93A0,0,0,0,0,46.47,103.16Z" style="fill:#fff"/><path d="M76.84,139.24l2.26-.59.06,0-.52-.94.86.6s0,0,0,0l.54-2.29.52,2.29a.34.34,0,0,0,.07.11l1-.53-.63.84,2.32.59-2.37.46-.08,0,.62,1.07-.94-.67-.52,2.39-.54-2.44s0,0,0,0l-1,.57.61-.93h0Z" style="fill:#fff"/><path d="M89,132.17l2.26-.59.06,0-.52-.94.86.6s0,0,0,0l.55-2.29.51,2.29s0,.07.07.11l1-.53-.63.84,2.32.59-2.37.46-.08.05.63,1.07-1-.67-.52,2.39L91.66,133s0,0,0,0l-1,.57.6-.93h0Z" style="fill:#fff"/><path d="M100.19,122l-1.69-.35,1.67-.43,0,0-.39-.7.64.45s0,0,0,0l.4-1.69.38,1.69a.56.56,0,0,0,0,.08l.74-.39-.46.62,1.71.44-1.75.34-.06,0,.46.79-.7-.5-.38,1.77-.39-1.81s0,0,0,0l-.71.43.45-.69Z" style="fill:#fff"/><path d="M76.49,112.81l-1.75.33-.06,0,.46.79-.7-.49-.38,1.76-.4-1.8s0,0,0,0l-.71.43.44-.69h0l-1.68-.34,1.67-.44,0,0-.39-.7.64.45s0,0,0,0l.4-1.69.38,1.69a.26.26,0,0,0,0,.09l.74-.4-.46.63Z" style="fill:#fff"/><path d="M56.3,109.3l-.39-.7.64.44s0,0,0,0l.4-1.69.38,1.69a.35.35,0,0,0,0,.08l.74-.39-.46.62,1.71.44-1.75.34s0,0-.06,0l.46.79-.7-.49L57,112.2l-.4-1.8s0,0,0,0l-.71.42.44-.69h0l-1.68-.34,1.67-.44Z" style="fill:#fff"/><path d="M65.67,103.45s0,0-.06,0l.46.79-.7-.49L65,105.54l-.4-1.8s0,0,0,0l-.71.43.44-.69h0l-1.69-.34,1.68-.44,0,0-.39-.7.64.45s0,0,0,0l.14-.57h.52l.13.57a.26.26,0,0,0,.05.09l.74-.4-.47.63,1.72.44Z" style="fill:#fff"/><path d="M69.08,132.06h0l-1.69-.35,1.68-.44,0,0-.39-.7.64.44s0,0,0,0l.41-1.69.38,1.69a.35.35,0,0,0,0,.08l.74-.39-.47.62,1.72.44-1.75.34-.06,0,.46.79-.7-.49-.38,1.76-.4-1.8v0l-.71.42Z" style="fill:#fff"/><path d="M54.27,126.67l-1.69-.34,1.67-.44,0,0-.39-.7.64.45s0,0,0,0l.41-1.69.38,1.69a.26.26,0,0,0,0,.09l.74-.4-.47.62,1.72.45-1.75.33-.06,0,.46.79-.7-.49L55,128.77l-.4-1.8s0,0,0,0l-.71.43.44-.69Z" style="fill:#fff"/><path d="M52.13,136.55l1.67-.44.05,0-.39-.7.64.44v0l.41-1.69.38,1.69s0,.05,0,.08l.74-.39-.46.62,1.72.44-1.76.34,0,0,.46.78-.7-.49L54.51,139l-.4-1.8,0,0-.71.42.45-.69h0Z" style="fill:#fff"/><path d="M44.81,128.75l.74-.4-.46.62,1.71.44-1.75.34-.06,0,.46.79-.7-.49-.25,1.16,0-1.36v-1l0-1.75.34,1.52S44.8,128.72,44.81,128.75Z" style="fill:#fff"/><path d="M62.56,142.51l-.39-.7.64.45,0,0,.4-1.69.38,1.69a.22.22,0,0,0,0,.08l.74-.39-.46.62,1.71.44h-4.8l1.67-.43Z" style="fill:#fff"/><path d="M92.39,103.6l-.06,0,.46.79-.7-.49-.38,1.76-.4-1.8s0,0,0,0l-.71.43.44-.69h0l-1.68-.34,1.67-.44,0,0-.39-.7.64.45s0,0,0,0l.16-.67H92l.15.67a.35.35,0,0,0,.05.08l.74-.4-.46.63,1.71.44Z" style="fill:#fff"/><path d="M104,103.15l-.06,0,.46.78-.7-.49-.38,1.76-.4-1.8s0,0,0,0l-.71.42.45-.69h0l-1.69-.35,1.67-.44,0,0-.26-.48h.19l.32.22,0,0,0-.2h.69l0,.2s0,0,0,.08l.53-.28h.13l-.38.51,1.71.44Z" style="fill:#fff"/><polygon points="98.66 101.85 98.58 143.05 108.29 143.07 110.73 101.87 98.66 101.85" style="fill:#e0e0e0"/><polygon points="105.95 101.86 104.25 143.06 102.04 143.05 102.12 101.86 105.95 101.86" style="fill:#e0e0e0"/><rect width="41.2" height="5.3" x="51.17" y="119.75" transform="translate(-50.76 193.93) rotate(-89.89)" style="fill:#e0e0e0"/><path d="M93.28,95.84s-4.86-9.14-6.85-9.15c0,0-7,3.06-10.88,12.91H72.12S70.23,91.73,61,87.46c0,0-5.18,9.48-5.36,9.39a18.68,18.68,0,0,0,11.84,4.86c7.41.33,18.18-.44,18.18-.44S92.19,98.46,93.28,95.84Z" style="fill:#e0e0e0"/><path d="M70.34,100.89s-7.78-4.42-14-4C56.3,96.94,63.6,103,70.34,100.89Z" style="fill:#ebebeb"/><path d="M92.52,95.79s-10,.64-15.23,5.47C77.29,101.26,86.89,102.3,92.52,95.79Z" style="fill:#ebebeb"/><rect width="47.37" height="12.53" x="81.9" y="34.78" style="fill:#f5f5f5"/><path d="M109.24,60.51s0-.08,0-.23,0-.38,0-.64c0-.59,0-1.41,0-2.47,0-2.16,0-5.27-.08-9.19l.15.14-47.37.1.24-.24h0v6.35c0,2.09,0,4.14,0,6.16l-.23-.24,33.76.11,10,.07,2.7,0h.7l.25,0H109l-.67,0-2.65,0-9.91.07-33.92.11h-.24V48h0l.24-.24,47.37.09h.15V48c0,4-.06,7.1-.08,9.28,0,1,0,1.85,0,2.43,0,.26,0,.46,0,.62S109.25,60.51,109.24,60.51Z" style="fill:#e0e0e0"/><rect width="47.37" height="12.53" x="89.51" y="248.15" style="fill:#f5f5f5"/><path d="M116.85,273.88a1,1,0,0,1,0-.22V273c0-.59,0-1.41,0-2.46,0-2.17,0-5.28-.08-9.2l.15.15-47.37.09.24-.24h0v3.19c0,1.06,0,2.11,0,3.16v6.16l-.24-.23,33.76.1,10,.07,2.69,0,.71,0h.25l-.22,0H116l-2.64,0-9.91.07-33.93.11h-.23v-.24c0-2,0-4.07,0-6.16v-6.35h0l.25-.24,47.37.09H117v.15c0,4-.06,7.1-.08,9.28,0,1,0,1.86,0,2.44,0,.25,0,.45,0,.61A1.23,1.23,0,0,1,116.85,273.88Z" style="fill:#e0e0e0"/><rect width="47.37" height="12.53" x="439.17" y="312.4" style="fill:#f5f5f5"/><path d="M466.51,338.13a2,2,0,0,1,0-.22c0-.17,0-.38,0-.65q0-.88,0-2.46c0-2.17-.05-5.28-.08-9.2l.14.15-47.37.09c.11-.1-.24.24.24-.24h0v12.51l-.24-.23,33.76.11,10,.06,2.7,0,.7,0h.25s-.07,0-.22,0h-.67l-2.65,0-9.91.06-33.92.11h-.24V325.62h0l.24-.24,47.37.09h.15v.14c0,4-.06,7.1-.08,9.28,0,1,0,1.86,0,2.44,0,.25,0,.45,0,.62S466.52,338.14,466.51,338.13Z" style="fill:#e0e0e0"/><path d="M325.24,47.1a1,1,0,0,1,0-.22v-.65c0-.59,0-1.41,0-2.46,0-2.17-.05-5.28-.08-9.2l.15.15-47.37.09c.1-.11-.25.24.23-.24h0V47.1l-.24-.23,33.76.1,10,.07,2.69,0,.71,0h.25l-.22,0h-.68l-2.64,0-9.91.07-33.93.11h-.23V47.1c0-2,0-4.07,0-6.16V34.59h0c.48-.48.14-.13.25-.24l47.37.09h.14v.15c0,4-.06,7.1-.08,9.28,0,1,0,1.86,0,2.44,0,.25,0,.45,0,.61A1.23,1.23,0,0,1,325.24,47.1Z" style="fill:#e0e0e0"/><path d="M331.66,34.57a1.35,1.35,0,0,1,0-.24c0-.18,0-.4,0-.66,0-.62,0-1.46,0-2.51,0-2.2-.05-5.31-.09-9.12l.17.17-28.46.07.24-.24h0V25.3c0,1.08,0,2.15,0,3.19v6.08l-.23-.23,20.36.11,5.93.06,1.6,0,.57,0a3.2,3.2,0,0,1-.52,0l-1.55,0-5.88.06-20.51.11H303v-.23q0-2.93,0-6.08V25.3c0-.53,0-1.08,0-1.62V22.06h0c-.05.05.46-.46.25-.24l28.46.06h.17V22c0,3.86-.07,7-.09,9.22,0,1,0,1.87,0,2.47S331.67,34.58,331.66,34.57Z" style="fill:#e0e0e0"/><path d="M467.48,79s0-.08,0-.23,0-.38,0-.64c0-.59,0-1.42,0-2.47,0-2.16-.05-5.27-.09-9.2l.15.15-47.37.1c.11-.11-.24.24.24-.25h0V72.8c0,2.09,0,4.15,0,6.17l-.23-.24,33.76.11,10,.07,2.7,0h.7a1.27,1.27,0,0,1,.25,0h-.22l-.67,0-2.65,0L454,79.1l-33.92.1h-.24V66.44h0l.24-.24,47.37.1h.15v.14c0,4-.06,7.1-.08,9.29,0,1,0,1.85,0,2.43v.62A.8.8,0,0,1,467.48,79Z" style="fill:#e0e0e0"/><path d="M473.9,66.43a2.07,2.07,0,0,1,0-.23c0-.18,0-.4,0-.67,0-.61,0-1.45-.05-2.51,0-2.2-.05-5.3-.09-9.12l.17.18-28.46.06c-.21.22.29-.29.24-.24h0v6.45c0,2.09,0,4.13,0,6.07l-.23-.23,20.36.11,5.93.07,1.6,0,.57,0a3,3,0,0,1-.51,0l-1.55,0-5.88.07-20.52.1h-.23v-.24c0-1.94,0-4,0-6.07V53.91h0l.24-.24,28.46.07h.18v.17c0,3.86-.07,7-.1,9.22,0,1.05,0,1.87,0,2.48A4.43,4.43,0,0,1,473.9,66.43Z" style="fill:#e0e0e0"/><path d="M472.83,239.1a1.17,1.17,0,0,1,0-.23c0-.17,0-.38,0-.64,0-.59,0-1.41,0-2.47,0-2.16,0-5.27-.08-9.19l.15.14-47.37.1.24-.24h0v6.34c0,2.1,0,4.15,0,6.17l-.23-.24,33.76.11,10,.07,2.69,0h.71l.25,0h-.22l-.68,0-2.64,0-9.91.07-33.92.1h-.24v-6.4c0-1,0-2.1,0-3.16v-3.18h0l.25-.25,47.37.1H473v.15c0,4-.07,7.09-.09,9.28q0,1.56,0,2.43l0,.62A1.39,1.39,0,0,1,472.83,239.1Z" style="fill:#e0e0e0"/><path d="M479.25,226.57s0-.09,0-.24,0-.4,0-.67c0-.61,0-1.45,0-2.51,0-2.2-.05-5.3-.09-9.12l.17.18-28.46.06L451,214h0v6.45c0,2.09,0,4.13,0,6.08l-.23-.23,20.36.1,5.93.07,1.6,0,.57,0-.51,0-1.56,0-5.88.07-20.51.11h-.23v-.23c0-1.95,0-4,0-6.08V214h0l.24-.24,28.46.07h.18V214c0,3.86-.08,7-.1,9.23,0,1,0,1.86,0,2.47A6.46,6.46,0,0,1,479.25,226.57Z" style="fill:#e0e0e0"/></g><g id="freepik--Device--inject-16"><path d="M440.78,473.89h-257a12.82,12.82,0,0,1-12.59-13V68a12.81,12.81,0,0,1,12.59-13h257a12.81,12.81,0,0,1,12.6,13V460.86A12.82,12.82,0,0,1,440.78,473.89Z" style="fill:#e0e0e0"/><path d="M440.78,473.89l.9-.06a9.71,9.71,0,0,0,1.1-.14,11.24,11.24,0,0,0,1.5-.35,12.73,12.73,0,0,0,7.68-6.62,13.24,13.24,0,0,0,1.13-3.44,21.05,21.05,0,0,0,.22-4c0-2.83,0-5.94,0-9.3,0-6.72,0-14.47,0-23.2,0-34.93,0-85.46-.08-147.89,0-31.22,0-65.42,0-102.13q0-27.54,0-56.89,0-14.67,0-29.76V74.9c0-2.54,0-5.12,0-7.65a12,12,0,0,0-.75-3.69,12.18,12.18,0,0,0-1.79-3.33,12.46,12.46,0,0,0-6.06-4.4,13.24,13.24,0,0,0-3.76-.59H183.82a12.28,12.28,0,0,0-8,3,12.9,12.9,0,0,0-4.17,7.46,23.61,23.61,0,0,0-.2,4.38V83.39q0,17.64,0,35.05V187c0,44.93,0,88.26,0,129.54s0,80.52,0,117.23q0,13.77,0,27.06a13.66,13.66,0,0,0,1.54,6.25,12.73,12.73,0,0,0,4.32,4.69,11.61,11.61,0,0,0,6,1.91c2.13.06,4.28,0,6.41,0l49,0,147.89.08,40.2.05,10.46,0,3.56,0-3.56,0-10.46,0-40.2.05-147.89.09h-49c-2.13,0-4.26,0-6.43,0a13.1,13.1,0,0,1-3.23-.56,12.93,12.93,0,0,1-3-1.42,13.14,13.14,0,0,1-4.46-4.84A13.89,13.89,0,0,1,171,460.8q0-13.29,0-27.06c0-36.71,0-75.94,0-117.23s0-84.61,0-129.54q0-33.71,0-68.53V70.12a25,25,0,0,1,.22-4.47,13.41,13.41,0,0,1,4.34-7.77,12.76,12.76,0,0,1,8.34-3.15H440.73a14.07,14.07,0,0,1,3.92.61,13,13,0,0,1,6.3,4.58,12.63,12.63,0,0,1,1.85,3.45,12.93,12.93,0,0,1,.78,3.83c.08,2.59,0,5.13,0,7.68V90.08q0,15.09,0,29.76,0,29.32,0,56.89c0,36.71,0,70.91,0,102.13,0,62.43-.06,113-.08,147.89,0,8.73,0,16.48,0,23.2,0,3.36,0,6.47,0,9.3a21.29,21.29,0,0,1-.23,4.05,13.48,13.48,0,0,1-1.16,3.47,12.67,12.67,0,0,1-7.75,6.62,11.53,11.53,0,0,1-1.51.34,7.55,7.55,0,0,1-1.11.12Z" style="fill:#263238"/><path d="M317.2,454.83a12,12,0,1,1-12-11.75A11.85,11.85,0,0,1,317.2,454.83Z" style="fill:#fff"/><path d="M341.19,77.13H283.56a4.09,4.09,0,0,1-4-4.15h0a4.09,4.09,0,0,1,4-4.16h57.63a4.09,4.09,0,0,1,4,4.16h0A4.09,4.09,0,0,1,341.19,77.13Z" style="fill:#263238"/><rect width="264.39" height="349.82" x="179.83" y="84.72" style="fill:#fff"/><path d="M444.23,434.71c0-2.13-.1-142.49-.24-349.83l.24.24-264.36,0h0l.27-.27c0,130.21,0,250.94-.05,349.83l-.22-.22,264.39.22-264.39.21h-.22v-.21c0-98.89,0-219.62,0-349.83v-.26h.29l264.36,0h.24v.24C444.33,292.22,444.23,432.59,444.23,434.71Z" style="fill:#263238"/><path d="M159.55,104.24h51.12a0,0,0,0,1,0,0v35a22.82,22.82,0,0,1-22.82,22.82h-5.47a22.82,22.82,0,0,1-22.82-22.82v-35a0,0,0,0,1,0,0Z" style="fill:#092853"/><path d="M210.26,104.24h51.12a0,0,0,0,1,0,0v35a22.82,22.82,0,0,1-22.82,22.82h-5.47a22.82,22.82,0,0,1-22.82-22.82v-35A0,0,0,0,1,210.26,104.24Z" style="fill:#092853"/><path d="M261,104.24h51.12a0,0,0,0,1,0,0v35a22.82,22.82,0,0,1-22.82,22.82h-5.47A22.82,22.82,0,0,1,261,139.24v-35A0,0,0,0,1,261,104.24Z" style="fill:#092853"/><path d="M311.69,104.24h51.1a0,0,0,0,1,0,0v35A22.82,22.82,0,0,1,340,162.06h-5.47a22.82,22.82,0,0,1-22.82-22.82v-35A0,0,0,0,1,311.69,104.24Z" style="fill:#092853"/><path d="M362.4,104.24h51.12a0,0,0,0,1,0,0v35a22.82,22.82,0,0,1-22.82,22.82h-5.47a22.82,22.82,0,0,1-22.82-22.82v-35A0,0,0,0,1,362.4,104.24Z" style="fill:#092853"/><path d="M440.59,162.06h-3.85a23.63,23.63,0,0,1-23.63-23.63V104.24l51.11.1v34.09A23.63,23.63,0,0,1,440.59,162.06Z" style="fill:#092853"/><g style="opacity:.30000000000000004"><path d="M210.26,104.24h51.12a0,0,0,0,1,0,0v35a22.82,22.82,0,0,1-22.82,22.82h-5.47a22.82,22.82,0,0,1-22.82-22.82v-35A0,0,0,0,1,210.26,104.24Z" style="fill:#fff"/></g><g style="opacity:.30000000000000004"><path d="M311.69,104.24h51.1a0,0,0,0,1,0,0v35A22.82,22.82,0,0,1,340,162.06h-5.47a22.82,22.82,0,0,1-22.82-22.82v-35A0,0,0,0,1,311.69,104.24Z" style="fill:#fff"/></g><g style="opacity:.30000000000000004"><path d="M440.59,162.06h-3.85a23.63,23.63,0,0,1-23.63-23.63V104.24l51.11.1v34.09A23.63,23.63,0,0,1,440.59,162.06Z" style="fill:#fff"/></g><path d="M210.67,103.6c.14,0,.26,9,.26,20s-.12,20-.26,20-.27-9-.27-20S210.52,103.6,210.67,103.6Z" style="fill:#263238"/><path d="M261.38,103.6c.15,0,.27,9,.27,20s-.12,20-.27,20-.27-9-.27-20S261.23,103.6,261.38,103.6Z" style="fill:#263238"/><path d="M312.09,103.6c.15,0,.27,9,.27,20s-.12,20-.27,20-.27-9-.27-20S311.94,103.6,312.09,103.6Z" style="fill:#263238"/><path d="M362.8,103.6c.15,0,.27,9,.27,20s-.12,20-.27,20-.27-9-.27-20S362.65,103.6,362.8,103.6Z" style="fill:#263238"/><path d="M413.51,103.6c.15,0,.27,9,.27,20s-.12,20-.27,20-.26-9-.26-20S413.37,103.6,413.51,103.6Z" style="fill:#263238"/><polygon points="464.22 104.34 444.42 84.88 179.93 84.88 159.55 104.34 464.22 104.34" style="fill:#092853"/><g style="opacity:.30000000000000004"><polygon points="211.26 104.24 222.54 84.63 259.38 84.63 261.97 104.24 211.26 104.24" style="fill:#fff"/></g><g style="opacity:.30000000000000004"><polygon points="312.48 104.42 312.97 84.81 351.64 84.81 363.19 104.42 312.48 104.42" style="fill:#fff"/></g><g style="opacity:.30000000000000004"><polygon points="413.9 104.42 405.7 84.81 444.83 84.64 464.82 104.34 413.9 104.42" style="fill:#fff"/></g><path d="M458.88,103.24c0,.14-66.36.33-148.2.4s-148.22,0-148.22-.13,66.35-.33,148.22-.4S458.88,103.09,458.88,103.24Z" style="fill:#263238"/><path d="M381.67,325.7s4.23-7.89,5.95-7.89c0,0,6,2.67,9.37,11.2h3s1.65-6.8,9.63-10.45c0,0,4.44,8.21,4.6,8.13a16.11,16.11,0,0,1-10.25,4.17c-6.41.26-15.71-.44-15.71-.44S382.6,328,381.67,325.7Z" style="fill:#e0e0e0"/><g style="opacity:.30000000000000004"><path d="M401.48,330.13s6.75-3.79,12.16-3.37C413.64,326.76,407.3,332,401.48,330.13Z"/></g><g style="opacity:.30000000000000004"><path d="M382.33,325.65s8.66.59,13.15,4.78C395.48,330.43,387.18,331.3,382.33,325.65Z"/></g><rect width="57.45" height="93.64" x="370.62" y="329.31" style="fill:#092853"/><path d="M403.18,337.19a1.23,1.23,0,1,0,1.23-1.13A1.19,1.19,0,0,0,403.18,337.19Z" style="fill:#fff"/><path d="M409.35,350.79a1.23,1.23,0,1,0,1.23-1.14A1.19,1.19,0,0,0,409.35,350.79Z" style="fill:#fff"/><path d="M404.43,364.26a1.23,1.23,0,1,0,1.23-1.13A1.18,1.18,0,0,0,404.43,364.26Z" style="fill:#fff"/><path d="M385.86,357.3a1.23,1.23,0,1,0,1.23-1.13A1.18,1.18,0,0,0,385.86,357.3Z" style="fill:#fff"/><path d="M395.47,348.53a1.23,1.23,0,1,0,1.23-1.13A1.18,1.18,0,0,0,395.47,348.53Z" style="fill:#fff"/><path d="M386.38,337.21a1.23,1.23,0,1,0,1.23-1.14A1.19,1.19,0,0,0,386.38,337.21Z" style="fill:#fff"/><path d="M372.81,351.94a1.23,1.23,0,1,0,1.23-1.13A1.19,1.19,0,0,0,372.81,351.94Z" style="fill:#fff"/><path d="M374.05,367.58a1.23,1.23,0,1,0,1.23-1.14A1.19,1.19,0,0,0,374.05,367.58Z" style="fill:#fff"/><path d="M374.06,383.53a1.23,1.23,0,1,0,1.23-1.13A1.18,1.18,0,0,0,374.06,383.53Z" style="fill:#fff"/><path d="M372.85,416.15a1.23,1.23,0,0,0,2.46,0,1.23,1.23,0,0,0-2.46,0Z" style="fill:#fff"/><path d="M371.61,399.29a1.23,1.23,0,0,0,2.46,0,1.23,1.23,0,0,0-2.46,0Z" style="fill:#fff"/><path d="M405.68,388.66a1.23,1.23,0,1,0,1.23-1.14A1.19,1.19,0,0,0,405.68,388.66Z" style="fill:#fff"/><path d="M395.49,382.15a1.23,1.23,0,1,0,1.23-1.13A1.18,1.18,0,0,0,395.49,382.15Z" style="fill:#fff"/><path d="M422.85,363.12a1.23,1.23,0,1,0,1.23-1.14A1.19,1.19,0,0,0,422.85,363.12Z" style="fill:#fff"/><path d="M387.13,413.88a1.23,1.23,0,0,0,2.46,0,1.23,1.23,0,0,0-2.46,0Z" style="fill:#fff"/><path d="M421.65,410.42a1.23,1.23,0,0,0,2.46,0,1.23,1.23,0,0,0-2.46,0Z" style="fill:#fff"/><path d="M421.61,349.65a1.23,1.23,0,1,0,1.23-1.14A1.19,1.19,0,0,0,421.61,349.65Z" style="fill:#fff"/><path d="M405.69,403.93a1.23,1.23,0,1,0,1.23-1.14A1.19,1.19,0,0,0,405.69,403.93Z" style="fill:#fff"/><path d="M422.87,390.91a1.23,1.23,0,1,0,1.23-1.13A1.18,1.18,0,0,0,422.87,390.91Z" style="fill:#fff"/><path d="M400.77,416.13A1.23,1.23,0,1,0,402,415,1.19,1.19,0,0,0,400.77,416.13Z" style="fill:#fff"/><path d="M419.18,402.11a1.23,1.23,0,1,0,1.23-1.13A1.18,1.18,0,0,0,419.18,402.11Z" style="fill:#fff"/><path d="M420.4,379a1.23,1.23,0,1,0,1.23-1.14A1.19,1.19,0,0,0,420.4,379Z" style="fill:#fff"/><path d="M385.88,384.66a1.23,1.23,0,1,0,1.23-1.14A1.19,1.19,0,0,0,385.88,384.66Z" style="fill:#fff"/><path d="M388.64,397.15a1.23,1.23,0,1,0,1.23-1.14A1.19,1.19,0,0,0,388.64,397.15Z" style="fill:#fff"/><path d="M392,368.7a1.24,1.24,0,1,0,1.24-1.14A1.19,1.19,0,0,0,392,368.7Z" style="fill:#fff"/><path d="M372.8,334.57a1.23,1.23,0,1,0,1.23-1.13A1.19,1.19,0,0,0,372.8,334.57Z" style="fill:#fff"/><path d="M422.83,338.31a1.24,1.24,0,1,0,1.23-1.13A1.2,1.2,0,0,0,422.83,338.31Z" style="fill:#fff"/><rect width="57.45" height="2.97" x="370.62" y="374.1" style="fill:#e0e0e0"/><rect width="2.77" height="93.65" x="380.9" y="329.32" style="fill:#e0e0e0"/><rect width="2.77" height="93.65" x="410.44" y="329.3" style="fill:#e0e0e0"/><g style="opacity:.30000000000000004"><rect width="32.42" height="93.64" x="395.65" y="329.3"/></g><polygon points="409.35 349.79 403.01 351.92 399.5 341.47 401.79 338.71 405.83 339.34 409.35 349.79" style="fill:#fff"/><path d="M409.35,349.79a4.65,4.65,0,0,1-.33-.8c-.21-.58-.48-1.29-.79-2.15-.67-1.84-1.58-4.4-2.62-7.42l.19.16-4.05-.61.23-.09-2,2.37-.32.39.05-.25c1.31,4,2.5,7.58,3.46,10.46l-.26-.12c1.91-.62,3.49-1.1,4.6-1.44s1.76-.52,1.8-.5a13.87,13.87,0,0,1-1.62.64c-1.08.4-2.67,1-4.65,1.68l-.19.06-.07-.19-3.57-10.43,0-.13.09-.12.32-.38,2-2.37.09-.11.15,0,4,.64.15,0,0,.13c1,3.14,1.87,5.8,2.45,7.65.26.85.48,1.56.65,2.14A3.55,3.55,0,0,1,409.35,349.79Z" style="fill:#263238"/><path d="M402.66,339.56a2.71,2.71,0,0,1-1.6-.65,6.67,6.67,0,0,1-2.37-3.41,12.42,12.42,0,0,1-.47-4.11,5,5,0,0,1,.2-1.69,6.18,6.18,0,0,1,.17,1.69,15.67,15.67,0,0,0,.6,3.95,7.06,7.06,0,0,0,2.1,3.28C402.06,339.28,402.69,339.48,402.66,339.56Z" style="fill:#263238"/><path d="M398.42,329.7a2.3,2.3,0,0,1,1.63.32,4.28,4.28,0,0,1,1.37,1.22,8.15,8.15,0,0,1,1,2c1.07,3,.64,5.6.47,5.55a20.57,20.57,0,0,0-1-5.37,8.82,8.82,0,0,0-.93-1.87,4.37,4.37,0,0,0-1.17-1.18A12.28,12.28,0,0,0,398.42,329.7Z" style="fill:#263238"/><path d="M405.24,347.3l.25.71-.64.22-.23-.69a3.18,3.18,0,0,1-1.75,0l.08-.89a2.79,2.79,0,0,0,1.38,0l-.37-1c-.76.07-1.62.11-1.93-.8a1.51,1.51,0,0,1,1-1.87l-.24-.7.63-.22.24.69a3,3,0,0,1,1.41-.06l0,.89a2.8,2.8,0,0,0-1.08,0l.37,1.08c.76-.08,1.61-.11,1.92.78A1.52,1.52,0,0,1,405.24,347.3Zm-1.6-2.57-.31-.9c-.31.19-.38.42-.3.63S403.33,344.74,403.64,344.73Zm1.62,1.14c-.08-.22-.3-.27-.61-.27l.3.87C405.24,346.29,405.33,346.08,405.26,345.87Z" style="fill:#e0e0e0"/><path d="M227.3,301.28a6.13,6.13,0,0,1-1.4-1c-.85-.67-2.08-1.66-3.53-3a46.16,46.16,0,0,1-4.78-4.91,10.32,10.32,0,0,1-2.08-3.63,4.37,4.37,0,0,1,1-4.46,2.54,2.54,0,0,1,2.48-.51,4.24,4.24,0,0,1,2,1.25,19.24,19.24,0,0,1,2.54,3.23,26.65,26.65,0,0,1,2.89,6.25,27.91,27.91,0,0,1,1,4.51,5.07,5.07,0,0,1,.1,1.69c-.16,0-.46-2.37-1.76-6a29.22,29.22,0,0,0-3-6,19.89,19.89,0,0,0-2.47-3.05c-.82-.94-2.33-1.51-3.19-.7a3.55,3.55,0,0,0-.76,3.55,9.9,9.9,0,0,0,1.87,3.32,54.47,54.47,0,0,0,4.57,5C225.6,299.57,227.4,301.17,227.3,301.28Z" style="fill:#e0e0e0"/><path d="M227,301.28c-.1-.11,1.68-1.7,4.24-4.57,1.26-1.42,2.79-3.17,4.37-5.12a8.53,8.53,0,0,0,1.68-3.38c.28-1.23.36-2.82-.54-3.55-.33-.27-1.05-.16-1.64.07a6.21,6.21,0,0,0-1.69,1,14.29,14.29,0,0,0-2.47,2.95,24.75,24.75,0,0,0-2.65,6.09c-1.07,3.67-1.39,6.05-1.55,6a5.68,5.68,0,0,1,.08-1.68,35.26,35.26,0,0,1,.84-4.52,23.3,23.3,0,0,1,2.56-6.36,14.79,14.79,0,0,1,2.61-3.2,7.26,7.26,0,0,1,1.94-1.15,2.67,2.67,0,0,1,2.54.06,3.13,3.13,0,0,1,1.06,2.25,7.42,7.42,0,0,1-.21,2.23,9.15,9.15,0,0,1-1.89,3.7c-1.66,2-3.21,3.65-4.57,5.05a44.67,44.67,0,0,1-3.34,3.14A6,6,0,0,1,227,301.28Z" style="fill:#e0e0e0"/><rect width="64.49" height="105.12" x="194.88" y="299.01" style="fill:#ebebeb"/><rect width="36.39" height="105.12" x="222.98" y="299.01" style="fill:#e0e0e0"/><path d="M259.37,299s-.18.28-.58.78L257,302c-1.51,1.9-3.76,4.59-6.58,7.89-5.62,6.61-13.6,15.56-22.63,25.25S210.5,353.44,204.5,359.7l-7.12,7.41-2,2c-.45.46-.7.67-.7.67s.2-.27.62-.74l1.88-2.07,7-7.53,23.22-24.7c9-9.68,17-18.58,22.74-25.12l6.71-7.78,1.82-2.11C259.13,299.24,259.37,299,259.37,299Z" style="fill:#fff"/><path d="M259.06,322.14c.11.11-14.17,15.55-31.89,34.49S195,390.85,194.88,390.75s14.17-15.55,31.89-34.5S258.94,322,259.06,322.14Z" style="fill:#fff"/><path d="M259.64,342.64c.11.11-12.76,14-28.76,30.93s-29,30.66-29.16,30.55,12.76-13.95,28.76-30.93S259.53,342.53,259.64,342.64Z" style="fill:#fff"/><path d="M259.06,364.25c.11.1-8.32,9.2-18.83,20.33S221.1,404.63,221,404.53s8.32-9.21,18.83-20.34S258.94,364.14,259.06,364.25Z" style="fill:#fff"/><path d="M259.06,385.1a25.15,25.15,0,0,1-2.32,3c-1.49,1.78-3.58,4.22-6,6.86-4.7,5.27-8.91,9.36-9.25,8.84.17.26,4.12-3.94,8.84-9.22q3.36-3.72,6.07-6.74A27.14,27.14,0,0,1,259.06,385.1Z" style="fill:#fff"/><path d="M238.82,299c.11.1-9.63,10.95-21.76,24.22s-22.06,24-22.18,23.86,9.63-10.95,21.77-24.23S238.7,298.9,238.82,299Z" style="fill:#fff"/><path d="M218.51,298.73c.12.1-5.08,6-11.61,13.12s-11.9,12.85-12,12.74,5.09-6,11.61-13.12S218.4,298.63,218.51,298.73Z" style="fill:#fff"/><path d="M200.8,299a27.73,27.73,0,0,1-5.92,5.24,14.19,14.19,0,0,1,2.78-2.83A13.91,13.91,0,0,1,200.8,299Z" style="fill:#fff"/><path d="M195,299s.24.23.66.71l1.83,2.11,6.71,7.78c5.7,6.54,13.72,15.44,22.74,25.12l23.21,24.7,7,7.53L259,369c.43.47.63.74.63.74a9.35,9.35,0,0,1-.71-.67l-1.95-2c-1.78-1.85-4.19-4.35-7.12-7.41-6-6.26-14.3-14.91-23.34-24.59s-17-18.64-22.63-25.25c-2.81-3.3-5.06-6-6.58-7.89l-1.75-2.18C195.17,299.29,195,299,195,299Z" style="fill:#fff"/><path d="M195.3,322.14c.11-.1,14.57,15.17,32.29,34.11s32,34.39,31.88,34.5-14.57-15.17-32.29-34.12S195.19,322.25,195.3,322.14Z" style="fill:#fff"/><path d="M194.72,342.64c.11-.11,13.16,13.57,29.16,30.55s28.86,30.83,28.75,30.93-13.16-13.57-29.16-30.55S194.6,342.74,194.72,342.64Z" style="fill:#fff"/><path d="M195.3,364.25c.11-.11,8.72,8.82,19.23,19.94s18.94,20.23,18.83,20.34-8.72-8.83-19.23-19.95S195.19,364.35,195.3,364.25Z" style="fill:#fff"/><path d="M195.3,385.1a26.52,26.52,0,0,1,2.61,2.71l6.07,6.74c4.72,5.28,8.68,9.48,8.85,9.22-.35.52-4.55-3.57-9.26-8.84-2.37-2.64-4.46-5.08-5.95-6.86A23.86,23.86,0,0,1,195.3,385.1Z" style="fill:#fff"/><path d="M215.54,299c.11-.11,10,10.57,22.17,23.85s21.87,24.13,21.76,24.23-10-10.57-22.17-23.86S215.43,299.11,215.54,299Z" style="fill:#fff"/><path d="M235.84,298.73c.11-.1,5.5,5.6,12,12.74s11.72,13,11.61,13.12-5.49-5.6-12-12.74S235.73,298.83,235.84,298.73Z" style="fill:#fff"/><path d="M253.56,299a13.91,13.91,0,0,1,3.14,2.41,14.3,14.3,0,0,1,2.77,2.83,28,28,0,0,1-5.91-5.24Z" style="fill:#fff"/><rect width="64.49" height="3.33" x="194.88" y="349.28" style="fill:#e0e0e0"/><rect width="3.11" height="105.12" x="206.42" y="299.01" style="fill:#e0e0e0"/><rect width="3.11" height="105.12" x="239.59" y="299.01" style="fill:#ebebeb"/><path d="M311.82,325c-.06,0-.12-.86-.42-2.38a29.68,29.68,0,0,0-1.9-6.25,23.8,23.8,0,0,0-5.41-7.94,15.1,15.1,0,0,0-21.22-.07,23.88,23.88,0,0,0-5.44,7.91,29.35,29.35,0,0,0-1.92,6.25c-.3,1.52-.37,2.38-.43,2.37a2.9,2.9,0,0,1,0-.62,16.91,16.91,0,0,1,.19-1.79,27.14,27.14,0,0,1,1.77-6.37,23.61,23.61,0,0,1,5.46-8.14,15.5,15.5,0,0,1,21.95.07,23.68,23.68,0,0,1,5.42,8.17,26.81,26.81,0,0,1,1.74,6.37,17.18,17.18,0,0,1,.19,1.79A2.36,2.36,0,0,1,311.82,325Z" style="fill:#e0e0e0"/><path d="M318.16,325c-.06,0-.12-.86-.42-2.38a29.09,29.09,0,0,0-1.9-6.25,23.91,23.91,0,0,0-5.4-7.94,15.1,15.1,0,0,0-21.22-.07,23.77,23.77,0,0,0-5.45,7.91,30,30,0,0,0-1.92,6.25c-.3,1.52-.36,2.38-.43,2.37a2.64,2.64,0,0,1,0-.62,16.91,16.91,0,0,1,.19-1.79,27,27,0,0,1,1.76-6.37,23.75,23.75,0,0,1,5.46-8.14,15.51,15.51,0,0,1,22,.07,23.64,23.64,0,0,1,5.41,8.17,27.41,27.41,0,0,1,1.75,6.37,17.18,17.18,0,0,1,.19,1.79A2.57,2.57,0,0,1,318.16,325Z" style="fill:#e0e0e0"/><polygon points="256.93 322.73 328.57 322.18 330.13 419.84 249.74 419.84 256.93 322.73" style="fill:#ebebeb"/><polygon points="328.57 322.18 337.56 322.18 345.31 419.84 330.13 419.84 328.57 322.18" style="fill:#e0e0e0"/><rect width="46.9" height="7.86" x="266.48" y="360.63" style="fill:#fff"/><path d="M269.77,360.37a32.07,32.07,0,0,0-2-7.22,19.75,19.75,0,0,0-4.53-6.62,12.59,12.59,0,0,0-17.71-.06,20,20,0,0,0-4.56,6.61,32.28,32.28,0,0,0-2,7.2,1.72,1.72,0,0,1,0-.52c0-.35.06-.85.16-1.5a22.38,22.38,0,0,1,1.46-5.35,20,20,0,0,1,4.57-6.83,13,13,0,0,1,18.45.06,19.64,19.64,0,0,1,4.54,6.85,22.27,22.27,0,0,1,1.45,5.35,12.59,12.59,0,0,1,.15,1.5A1.78,1.78,0,0,1,269.77,360.37Z" style="fill:#263238"/><path d="M275.08,360.37a32.31,32.31,0,0,0-2-7.22,20.05,20.05,0,0,0-4.53-6.62,12.59,12.59,0,0,0-17.71-.06,19.74,19.74,0,0,0-4.56,6.61,31.61,31.61,0,0,0-2,7.2,1.72,1.72,0,0,1,0-.52,12.4,12.4,0,0,1,.15-1.5,22,22,0,0,1,1.47-5.35,19.7,19.7,0,0,1,4.57-6.83,13,13,0,0,1,18.45.06,19.93,19.93,0,0,1,4.54,6.85,22.76,22.76,0,0,1,1.45,5.35,14.52,14.52,0,0,1,.14,1.5A1.78,1.78,0,0,1,275.08,360.37Z" style="fill:#263238"/><polygon points="221.13 357.24 281.14 356.88 282.45 422.02 215.11 422.02 221.13 357.24" style="fill:#455a64"/><polygon points="281.14 356.88 288.68 356.88 295.16 422.02 282.45 422.02 281.14 356.88" style="fill:#263238"/><rect width="39.29" height="6.58" x="231.62" y="379" style="fill:#fff"/><rect width="138.95" height="32.24" x="259.92" y="389.42" style="fill:#092853"/><rect width="138.6" height="4.82" x="260.1" y="404.65" style="fill:#fff"/><rect width="4.09" height="32.26" x="359.11" y="389.4" style="fill:#fff"/><rect width="4.09" height="32.26" x="283.39" y="389.4" style="fill:#fff"/><g style="opacity:.30000000000000004"><rect width="71.17" height="32.24" x="327.7" y="389.42"/></g><path d="M335.27,283.08s-15.87.91-17.15,3.69c0,0-.21,11.68,11,23.45L326.93,315v7.79c5.21-10.12,11.05-25.63,11.05-25.63S338.22,286.28,335.27,283.08Z" style="fill:#092853"/><g style="opacity:.30000000000000004"><path d="M334.71,284.11s-5.55,14.39-2.15,24.75C332.56,308.86,340.17,296.14,334.71,284.11Z"/></g><path d="M359.66,302.45s-7.36-14.09-10.42-14.12c0,0-10.73,4.62-16.84,19.7l-5.27,0s-2.81-12.11-16.91-18.76c0,0-8,14.5-8.32,14.36A28.73,28.73,0,0,0,320,311.17c11.37.6,27.9-.47,27.9-.47S358,306.46,359.66,302.45Z" style="fill:#092853"/><g style="opacity:.30000000000000004"><path d="M324.39,309.94s-11.9-6.87-21.52-6.23C302.87,303.71,314,313.1,324.39,309.94Z"/></g><g style="opacity:.30000000000000004"><path d="M358.49,302.36s-15.39.87-23.44,8.22C335.05,310.58,349.77,312.29,358.49,302.36Z"/></g><polygon points="375.19 309.95 374.67 389.77 283.73 389.9 283.73 310.11 375.19 309.95" style="fill:#263238"/><path d="M318.14,310.08a2,2,0,0,1-.31.41c-.26.3-.58.66-1,1.11-.91,1-2.13,2.36-3.61,4-3.06,3.38-7.32,8-12.05,13.11s-9,9.7-12.17,13l-3.73,3.9-1,1c-.24.24-.37.35-.39.34a2.73,2.73,0,0,1,.31-.41c.26-.3.58-.66,1-1.11.91-1,2.13-2.36,3.61-4,3.07-3.38,7.33-8,12.06-13.11s9-9.7,12.16-13c1.54-1.6,2.8-2.92,3.73-3.9l1-1C318,310.18,318.13,310.06,318.14,310.08Z" style="fill:#fff"/><path d="M300.85,310a3.53,3.53,0,0,1-.6.79c-.42.49-1,1.19-1.8,2-1.54,1.71-3.69,4-6.08,6.59s-4.53,4.9-6.11,6.56c-.8.83-1.44,1.5-1.9,1.95s-.72.69-.75.66a4.59,4.59,0,0,1,.6-.8c.41-.49,1-1.2,1.77-2.06,1.52-1.72,3.63-4.08,6-6.66s4.59-4.85,6.19-6.49c.8-.82,1.46-1.48,1.92-1.92A3.67,3.67,0,0,1,300.85,310Z" style="fill:#fff"/><path d="M336.27,310.08a5.29,5.29,0,0,1-.5.61l-1.49,1.68-5.55,6.1-18.46,20L291.7,358.41c-2.37,2.5-4.3,4.54-5.67,6-.65.67-1.17,1.21-1.57,1.61a3.75,3.75,0,0,1-.57.54,5.29,5.29,0,0,1,.5-.61l1.49-1.68,5.55-6.11,18.46-20c7.24-7.76,13.79-14.78,18.57-19.92l5.67-6,1.57-1.62A3.3,3.3,0,0,1,336.27,310.08Z" style="fill:#fff"/><path d="M354.47,310.08a8.7,8.7,0,0,0-.76.75l-2.09,2.26c-1.8,2-4.38,4.92-7.54,8.46l-24.72,28.09c-9.64,11-18.37,20.88-24.71,28.1l-7.52,8.49-2.06,2.29-.55.59-.2.19s.05-.08.16-.23l.51-.62,2-2.35,7.39-8.6c6.26-7.25,14.95-17.23,24.59-28.21s18.42-20.87,24.84-28c3.21-3.55,5.83-6.41,7.68-8.35S354.4,310,354.47,310.08Z" style="fill:#fff"/><path d="M374.28,310a8.38,8.38,0,0,0-.78.75L371.39,313l-7.67,8.51L338.6,349.72,313.49,378l-7.63,8.53-2.1,2.3-.55.59c-.13.14-.2.2-.21.19a2.08,2.08,0,0,1,.17-.22l.51-.63,2-2.36,7.52-8.65c6.36-7.28,15.19-17.31,25-28.35s18.72-21,25.24-28.13c3.26-3.57,5.92-6.44,7.79-8.39A18.26,18.26,0,0,1,374.28,310Z" style="fill:#fff"/><path d="M375.19,333.76a1.54,1.54,0,0,0-.15.12c-.09.08-.23.21-.4.39-.35.36-.85.9-1.49,1.6-1.28,1.4-3.11,3.44-5.35,6l-17.47,19.92c-6.81,7.77-13,14.81-17.46,20l-5.32,6-1.47,1.62a5.65,5.65,0,0,1-.53.55,2.86,2.86,0,0,1,.45-.61l1.39-1.69,5.2-6.12c4.41-5.16,10.53-12.25,17.34-20.05s13-14.8,17.59-19.82S375,333.56,375.19,333.76Z" style="fill:#fff"/><path d="M374.89,355.76c.11.09-6.58,7.83-14.93,17.27s-15.21,17-15.32,16.93,6.58-7.83,14.93-17.27S374.78,355.66,374.89,355.76Z" style="fill:#fff"/><rect width="6.8" height="79.95" x="317" y="309.95" transform="translate(-0.61 0.56) rotate(-0.1)" style="fill:#092853"/><rect width="91.13" height="5.41" x="283.89" y="346.76" style="fill:#092853"/><polygon points="366.6 309.93 366.64 389.78 361.82 389.79 361.68 309.94 366.6 309.93" style="fill:#092853"/><g style="opacity:.30000000000000004"><polygon points="351.16 309.99 351.3 389.9 374.67 389.77 375.19 309.95 351.16 309.99"/></g><path d="M351.29,389c-.14,0-.26-17.63-.26-39.38s.12-39.39.26-39.39.26,17.63.26,39.39S351.44,389,351.29,389Z" style="fill:#455a64"/><polygon points="332.62 331.16 326.28 333.29 322.77 322.85 325.06 320.09 329.1 320.71 332.62 331.16" style="fill:#fff"/><path d="M332.62,331.16a4.74,4.74,0,0,1-.33-.79c-.21-.58-.48-1.3-.79-2.16-.67-1.83-1.59-4.39-2.62-7.42l.19.16-4.05-.61.23-.09-2,2.38L323,323l0-.25c1.3,4,2.5,7.59,3.45,10.47l-.25-.13c1.91-.61,3.48-1.09,4.6-1.43s1.76-.52,1.8-.51a12.52,12.52,0,0,1-1.62.65c-1.08.4-2.67,1-4.65,1.68l-.19.06-.07-.19-3.57-10.43,0-.14.1-.11c.1-.13.21-.25.32-.38.67-.82,1.33-1.61,2-2.37l.09-.12.14,0,4.05.64.14,0,.05.14c1,3.14,1.87,5.8,2.45,7.65.26.85.47,1.56.65,2.14A5.17,5.17,0,0,1,332.62,331.16Z" style="fill:#263238"/><path d="M325.93,320.94a2.69,2.69,0,0,1-1.6-.65,6.62,6.62,0,0,1-2.37-3.41,12.21,12.21,0,0,1-.47-4.11,5.12,5.12,0,0,1,.2-1.7,6.34,6.34,0,0,1,.17,1.69,16.08,16.08,0,0,0,.59,4,7.15,7.15,0,0,0,2.11,3.28C325.33,320.66,326,320.85,325.93,320.94Z" style="fill:#263238"/><path d="M321.69,311.07a2.27,2.27,0,0,1,1.63.33,4.27,4.27,0,0,1,1.37,1.22,8,8,0,0,1,1,2c1.07,3,.64,5.6.47,5.55a20.57,20.57,0,0,0-1-5.37,8.82,8.82,0,0,0-.93-1.87,4.52,4.52,0,0,0-1.17-1.18C322.33,311.19,321.68,311.18,321.69,311.07Z" style="fill:#263238"/><path d="M328.51,328.68l.24.7-.63.22-.24-.69a3.14,3.14,0,0,1-1.74,0l.08-.89a2.67,2.67,0,0,0,1.38,0l-.37-1.06c-.76.07-1.62.11-1.93-.79a1.51,1.51,0,0,1,1-1.87l-.24-.7.63-.22.24.69a3,3,0,0,1,1.41-.06l0,.88a2.79,2.79,0,0,0-1.08,0l.37,1.07c.76-.08,1.61-.11,1.92.78C329.74,327.48,329.46,328.21,328.51,328.68Zm-1.6-2.58-.31-.89c-.31.19-.38.42-.3.63S326.6,326.11,326.91,326.1Zm1.62,1.15c-.08-.22-.31-.28-.61-.28l.3.87C328.51,327.66,328.6,327.45,328.53,327.25Z" style="fill:#e0e0e0"/><polygon points="414.26 186.57 411.11 239.94 328.76 239.78 327.72 186.41 414.26 186.57" style="fill:#ebebeb"/><path d="M412,200.92s0,0,0,0l-1.25.75.79-1.21h0l-3-.61,2.93-.77.08,0-.68-1.23,1.11.78,0,0,.71-3,.66,3a.48.48,0,0,0,.09.14l.1,0-.07,1.18v.08l-.07,1.19-.06,0-.67,3.09Z" style="fill:#fff"/><path d="M407.2,227.59l2.93-.76s0,0,.07-.05l-.68-1.22,1.12.78,0-.05.7-3,.57,2.53,0,.7-.12,2.06-.11,1.78-.31,1.47-.7-3.15,0,0-1.24.74.78-1.21h0Z" style="fill:#fff"/><path d="M396.33,238.49l-.68-1.22,1.12.78,0,0,.7-3,.67,3a1.1,1.1,0,0,0,.09.14l1.29-.69-.81,1.09,3,.77-3.07.6h-2.4l-2.95-.6,2.93-.77Z" style="fill:#fff"/><path d="M389,204.12h0l-3-.61,2.93-.76s0,0,.07-.05l-.67-1.22,1.11.77,0,0,.71-3,.66,3a.75.75,0,0,0,.09.15l1.29-.69-.8,1.09,3,.77-3.07.59-.1.07.8,1.38-1.22-.86-.67,3.08-.7-3.15s0,0,0,0l-1.25.74Z" style="fill:#fff"/><path d="M376.56,188.33l-3-.61,2.93-.77s.05,0,.08,0l-.23-.41h2.12s0,0,0,.07l.12-.07h.71L379,187l3,.77-3.07.59-.1.07.81,1.38-1.23-.87-.67,3.09-.7-3.16,0,0-1.24.75.78-1.21Z" style="fill:#fff"/><path d="M372.41,216.11l2.93-.77.08,0-.68-1.23,1.11.78,0,0,.71-3,.66,3a1.1,1.1,0,0,0,.09.14l1.3-.69-.81,1.09,3,.77-3.07.6a.33.33,0,0,0-.1.06l.8,1.38-1.22-.86-.67,3.09-.7-3.16s0,0,0,0l-1.25.74.78-1.2v0Z" style="fill:#fff"/><path d="M329.27,237.74l.7-3,.67,3a.75.75,0,0,0,.09.15l1.29-.69-.81,1.09,3,.77-3.07.59-.1.07,0,.07h-2.33v-.09l0,0h0l0-1.38s0,0,.07,0l-.08-.15v-.67l.53.37Z" style="fill:#fff"/><path d="M351.89,211.58l-3-.61,2.93-.76.08-.05-.68-1.22,1.12.77s0,0,0,0l.71-3,.67,3a.44.44,0,0,0,.08.15l1.3-.69-.81,1.09,3,.77-3.07.59-.1.07L355,213l-1.23-.86-.67,3.09-.7-3.16a.05.05,0,0,0,0,0l-1.24.74.78-1.21Z" style="fill:#fff"/><path d="M329.11,203.72l.71-3,.66,3a.48.48,0,0,0,.09.14l1.29-.69-.8,1.09,3,.78-3.07.59s-.07.05-.1.06l.8,1.39-1.22-.87-.67,3.09-.7-3.16s0,0,0,0l-1,.58v-.26l.5-.78h0l-.51-.11,0-1.14.5-.13.07,0-.6-1.09V203l1,.73Z" style="fill:#fff"/><path d="M331,188.24l-3-.61,2.93-.77s0,0,.08,0l-.23-.41H333a.15.15,0,0,0,0,.07l.12-.06h.71l-.34.46,3,.77-3.07.59-.1.07.81,1.38-1.23-.86-.67,3.08-.7-3.15a.05.05,0,0,0,0,0l-1.24.74.78-1.21Z" style="fill:#fff"/><path d="M370.36,235l2.93-.77.08,0-.68-1.23,1.11.78,0,0,.71-3,.66,3a1.1,1.1,0,0,0,.09.14l1.3-.69-.81,1.09,3,.78-3.07.59s-.06,0-.1.06l.8,1.38-1.22-.86-.67,3.09-.7-3.16s0,0,0,0l-1.25.75.79-1.21,0,0Z" style="fill:#fff"/><path d="M386.09,225.83l2.93-.77.08,0-.68-1.23,1.12.78s0,0,0,0l.71-3,.67,3a.5.5,0,0,0,.08.14l1.3-.69-.81,1.09,3,.78-3.07.59s-.06,0-.1.06l.81,1.38-1.23-.86-.67,3.09-.7-3.16,0,0-1.24.75.78-1.21,0,0Z" style="fill:#fff"/><path d="M400.61,212.7l-2.19-.45,2.17-.56.05,0-.5-.9.83.57,0,0,.52-2.19.49,2.19s.05.07.07.11l.95-.51-.59.81,2.22.57-2.27.44s-.05,0-.08,0l.6,1-.91-.63-.49,2.28-.52-2.34s0,0,0,0l-.92.55.58-.89Z" style="fill:#fff"/><path d="M369.9,200.74l-2.26.44-.08,0,.6,1-.91-.63-.49,2.28-.52-2.33,0,0-.92.55.58-.9a0,0,0,0,1,0,0l-2.19-.44,2.17-.57s0,0,0,0l-.5-.91.83.58s0,0,0,0l.52-2.19.49,2.2a.33.33,0,0,0,.06.1l1-.51-.6.81Z" style="fill:#fff"/><path d="M343.75,196.19l-.5-.9.82.57,0,0,.52-2.19.5,2.19a.6.6,0,0,0,.06.11l1-.51-.6.8,2.22.57-2.27.44s-.05,0-.07,0l.59,1-.91-.64L344.6,200l-.51-2.34,0,0-.92.55.58-.89h0l-2.18-.45,2.16-.57Z" style="fill:#fff"/><path d="M355.88,188.61a.18.18,0,0,0-.07,0l.59,1-.9-.64-.5,2.28-.51-2.33,0,0-.92.55.58-.89h0l-2.18-.45,2.16-.57s0,0,.06,0l-.5-.91.82.58s0,0,0,0l.18-.74h.67l.17.74a.6.6,0,0,0,.06.11l1-.51-.6.8,2.22.57Z" style="fill:#fff"/><path d="M360.31,225.69h0l-2.18-.45,2.16-.57s0,0,.06,0l-.5-.9.82.57,0,0,.53-2.19.49,2.19a.6.6,0,0,0,.06.11l1-.51-.6.8,2.22.57-2.27.44s-.05,0-.07,0l.59,1-.9-.64-.5,2.29-.51-2.34,0,0-.92.55Z" style="fill:#fff"/><path d="M341.12,218.7l-2.19-.44,2.17-.57,0,0-.5-.9.83.58s0,0,0,0l.52-2.19.49,2.19c0,.05.05.07.07.11l.95-.51-.59.81,2.22.57-2.27.44-.08,0,.6,1-.91-.63-.49,2.28-.52-2.33s0,0,0,0l-.92.55.58-.9Z" style="fill:#fff"/><path d="M338.35,231.51l2.16-.57.06,0-.5-.9.82.57s0,0,0,0l.53-2.19.49,2.19c0,.05,0,.07.06.11l1-.51-.6.81,2.22.57-2.27.44-.07,0,.59,1-.9-.63-.5,2.28-.51-2.34,0,0-.92.54.58-.89h0Z" style="fill:#fff"/><path d="M328.86,221.39l1-.51-.6.81,2.22.57-2.26.44-.08,0,.59,1-.9-.63-.33,1.51,0-1.77,0-1.29,0-2.26.44,2C328.81,221.33,328.84,221.35,328.86,221.39Z" style="fill:#fff"/><path d="M351.86,239.22l-.5-.9.82.57s0,0,0,0l.53-2.19.49,2.19s0,.07.06.11l1-.51-.6.81,2.22.57h-6.22l2.16-.57Z" style="fill:#fff"/><path d="M390.51,188.81l-.08,0,.59,1-.9-.63-.5,2.28-.51-2.34s0,0,0,0l-.92.55.58-.89h0l-2.19-.45,2.16-.56s0,0,.06,0l-.5-.9.83.57s0,0,0,0l.21-.87h.61l.2.86c0,.05,0,.07.06.11l1-.51-.6.81,2.22.57Z" style="fill:#fff"/><path d="M405.54,188.23l-.08,0,.6,1-.91-.63-.49,2.28-.52-2.33s0,0,0,0l-.92.55.58-.9h0l-2.19-.44,2.17-.57s0,0,.05,0l-.34-.63h.25l.42.3s0,0,0,0l.06-.26h.89l.06.26a.23.23,0,0,0,.07.1l.68-.36h.17l-.5.66,2.22.57Z" style="fill:#fff"/><polygon points="398.63 186.54 398.53 239.92 411.11 239.94 414.26 186.57 398.63 186.54" style="fill:#e0e0e0"/><polygon points="408.07 186.56 405.87 239.94 403.01 239.93 403.12 186.55 408.07 186.56" style="fill:#e0e0e0"/><rect width="53.38" height="6.86" x="337.1" y="209.73" transform="translate(149.92 576.54) rotate(-89.89)" style="fill:#e0e0e0"/><path d="M391.66,178.76s-6.3-11.85-8.88-11.85c0,0-9,4-14.09,16.73h-4.45s-2.44-10.2-14.38-15.73c0,0-6.7,12.29-6.94,12.17a24.25,24.25,0,0,0,15.34,6.3c9.6.43,23.55-.57,23.55-.57S390.25,182.15,391.66,178.76Z" style="fill:#e0e0e0"/><path d="M361.94,185.3s-10.09-5.72-18.19-5.12C343.75,180.18,353.21,188,361.94,185.3Z" style="fill:#ebebeb"/><path d="M390.67,178.69s-13,.83-19.73,7.09C370.94,185.78,383.38,187.13,390.67,178.69Z" style="fill:#ebebeb"/><path d="M281.72,175.33s-11.3.65-12.21,2.63c0,0-.14,8.32,7.85,16.7l-1.58,3.41v5.54c3.71-7.21,7.86-18.25,7.86-18.25S283.83,177.61,281.72,175.33Z" style="fill:#455a64"/><g style="opacity:.30000000000000004"><path d="M281.32,176.06s-3.94,10.25-1.53,17.63C279.79,193.69,285.21,184.63,281.32,176.06Z"/></g><path d="M299.09,189.12s-5.24-10-7.42-10.05c0,0-7.64,3.29-12,14l-3.75,0s-2-8.62-12-13.36c0,0-5.73,10.33-5.93,10.23a20.54,20.54,0,0,0,12.91,5.4c8.09.43,19.86-.33,19.86-.33S297.88,192,299.09,189.12Z" style="fill:#455a64"/><g style="opacity:.30000000000000004"><path d="M274,194.45s-8.48-4.89-15.32-4.43C258.66,190,266.59,196.7,274,194.45Z"/></g><g style="opacity:.30000000000000004"><path d="M298.26,189.06s-11,.62-16.69,5.85C281.57,194.91,292.05,196.13,298.26,189.06Z"/></g><polygon points="315.57 194.98 312.58 239.98 243.11 239.33 242.56 194.29 315.57 194.98" style="fill:#092853"/><g style="opacity:.30000000000000004"><polygon points="302.39 194.85 301.97 239.88 312.58 239.98 315.57 194.98 302.39 194.85"/></g><polygon points="310.35 194.93 308.16 239.94 305.75 239.92 306.17 194.89 310.35 194.93" style="fill:#455a64"/><rect width="45.03" height="5.79" x="250.32" y="214.2" transform="matrix(0.01, -1, 1, 0.01, 53.19, 487.88)" style="fill:#455a64"/><rect width="71.21" height="4.37" x="242.8" y="214.13" style="fill:#455a64"/><path d="M345,192.12s-8.89.51-9.61,2.07c0,0-.11,6.54,6.18,13.13L340.32,210v4.36c2.92-5.66,6.19-14.35,6.19-14.35S346.64,193.91,345,192.12Z" style="fill:#092853"/><g style="opacity:.30000000000000004"><path d="M344.67,192.7s-3.1,8.05-1.2,13.86C343.47,206.56,347.74,199.44,344.67,192.7Z"/></g><path d="M358.65,203s-4.12-7.89-5.83-7.91c0,0-6,2.59-9.44,11l-2.95,0s-1.57-6.78-9.47-10.5c0,0-4.5,8.12-4.66,8a16.09,16.09,0,0,0,10.15,4.25c6.37.34,15.63-.26,15.63-.26S357.7,205.21,358.65,203Z" style="fill:#092853"/><g style="opacity:.30000000000000004"><path d="M338.9,207.16s-6.67-3.84-12-3.48C326.85,203.68,333.09,208.93,338.9,207.16Z"/></g><g style="opacity:.30000000000000004"><path d="M358,202.92s-8.62.48-13.12,4.6C344.87,207.52,353.11,208.48,358,202.92Z"/></g><polygon points="384.4 207.16 383.86 240.01 300.55 240.14 300.62 207.31 384.4 207.16" style="fill:#263238"/><path d="M308.82,207.29a33.63,33.63,0,0,1-3.93,4.57,33.9,33.9,0,0,1-4.26,4.26,35.8,35.8,0,0,1,3.88-4.62A37,37,0,0,1,308.82,207.29Z" style="fill:#fff"/><path d="M319,207.27a4.42,4.42,0,0,1-.65.85c-.44.52-1.09,1.27-1.9,2.18-1.63,1.82-3.9,4.32-6.44,7s-4.85,5.19-6.54,7c-.85.87-1.54,1.58-2,2.06a4.33,4.33,0,0,1-.8.71,4.42,4.42,0,0,1,.65-.85c.44-.52,1.09-1.26,1.91-2.17,1.62-1.83,3.9-4.32,6.43-7.06s4.85-5.18,6.55-6.94c.84-.88,1.54-1.59,2-2.07A4.33,4.33,0,0,1,319,207.27Z" style="fill:#fff"/><path d="M329.66,207.29s-.1.1-.3.32l-.85.94L325.44,212l-10.11,11.55-10.15,11.53-3.11,3.46a9.9,9.9,0,0,1-1.2,1.22,13.34,13.34,0,0,1,1-1.35l3-3.57c2.55-3,6.09-7.11,10-11.63s7.56-8.56,10.23-11.46S329.55,207.16,329.66,207.29Z" style="fill:#fff"/><path d="M340.58,207.29s-.11.1-.31.32l-.86.94c-.79.9-1.85,2.08-3.12,3.51L326,223.68l-10.31,11.58-3.16,3.47a11,11,0,0,1-1.21,1.23,11.27,11.27,0,0,1,1.06-1.36l3-3.59c2.59-3,6.19-7.14,10.2-11.68s7.68-8.61,10.39-11.51S340.47,207.16,340.58,207.29Z" style="fill:#fff"/><path d="M352.75,207.59s-.11.1-.31.32l-.84.93-3.08,3.5-10.1,11.57-10.15,11.54-3.11,3.46a11.83,11.83,0,0,1-1.2,1.23,11.11,11.11,0,0,1,1-1.36l3-3.57c2.54-3,6.08-7.12,10-11.64s7.56-8.58,10.22-11.48S352.64,207.46,352.75,207.59Z" style="fill:#fff"/><path d="M363.76,207.27c.1.09-6.32,7.54-14.36,16.62s-14.64,16.38-14.74,16.29S341,232.64,349,223.55,363.65,207.17,363.76,207.27Z" style="fill:#fff"/><path d="M376.65,207.07c.11.1-6.32,7.54-14.35,16.63S347.66,240.08,347.55,240s6.32-7.54,14.36-16.62S376.54,207,376.65,207.07Z" style="fill:#fff"/><path d="M383.59,214.48c.11.09-4.88,5.91-11.13,13S361,240.2,360.93,240.11s4.88-5.91,11.14-13S383.49,214.38,383.59,214.48Z" style="fill:#fff"/><rect width="3.81" height="32.87" x="323.99" y="207.27" transform="translate(-0.39 0.57) rotate(-0.1)" style="fill:#092853"/><rect width="83.33" height="3.03" x="300.63" y="222.9" style="fill:#092853"/><polygon points="376.84 207.16 376.84 240.11 374.14 240.12 374.08 207.16 376.84 207.16" style="fill:#092853"/><g style="opacity:.30000000000000004"><polygon points="366.82 207.21 366.88 240.11 383.86 240.01 384.08 207.18 366.82 207.21"/></g><path d="M366.82,240.11c-.14,0-.26-7.37-.26-16.46s.12-16.47.26-16.47.26,7.37.26,16.47S367,240.11,366.82,240.11Z" style="fill:#455a64"/><polygon points="285.83 218.72 277.53 219.65 276 205.96 279.53 203.2 284.3 205.03 285.83 218.72" style="fill:#fff"/><path d="M285.83,218.72a7,7,0,0,1-.18-1.05c-.1-.73-.22-1.68-.38-2.83-.31-2.41-.74-5.8-1.2-9.78l.15.2-4.78-1.82.25,0-3,2.38-.48.38.09-.23c.56,5.2,1.07,9.95,1.47,13.69l-.22-.17,6-.56,1.68-.14a4.78,4.78,0,0,1,.63,0,2,2,0,0,1-.54.11l-1.63.23c-1.43.19-3.52.47-6.11.79l-.2,0,0-.2c-.43-3.74-1-8.49-1.58-13.68l0-.15.11-.09.49-.38,3-2.37.11-.09.14.05,4.77,1.85.14.05V205c.44,4.09.77,7.55,1,10,.1,1.14.18,2.07.25,2.79A6.35,6.35,0,0,1,285.83,218.72Z" style="fill:#263238"/><path d="M280.37,204.47a3.68,3.68,0,0,1-1.75-1.25,8.38,8.38,0,0,1-2-4.77,15.68,15.68,0,0,1,.5-5.13,7.15,7.15,0,0,1,.65-2,10.36,10.36,0,0,1-.29,2.1,18.74,18.74,0,0,0-.34,5,8.77,8.77,0,0,0,1.73,4.58A20,20,0,0,0,280.37,204.47Z" style="fill:#263238"/><path d="M280.74,194.83a7.7,7.7,0,0,1,1.17,4.34,7.57,7.57,0,0,1-1,4.39,31,31,0,0,0,.49-4.38A31.69,31.69,0,0,0,280.74,194.83Z" style="fill:#263238"/><path d="M281.5,214.53l.11.92-.83.1-.11-.9a3.89,3.89,0,0,1-2.15-.42l.34-1.06a3.39,3.39,0,0,0,1.68.39l-.17-1.38c-.95-.12-2-.3-2.15-1.49-.11-.88.44-1.71,1.73-2l-.11-.92.83-.1.11.91a3.82,3.82,0,0,1,1.75.3l-.3,1.07a3.41,3.41,0,0,0-1.32-.28l.17,1.41c.95.11,2,.29,2.14,1.47C283.32,213.39,282.78,214.21,281.5,214.53ZM280.23,211l-.14-1.18c-.43.15-.58.41-.55.69S279.85,210.88,280.23,211Zm1.67,1.82c0-.28-.3-.41-.67-.5l.14,1.15C281.77,213.29,281.93,213.05,281.9,212.78Z" style="fill:#e0e0e0"/><polygon points="374.33 199.45 375.33 206.2 364.2 207.85 361.85 205.06 363.2 201.1 374.33 199.45" style="fill:#fff"/><path d="M374.33,199.45a5.32,5.32,0,0,1-.85.19l-2.31.4c-2,.34-4.7.8-7.93,1.3l.19-.16c-.42,1.23-.87,2.57-1.34,4l0-.25c.66.77,1.34,1.58,2,2.4l.33.39-.24-.09L375.3,206l-.17.23c-.27-2-.47-3.7-.61-4.88s-.21-1.86-.19-1.9a12.52,12.52,0,0,1,.36,1.75c.21,1.16.51,2.86.84,5l0,.2-.2,0-11.12,1.71-.14,0L364,208l-.32-.39-2-2.41-.1-.11.05-.14L363,201l0-.13.14,0c3.33-.47,6.16-.83,8.12-1.08l2.27-.27A3.8,3.8,0,0,1,374.33,199.45Z" style="fill:#263238"/><path d="M362.85,204.33s-.14.7-.94,1.49a6.79,6.79,0,0,1-3.85,1.76,12.62,12.62,0,0,1-4.21-.26,5.19,5.19,0,0,1-1.67-.51,6.93,6.93,0,0,1,1.73.14,16,16,0,0,0,4.08.12,7.37,7.37,0,0,0,3.68-1.53C362.47,204.88,362.78,204.29,362.85,204.33Z" style="fill:#263238"/><path d="M355,204.32a5.72,5.72,0,0,1,3.51-1.14,5.85,5.85,0,0,1,3.61.74c-.05.15-1.62-.34-3.58-.22S355,204.46,355,204.32Z" style="fill:#263238"/><path d="M371.06,203.22l.76-.12.1.67-.73.12a3.29,3.29,0,0,1-.28,1.76l-.88-.24a2.72,2.72,0,0,0,.28-1.38l-1.13.17c-.06.78-.18,1.65-1.15,1.81-.71.11-1.4-.31-1.69-1.36l-.75.12-.11-.68.74-.11a3.15,3.15,0,0,1,.19-1.43l.89.2a2.73,2.73,0,0,0-.19,1.09l1.14-.18c.06-.78.18-1.64,1.13-1.79C370.08,201.76,370.77,202.18,371.06,203.22Zm-2.87,1.14-1,.15c.14.34.36.45.58.42S368.14,204.67,368.19,204.36Zm1.44-1.41c-.23,0-.33.25-.39.55l.93-.14C370.05,203,369.85,202.91,369.63,203Z" style="fill:#e0e0e0"/><rect width="9.53" height="13.22" x="261.22" y="247.6" style="fill:#ebebeb"/><path d="M270.75,260.83a9.09,9.09,0,0,1-.05-1c0-.71,0-1.63-.07-2.74,0-2.34-.09-5.61-.11-9.47l.23.24-9.53,0c-.05.06.5-.49.26-.25h0v3.61c0,1.18,0,2.33,0,3.44,0,2.22,0,4.28,0,6.15l-.21-.22,6.87.11,1.94.06a3.32,3.32,0,0,1,.72.05,3.34,3.34,0,0,1-.63,0l-1.9.06c-1.65,0-4.06.08-7,.11H261v-.21c0-1.87,0-3.93,0-6.15v-3.44c0-.6,0-1.19,0-1.8v-1.81h0c-.23.23.32-.32.26-.27l9.53,0H271v.23c0,4-.07,7.3-.12,9.62,0,1.1-.05,2-.06,2.69A5.26,5.26,0,0,1,270.75,260.83Z" style="fill:#263238"/><rect width="10.3" height="13.22" x="383.72" y="247.03" style="fill:#ebebeb"/><path d="M394,260.25a6.63,6.63,0,0,1,0-1c0-.71,0-1.62-.07-2.73,0-2.33-.09-5.61-.11-9.48l.23.23-10.3,0L384,247h0v3.6c0,1.17,0,2.32,0,3.43,0,2.21,0,4.29,0,6.18l-.22-.21,7.42.11,2.1.05c.49,0,.76,0,.78.05a3.25,3.25,0,0,1-.69.05l-2.06.05c-1.79,0-4.39.09-7.55.12h-.21v-.22c0-1.89,0-4,0-6.18,0-1.11,0-2.26,0-3.43V247h0l.26-.26,10.3,0h.24V247c0,4-.07,7.31-.11,9.63,0,1.09-.05,2-.06,2.68A4.91,4.91,0,0,1,394,260.25Z" style="fill:#263238"/><rect width="179.75" height="8.96" x="234.51" y="239.66" style="fill:#ebebeb"/><path d="M414.26,248.62s0-.18,0-.55l0-1.65c0-1.49,0-3.72,0-6.76l.07.08c-22.67.1-94.63.18-179.74.18h0l.26-.26v9l-.26-.26,127.35.11,38.34.08,10.41,0,2.72,0h.93s-.29,0-.9,0l-2.67,0-10.36,0-38.28.08-127.54.1h-.26V239.4h.27c85.11,0,157.07.08,179.74.18h.08v.08c0,3.06,0,5.31,0,6.8,0,.73,0,1.27,0,1.64S414.26,248.62,414.26,248.62Z" style="fill:#263238"/></g><g id="freepik--Character--inject-16"><path d="M74.11,369.64S81.83,355.27,85,355.27c0,0,11,4.87,17.06,20.41h5.41s3-12.39,17.56-19.07c0,0,8.1,15,8.38,14.84a29.52,29.52,0,0,1-18.68,7.59c-11.68.48-28.63-.8-28.63-.8S75.82,373.78,74.11,369.64Z" style="fill:#092853"/><g style="opacity:.30000000000000004"><path d="M110.23,377.73s12.29-6.91,22.15-6.14C132.38,371.59,120.83,381.09,110.23,377.73Z"/></g><g style="opacity:.30000000000000004"><path d="M75.32,369.56s15.79,1.07,24,8.71C99.28,378.27,84.16,379.86,75.32,369.56Z"/></g><polygon points="44.01 375.7 44.65 473.65 156.24 473.81 156.24 375.9 44.01 375.7" style="fill:#092853"/><path d="M114,375.86a3,3,0,0,1,.46.42l1.26,1.29,4.57,4.8,14.91,16L150,414.42l4.44,4.91,1.19,1.36a3.09,3.09,0,0,1,.39.49,3,3,0,0,1-.46-.42l-1.26-1.29-4.57-4.8-14.91-16L120,382.62c-1.85-2-3.35-3.7-4.45-4.91l-1.18-1.35A2.66,2.66,0,0,1,114,375.86Z" style="fill:#fff"/><path d="M135.23,375.7a5.66,5.66,0,0,1,.91.82l2.34,2.38c2,2,4.65,4.83,7.58,8s5.51,6.06,7.38,8.17l2.2,2.51a6.87,6.87,0,0,1,.75,1,4.77,4.77,0,0,1-.9-.83l-2.32-2.4c-1.94-2.05-4.58-4.91-7.49-8.06s-5.58-6-7.47-8.08L136,376.66A5.13,5.13,0,0,1,135.23,375.7Z" style="fill:#fff"/><path d="M91.78,375.86A.87.87,0,0,1,92,376l.51.51,1.91,2c1.67,1.78,4,4.29,6.94,7.37l22.78,24.46,22.67,24.55c2.85,3.14,5.18,5.69,6.82,7.49l1.84,2.05.46.54c.11.13.16.19.15.2a1,1,0,0,1-.18-.16l-.51-.51-1.91-2-6.95-7.37-22.77-24.45-22.67-24.55-6.82-7.49-1.84-2-.47-.54C91.82,375.93,91.77,375.87,91.78,375.86Z" style="fill:#fff"/><path d="M69.43,375.86c.08-.11,1.42,1.16,3.66,3.55s5.47,5.9,9.41,10.26C90.37,398.4,101.13,410.55,113,424s22.5,25.72,30.19,34.6l9.09,10.54,2.45,2.88.63.76a2.53,2.53,0,0,1,.2.27s-.09-.07-.24-.23l-.67-.73-2.52-2.82-9.21-10.43-30.31-34.5L82.22,389.92c-3.9-4.4-7.06-7.94-9.27-10.37-1.11-1.22-2-2.16-2.57-2.78-.3-.31-.53-.55-.69-.7S69.43,375.88,69.43,375.86Z" style="fill:#fff"/><path d="M45.13,375.7c.08-.1,1.43,1.17,3.72,3.57s5.55,5.93,9.54,10.32c8,8.77,18.93,21,31,34.53S112.21,450,120,458.9l9.23,10.59,2.49,2.9.64.76a1.46,1.46,0,0,1,.2.27,1.44,1.44,0,0,1-.24-.23l-.68-.73-2.56-2.84-9.36-10.48C111.85,450.24,101,438,89,424.46L58.12,389.84c-4-4.42-7.18-8-9.42-10.43-1.12-1.22-2-2.16-2.61-2.79l-.7-.7C45.23,375.76,45.13,375.72,45.13,375.7Z" style="fill:#fff"/><path d="M44,404.92c.19-.23,3.8,3.49,9.38,9.66S66.6,429.35,75,438.92s15.88,18.26,21.29,24.58l6.39,7.51c.73.86,1.3,1.55,1.72,2.05l.44.55c.09.12.14.19.13.2a.72.72,0,0,1-.17-.17l-.48-.51-1.79-2L96,463.74c-5.51-6.29-13.06-14.93-21.41-24.48L53.11,414.82c-2.76-3.11-5-5.62-6.58-7.33-.78-.86-1.4-1.51-1.83-1.95A5.43,5.43,0,0,0,44,404.92Z" style="fill:#fff"/><path d="M44.38,431.92c.11-.1,8.51,9.22,18.75,20.81S81.6,473.79,81.5,473.89,73,464.66,62.74,453.07,44.27,432,44.38,431.92Z" style="fill:#fff"/><rect width="98.11" height="8.35" x="62.18" y="420.58" transform="translate(-313.71 535.26) rotate(-89.9)" style="fill:#fff"/><rect width="111.83" height="6.64" x="44.21" y="420.87" transform="translate(200.25 848.38) rotate(180)" style="fill:#fff"/><polygon points="54.56 375.68 54.5 473.66 60.41 473.67 60.59 375.69 54.56 375.68" style="fill:#fff"/><g style="opacity:.30000000000000004"><polygon points="73.5 375.75 73.33 473.81 44.65 473.65 44.01 375.7 73.5 375.75"/></g><path d="M73.34,472.74c-.15,0-.26-21.64-.26-48.32s.11-48.33.26-48.33.26,21.63.26,48.33S73.48,472.74,73.34,472.74Z" style="fill:#455a64"/><path d="M166.53,254a28.7,28.7,0,0,1-6.12,7.85l-3.78,1.7-2.79,10.86-12.31-7.54,3.39-11.17,2.64-9.31,9.62-5.48Z" style="fill:#ffbf9d"/><path d="M133.9,226.58l3.22,15.32,3.7,0,17.5,24.32,9.59-10.58s-11.72-9.29-12.89-14.69,1-4.69,1-4.69l-3.39-9.78Z" style="fill:#263238"/><path d="M147,210.49s7.46-.28,20.53-5.29a105.68,105.68,0,0,0,21.26-11.39,3.92,3.92,0,0,1,5.42.85c1.94,2.65,4,8.61,4.48,22.53.77,24.55-5,27.75-6.84,26.92s-13.66-8.23-22-10.69S148,230.23,148,230.23Z" style="fill:#e0e0e0"/><path d="M147,210.49a1.37,1.37,0,0,0,0,.33c0,.24,0,.56,0,1,0,.9.09,2.19.16,3.85.15,3.42.37,8.36.64,14.59v.14H148c3.82.25,8.17.65,12.91,1.37,2.37.36,4.84.8,7.35,1.44a47.18,47.18,0,0,1,7.59,2.73c5.1,2.26,10.22,5.23,15.66,8.26l.27.13.33.09a2.09,2.09,0,0,0,.66,0l.62-.19.54-.32a6.42,6.42,0,0,0,1.62-1.83,16.36,16.36,0,0,0,1.82-4.48,49.88,49.88,0,0,0,1.45-9.74l.12-2.21c0-.73,0-1.46.05-2.19,0-1.46,0-2.91,0-4.35,0-2.87-.17-5.71-.4-8.48a69,69,0,0,0-1.13-8.14,23.57,23.57,0,0,0-2.66-7.42,4.76,4.76,0,0,0-1.32-1.47,4,4,0,0,0-1.84-.7,4.2,4.2,0,0,0-1.93.2,6.75,6.75,0,0,0-1.62.94q-3,2-5.93,3.78a104.81,104.81,0,0,1-11.2,5.79,101.42,101.42,0,0,1-17.33,5.75c-2.1.47-3.76.75-4.88.91-.56.08-1,.13-1.28.16l-.44.05a1.63,1.63,0,0,0,.44,0c.29,0,.73-.05,1.29-.12a49.19,49.19,0,0,0,4.91-.82,98.31,98.31,0,0,0,17.43-5.61,104.24,104.24,0,0,0,11.27-5.77c2-1.15,3.95-2.4,6-3.77a6.38,6.38,0,0,1,1.53-.88,3.71,3.71,0,0,1,1.72-.18,3.79,3.79,0,0,1,2.84,2A23.25,23.25,0,0,1,197,202.6a65.24,65.24,0,0,1,1.11,8.08c.23,2.76.38,5.58.4,8.45,0,1.43.05,2.88,0,4.33,0,.73,0,1.46,0,2.19l-.12,2.19a49.92,49.92,0,0,1-1.43,9.64,15.91,15.91,0,0,1-1.77,4.36,5.88,5.88,0,0,1-1.48,1.69l-.47.27c-.16.07-.33.1-.5.16a1.48,1.48,0,0,1-1-.19c-5.39-3-10.57-6-15.7-8.23a46.24,46.24,0,0,0-7.65-2.74c-2.54-.64-5-1.06-7.4-1.42-4.76-.7-9.12-1.08-13-1.3l.15.14c-.35-6.18-.62-11.09-.81-14.48-.1-1.68-.18-3-.23-3.88,0-.43-.05-.77-.07-1S147,210.5,147,210.49Z" style="fill:#263238"/><polygon points="124.01 225.38 128.7 225.83 127.58 219.25 123.28 220.31 124.01 225.38" style="fill:#092853"/><path d="M127.12,218.5l.88,5.12.47,2.8a7.32,7.32,0,0,0,8.06,6l19.59-.39-1.73-24.83-20.27,2.15A8.45,8.45,0,0,0,127.12,218.5Z" style="fill:#092853"/><g style="opacity:.30000000000000004"><path d="M196.88,218c.32,13.07-1.78,23.72-4.69,23.79s-5.54-10.46-5.86-23.53,1.78-23.72,4.7-23.79S196.56,205,196.88,218Z"/></g><path d="M186.4,210.69s7.25-1.14,7.11,7.95-6.72,7.81-6.72,7.81A56.25,56.25,0,0,1,186.4,210.69Z" style="fill:#fff"/><path d="M148.49,215.25a62.68,62.68,0,0,1-7.68.82,64,64,0,0,1-7.71.35,62.68,62.68,0,0,1,7.68-.82A64,64,0,0,1,148.49,215.25Z" style="fill:#263238"/><path d="M148.67,218a62.68,62.68,0,0,1-7.68.82,64,64,0,0,1-7.71.35,65.13,65.13,0,0,1,7.68-.82A66.63,66.63,0,0,1,148.67,218Z" style="fill:#263238"/><path d="M148.85,220.72a66.54,66.54,0,0,1-7.68.81,64,64,0,0,1-7.71.35,64,64,0,0,1,7.68-.81A61.66,61.66,0,0,1,148.85,220.72Z" style="fill:#263238"/><path d="M149,223.45a64,64,0,0,1-7.67.81,61.84,61.84,0,0,1-7.72.35,66.54,66.54,0,0,1,7.68-.81A64,64,0,0,1,149,223.45Z" style="fill:#263238"/><path d="M151.2,246.43l3.67-5.24a2.84,2.84,0,0,1,4.21-.55,2.12,2.12,0,0,1,.61,2.22s4.35-.27,2.91,3.5c0,0,3.06.45,2.24,3.18,0,0,3.84.11,2.65,3.61s-6.11,4.23-7.21,3.5c0,0-1.19-.67-.13-2.55,0,0-4,3.26-5.69,2s.41-2.69.41-2.69-1.48.88-2.49.11,1.37-4.43,1.37-4.43a3.28,3.28,0,0,1-2.24-.35C150.62,248.06,151.2,246.43,151.2,246.43Z" style="fill:#ffbf9d"/><path d="M160.15,254.1c.11.08,1.07-1,2.46-2.11a9.17,9.17,0,0,0,2.35-2.28,13.87,13.87,0,0,0-2.66,1.9A6.61,6.61,0,0,0,160.15,254.1Z" style="fill:#ff9a6c"/><path d="M162.47,246.17a18.45,18.45,0,0,0-4.3,3.3,18.78,18.78,0,0,0-3.55,4.1c.11.09,1.71-1.71,3.88-3.74S162.55,246.28,162.47,246.17Z" style="fill:#ff9a6c"/><path d="M153.41,249.43a31.65,31.65,0,0,1,2.74-3.66,32.38,32.38,0,0,1,3.55-2.88,8.58,8.58,0,0,0-3.9,2.55A8.48,8.48,0,0,0,153.41,249.43Z" style="fill:#ff9a6c"/><path d="M141.42,244.51l2-1.32a2.38,2.38,0,0,1,2.22-.24,24.68,24.68,0,0,1,5.46,3.08c.72.9-.22,2.56-3.43,1.8s-.33-.05-.33-.05,6.29,4.45,3,10.18l-5.27-1.45s-4.39-8.45-4.53-9.85A2.47,2.47,0,0,1,141.42,244.51Z" style="fill:#ffbf9d"/><path d="M146.09,247.19c0,.08.68.36,1.63,1.08a8.21,8.21,0,0,1,3.12,8.21c-.22,1.17-.57,1.85-.49,1.89a4.23,4.23,0,0,0,.83-1.82,7.87,7.87,0,0,0-3.26-8.55A4.1,4.1,0,0,0,146.09,247.19Z" style="fill:#ff9a6c"/><path d="M189.4,195.52s-.08.14-.18.42l-.41,1.25c-.18.55-.39,1.22-.59,2s-.46,1.68-.66,2.68a68,68,0,0,0-1.19,7.11,73.75,73.75,0,0,0-.44,8.81,75.33,75.33,0,0,0,.68,8.79,67.45,67.45,0,0,0,1.4,7.07c.23,1,.51,1.88.74,2.67s.44,1.44.64,2l.44,1.24a2.19,2.19,0,0,0,.19.43,1.67,1.67,0,0,0-.09-.46l-.36-1.26c-.17-.55-.37-1.22-.56-2s-.46-1.67-.67-2.67c-.47-2-.91-4.38-1.28-7.05a73.11,73.11,0,0,1-.25-17.49c.3-2.68.67-5.09,1.09-7.08.17-1,.41-1.9.59-2.69s.35-1.47.5-2,.24-.93.32-1.28A2.48,2.48,0,0,0,189.4,195.52Z" style="fill:#263238"/><path d="M144.19,259.48,140,269.9l-6.8,14.76-14.37-15s-3.3-6.78-6.3-12.3c-2.15-3.94-7.16-4.5-7.16-4.5l-.15,36.86s18.51,17.08,23,19.17,14.17,8.32,17.63-3.25,9.3-36.48,9.3-36.48Z" style="fill:#ffbf9d"/><path d="M149.49,436.5l-3,22.83s22.13,10.22,22,14.5l-44.41-3.73,3.21-35.76Z" style="fill:#263238"/><path d="M133.22,456.21a1.84,1.84,0,0,0-1.46,2,1.75,1.75,0,0,0,1.93,1.47,1.94,1.94,0,0,0,1.54-2.09,1.83,1.83,0,0,0-2.18-1.31" style="fill:#e0e0e0"/><path d="M124.08,470.1l.26-2.85,43,4.48a3.42,3.42,0,0,1,1.33,2.36Z" style="fill:#455a64"/><path d="M146.89,459.52c0,.21-1.13.21-2.27.81s-1.81,1.47-2,1.36.25-1.34,1.65-2S147,459.32,146.89,459.52Z" style="fill:#455a64"/><path d="M151.4,461.9c0,.22-1,.5-1.78,1.36s-1.14,1.81-1.35,1.78-.24-1.28.81-2.32S151.42,461.7,151.4,461.9Z" style="fill:#455a64"/><path d="M153.54,467.78c-.2,0-.41-1.09.27-2.24s1.74-1.52,1.82-1.33-.62.77-1.16,1.72S153.76,467.78,153.54,467.78Z" style="fill:#455a64"/><path d="M147,454.2c-.11.19-1.08-.21-2.32-.24s-2.25.27-2.35.07.91-.89,2.37-.83S147.12,454,147,454.2Z" style="fill:#455a64"/><path d="M148.26,449.34a4.29,4.29,0,0,1-2.24-.22,10.2,10.2,0,0,1-2.28-.95,9.81,9.81,0,0,1-1.22-.8,2.62,2.62,0,0,1-.63-.59,1,1,0,0,1,0-1.18,1.21,1.21,0,0,1,1-.41,3,3,0,0,1,.83.2,8.36,8.36,0,0,1,1.35.61,8,8,0,0,1,1.94,1.55c.95,1.06,1.23,1.92,1.15,1.95s-.55-.67-1.53-1.56a8.8,8.8,0,0,0-1.89-1.32,8.2,8.2,0,0,0-1.25-.52c-.47-.17-.87-.21-1,0s-.06.11,0,.25a2.26,2.26,0,0,0,.47.44,12.78,12.78,0,0,0,1.12.79,12.15,12.15,0,0,0,2.09,1A15.17,15.17,0,0,1,148.26,449.34Z" style="fill:#455a64"/><path d="M194.18,386.21l12.32,19.45s23.54-6.31,26.17-2.94l-36.49,25.57-20.44-29.52Z" style="fill:#263238"/><path d="M194.3,411.77a1.84,1.84,0,0,0,.14,2.45,1.76,1.76,0,0,0,2.42-.12,1.94,1.94,0,0,0-.15-2.59,1.85,1.85,0,0,0-2.52.4" style="fill:#e0e0e0"/><path d="M196.17,428.29l-1.62-2.36,35.92-24.1a3.41,3.41,0,0,1,2.52,1Z" style="fill:#455a64"/><path d="M206.92,405.55c.11.19-.74.89-1.23,2.09s-.44,2.28-.66,2.32-.66-1.19,0-2.62S206.84,405.36,206.92,405.55Z" style="fill:#455a64"/><path d="M211.91,404.5c.17.15-.41,1-.5,2.18s.29,2.12.1,2.24-1-.83-.86-2.31S211.79,404.33,211.91,404.5Z" style="fill:#455a64"/><path d="M217.32,407.64c-.14.16-1-.58-1.23-1.89s.36-2.29.54-2.19,0,1,.21,2.07S217.48,407.5,217.32,407.64Z" style="fill:#455a64"/><path d="M203.59,401.4c0,.22-1,.54-1.94,1.31s-1.55,1.64-1.75,1.55.12-1.26,1.28-2.15S203.59,401.2,203.59,401.4Z" style="fill:#455a64"/><path d="M201.45,396.86c.06.07-.58.68-1.86,1.26a9.8,9.8,0,0,1-2.36.74,10.72,10.72,0,0,1-1.45.16,2.6,2.6,0,0,1-.86,0,1,1,0,0,1-.75-.91,1.22,1.22,0,0,1,.52-1,3,3,0,0,1,.76-.38,7.82,7.82,0,0,1,1.43-.39,8,8,0,0,1,2.48-.05,3.76,3.76,0,0,1,2.13.76c0,.12-.85-.16-2.18-.22a8.76,8.76,0,0,0-2.3.2,8.63,8.63,0,0,0-1.29.4c-.46.17-.8.39-.78.64,0,.09,0,.12.18.18a2.08,2.08,0,0,0,.63,0,11.7,11.7,0,0,0,1.37-.11,11.85,11.85,0,0,0,2.27-.54A16.36,16.36,0,0,1,201.45,396.86Z" style="fill:#263238"/><path d="M82.43,322.9c.88,0-3.29,11.57,27.28,15.65s42.1,8.54,47.93,15.82-7.49,90.8-7.49,90.8l-26.33-1.68s1.6-41.11,2.18-46.93,4.59-21.17,4.59-21.17h0l-64.69.66c-.38,0-.76,0-1.13,0-14.44-.46-25.68-19-24.48-33.4l1.42-7.81Z" style="fill:#263238"/><path d="M82.87,328.48s30-8.44,46-9.9,25.31,1.18,28,4.12c6.34,6.86,48.1,74.61,48.1,74.61l-22.28,15.3s-36.67-51.8-46.86-65.49L132.36,343l-49.93-6.88Z" style="fill:#263238"/><path d="M86.64,333.9a1.24,1.24,0,0,0,.22.06l.65.15,2.51.54,9.26,1.9,30.58,6.11,2.46.49-.15-.13a84,84,0,0,0,16.16,24.59,73.55,73.55,0,0,0,6.54,6l1.91,1.45.5.37.18.12s-.05-.06-.15-.15l-.48-.4L155,373.48a78.59,78.59,0,0,1-6.43-6.06,85.09,85.09,0,0,1-8.21-10.31,83.24,83.24,0,0,1-7.78-14.23l0-.11-.11,0-2.46-.49-30.6-6-9.28-1.77L87.53,334l-.66-.11Z" style="fill:#455a64"/><path d="M66,296.68a3.91,3.91,0,0,0,.75.72A15,15,0,0,0,69.12,299a15.54,15.54,0,0,0,4,1.53,14.64,14.64,0,0,0,5.24.22,17.28,17.28,0,0,0,8.48-3.87,20.11,20.11,0,0,0,2-1.95,4.11,4.11,0,0,0,.63-.81c-.07-.06-1,1.05-2.9,2.49a18.07,18.07,0,0,1-8.33,3.66,15.21,15.21,0,0,1-9-1.58C67.17,297.61,66.07,296.6,66,296.68Z" style="fill:#263238"/><g style="opacity:.30000000000000004"><path d="M88.61,295.13A13.32,13.32,0,0,1,83,303.82a11.87,11.87,0,0,1-10.41,1.29,9.81,9.81,0,0,1-6.4-7.95,29.5,29.5,0,0,0,7.43,3.22,15.15,15.15,0,0,0,15.27-5.48l-.42.36"/></g><path d="M42.23,262.43s3.1-8.92,9-13.19,14.25-3.75,18.91-4.5l18.2.89,12.47,2.79S110.38,272,110,290.3c-.14,6.85-11.14,23.83-11.3,28-.15,3.85,10.53,11.41,5.71,11.75S39,344.6,39,344.6s-1.55-12.74,7.77-49.9C48.31,288.56,42.23,262.43,42.23,262.43Z" style="fill:#092853"/><path d="M112.27,291.9l18-13.78s-17-22-20.58-25.46c-4.2-4.09-12.19-4.7-12.19-4.7l8.74,39.82Z" style="fill:#092853"/><path d="M104.4,265.31a9,9,0,0,1,.55,1.44c.33.93.79,2.29,1.33,4a75.84,75.84,0,0,1,3.26,13.47,28.33,28.33,0,0,1-.1,7.67,32.33,32.33,0,0,1-1.61,6,39.39,39.39,0,0,1-1.66,3.87,7.45,7.45,0,0,1-.73,1.35,10.41,10.41,0,0,1,.55-1.44c.39-.9.92-2.24,1.49-3.9a34,34,0,0,0,1.48-6,28.68,28.68,0,0,0,.06-7.54,86.31,86.31,0,0,0-3.1-13.42l-1.16-4A7.64,7.64,0,0,1,104.4,265.31Z" style="fill:#263238"/><path d="M24.3,215c2.53-.62,5.23.3,7.88.37,5,.12,9.37-2.85,12.2-6.46s4.43-7.85,6.59-11.83,3.61-7.63,8.19-10.51c8.07-5.09,20.38-2,19.77,6.33L73.09,199a49.78,49.78,0,0,1-6.82,33.52c-1.22,2-2.73,4-5.09,4.89s-5.7-.11-6.26-2.36c-3.15,2.52-6.41,5.06-10.38,6.4s-8.84,1.23-12.17-1.24-4.14-7.62-.92-10.07c-4.3-.34-8.79-2.18-10.82-5.64S20.16,216,24.3,215Z" style="fill:#263238"/><path d="M89.47,185.2c-5.15-1.4-10,.17-14.65,2.69a27.11,27.11,0,0,0-13.43,27.78,20.85,20.85,0,0,0,9,13.71c6.48,4.12,15.3,3.76,21.85-.25S103,217.84,104,210.23a25.33,25.33,0,0,0-2.54-15.39,19.29,19.29,0,0,0-12-9.64" style="fill:#263238"/><path d="M72.84,201.55c1-1.92.88-4.19,1.39-6.28,1.13-4.61,3.27-8.69,7.8-10.09,4.22-1.3,11.12.25,15.85,2.3a18.68,18.68,0,0,1,8.17,6.54,14.76,14.76,0,0,1,1.42,13.45l-23.58-5.82a26.68,26.68,0,0,1-7.71,4.07,5,5,0,0,1-2.54.15,2.22,2.22,0,0,1-1.71-1.71A4.82,4.82,0,0,1,72.84,201.55Z" style="fill:#263238"/><path d="M68.28,245.2,72.43,200a3.9,3.9,0,0,1,4-3.46l21.31-2.4c6.69.21,10,8.93,9.48,15.61-.54,7.42-1.5,16.46-3.12,21.82-3.26,10.8-11.91,11.05-11.91,11.05s0,.42-.64,4.43c0,0-1.08,8.29-10.3,6.45C75.25,252.3,68.28,245.2,68.28,245.2Z" style="fill:#ffbf9d"/><path d="M101.86,218.84a1.43,1.43,0,0,1-1.56,1.24A1.36,1.36,0,0,1,99,218.61a1.44,1.44,0,0,1,1.56-1.25A1.38,1.38,0,0,1,101.86,218.84Z" style="fill:#263238"/><path d="M104.64,214.15c-.2.16-1.17-.78-2.69-1s-2.74.4-2.88.2.15-.41.69-.69a3.91,3.91,0,0,1,2.34-.39,3.8,3.8,0,0,1,2.1,1C104.62,213.73,104.74,214.08,104.64,214.15Z" style="fill:#263238"/><path d="M87.94,216.35a1.44,1.44,0,0,1-1.56,1.24,1.38,1.38,0,0,1-1.29-1.48,1.43,1.43,0,0,1,1.56-1.24A1.37,1.37,0,0,1,87.94,216.35Z" style="fill:#263238"/><path d="M90.07,211.63c-.2.16-1.17-.78-2.69-1s-2.74.4-2.88.2.15-.41.69-.69a3.93,3.93,0,0,1,2.34-.39,3.8,3.8,0,0,1,2.11,1C90.05,211.21,90.17,211.56,90.07,211.63Z" style="fill:#263238"/><path d="M93.61,224.44a10.27,10.27,0,0,1,2.54-.11c.39,0,.77,0,.87-.27a1.94,1.94,0,0,0-.1-1.18l-.75-3.12c-1-4.44-1.7-8.06-1.52-8.1s1.15,3.52,2.17,8c.24,1.1.48,2.14.7,3.13a2.32,2.32,0,0,1,0,1.56,1,1,0,0,1-.72.48,2.49,2.49,0,0,1-.67,0A10,10,0,0,1,93.61,224.44Z" style="fill:#263238"/><path d="M92.2,242.61a28.38,28.38,0,0,1-14.24-6s2.67,8.14,13.86,8.62Z" style="fill:#ff9a6c"/><path d="M92.47,228a2.8,2.8,0,0,0-2.32-1.35,2.52,2.52,0,0,0-1.86.69,1.59,1.59,0,0,0-.37,1.8,1.88,1.88,0,0,0,1.93.78A5.82,5.82,0,0,0,92,229a1.73,1.73,0,0,0,.5-.39.51.51,0,0,0,.07-.57" style="fill:#ff9a6c"/><path d="M89,224.88c.25,0,0,1.68,1.28,3s3,1.43,3,1.66-.44.27-1.18.19a4.22,4.22,0,0,1-2.54-1.29,3.68,3.68,0,0,1-1-2.54C88.63,225.24,88.87,224.86,89,224.88Z" style="fill:#263238"/><path d="M91.38,205.56c-.21.4-1.7,0-3.52,0s-3.33.27-3.52-.14c-.08-.19.23-.55.86-.87a6,6,0,0,1,2.7-.55,5.87,5.87,0,0,1,2.66.69C91.18,205,91.47,205.38,91.38,205.56Z" style="fill:#263238"/><path d="M105.11,207.43c-.32.31-1.32-.19-2.58-.38s-2.36-.09-2.56-.48c-.08-.19.14-.51.65-.78a3.65,3.65,0,0,1,2.17-.28,3.59,3.59,0,0,1,2,1C105.15,206.9,105.25,207.28,105.11,207.43Z" style="fill:#263238"/><path d="M69.33,198c2.78-6.15,13.08-13.89,19.71-12.64L99,193A10.37,10.37,0,0,1,91.05,200c-2,.35-4.25.24-5.56,1.73s-1,4-2.23,5.6c-1.75,2.2-5.78,1.61-7.19,4-.62,1.07-.52,2.44-1.16,3.49-.84,1.4-4.81,2.84-6.3,2.16s-1.19-3.31-1.53-4.75a7.37,7.37,0,0,1,.35-4.94C68.47,204.33,68,200.89,69.33,198Z" style="fill:#263238"/><path d="M73,218.91c.11-.83-.58-2.89-1.37-3.13-2.12-.64-6-1-6.84,4.5-1.08,7.52,6.69,7.05,6.73,6.84S72.65,221.74,73,218.91Z" style="fill:#ffbf9d"/><path d="M69.66,223.94s-.14.07-.38.14a1.27,1.27,0,0,1-1-.12c-.75-.4-1.24-1.76-1.08-3.12a4.33,4.33,0,0,1,.64-1.82,1.48,1.48,0,0,1,1.13-.86.67.67,0,0,1,.72.46c.07.23,0,.37,0,.39s.18-.1.16-.42a.83.83,0,0,0-.23-.51,1,1,0,0,0-.7-.3,1.87,1.87,0,0,0-1.53,1,4.55,4.55,0,0,0-.76,2c-.16,1.52.41,3.05,1.45,3.52a1.42,1.42,0,0,0,1.23,0C69.63,224.12,69.69,224,69.66,223.94Z" style="fill:#ff9a6c"/><path d="M97,190.48c.4,3.14,4.69,7.54,6.51,10.13,3.46,4.95,4.09,6.54,3.06,16.75,2.19-3.35,3.94-6.67,4.18-10.66a16.55,16.55,0,0,0-3.31-11.25,12.9,12.9,0,0,0-10.44-5" style="fill:#263238"/><path d="M65.49,197.48a7.4,7.4,0,0,0,1.25.45c.41.13.91.28,1.5.41s1.27.32,2,.44a37.91,37.91,0,0,0,5.35.58,41,41,0,0,0,6.58-.36,40.11,40.11,0,0,0,6.42-1.5,35.36,35.36,0,0,0,5-2.05c.7-.32,1.29-.68,1.82-1a15.22,15.22,0,0,0,1.32-.82,7.09,7.09,0,0,0,1.08-.77,6.49,6.49,0,0,0-1.17.62c-.36.22-.81.48-1.36.75s-1.13.62-1.83.92a40.36,40.36,0,0,1-5,1.93,43.52,43.52,0,0,1-6.36,1.45,42.63,42.63,0,0,1-6.51.39,40.15,40.15,0,0,1-5.3-.48c-.76-.09-1.43-.25-2-.36s-1.1-.24-1.51-.34A7.33,7.33,0,0,0,65.49,197.48Z" style="fill:#455a64"/><path d="M64.17,202.82a3.51,3.51,0,0,0,.86.3,23.83,23.83,0,0,0,2.4.55,30.63,30.63,0,0,0,16-1.55,23,23,0,0,0,2.25-1,3.66,3.66,0,0,0,.79-.46c0-.07-1.2.48-3.15,1.16a34.36,34.36,0,0,1-15.89,1.53C65.44,203.07,64.19,202.74,64.17,202.82Z" style="fill:#455a64"/><path d="M83.24,184.65c0,.09-1.26.27-3.22.89a25.3,25.3,0,0,0-12.81,9.21c-1.21,1.67-1.79,2.82-1.88,2.78a3.09,3.09,0,0,1,.34-.85,16.19,16.19,0,0,1,1.24-2.13,23.06,23.06,0,0,1,13-9.36,16.56,16.56,0,0,1,2.42-.49A2.68,2.68,0,0,1,83.24,184.65Z" style="fill:#092853"/><path d="M65,198.18a9,9,0,0,1-.68,1.25,35.06,35.06,0,0,0-1.75,3.41A24.87,24.87,0,0,0,60.3,215.1a18.92,18.92,0,0,0,5.08,11.24,23.35,23.35,0,0,0,4.09,3.24s-.12,0-.34-.13a9.44,9.44,0,0,1-.94-.48,15.74,15.74,0,0,1-3.07-2.38,18.57,18.57,0,0,1-5.34-11.45,24,24,0,0,1,2.49-12.45,27.71,27.71,0,0,1,1.92-3.37A6.92,6.92,0,0,1,65,198.18Z" style="fill:#455a64"/><path d="M67.1,227.21a2.37,2.37,0,1,0,2.37-2.37A2.37,2.37,0,0,0,67.1,227.21Z" style="fill:#455a64"/><path d="M53,292,44.76,309.3,66,324.55l-3.45,12.62L34.05,323.33c-4.82-2.33-6.12-5.85-7.06-9.53a15.75,15.75,0,0,1,.23-5.65L34,284.91Z" style="fill:#ffbf9d"/><path d="M98.22,278.49s10.62.62,11.48,2.47c0,0,.13,7.81-7.38,15.69l1.48,3.2v5.21c-3.49-6.77-7.39-17.14-7.39-17.14S96.25,280.63,98.22,278.49Z" style="fill:#fff"/><g style="opacity:.30000000000000004"><path d="M98.6,279.18s3.71,9.63,1.44,16.56C100,295.74,94.94,287.23,98.6,279.18Z"/></g><path d="M81.91,291.45s4.92-9.42,7-9.44c0,0,7.17,3.09,11.26,13.17l3.53,0s1.87-8.1,11.3-12.55c0,0,5.39,9.7,5.57,9.6a19.09,19.09,0,0,1-12.12,5.08c-7.6.4-18.66-.31-18.66-.31S83.05,294.13,81.91,291.45Z" style="fill:#fff"/><g style="opacity:.30000000000000004"><path d="M105.5,296.46s8-4.6,14.39-4.17C119.89,292.29,112.44,298.57,105.5,296.46Z"/></g><g style="opacity:.30000000000000004"><path d="M82.69,291.39s10.3.58,15.68,5.5C98.37,296.89,88.53,298,82.69,291.39Z"/></g><polygon points="66.42 296.95 69.24 339.23 134.5 338.62 135.01 296.31 66.42 296.95" style="fill:#455a64"/><g style="opacity:.30000000000000004"><polygon points="78.81 296.83 79.21 339.13 69.24 339.23 66.42 296.95 78.81 296.83"/></g><polygon points="71.33 296.9 73.39 339.19 75.65 339.17 75.26 296.87 71.33 296.9" style="fill:#fff"/><rect width="5.44" height="42.3" x="103.86" y="296.57" transform="translate(-2.97 1.01) rotate(-0.54)" style="fill:#fff"/><rect width="66.89" height="4.1" x="67.89" y="314.94" transform="translate(202.68 633.99) rotate(180)" style="fill:#fff"/><path d="M66.76,324.42s2.45-3.06,4.36-3.92,4.74-1.1,5.15-1.55,1.15-2,2.28-1.4,3.4,3.64-.29,6.18l-2.79,1.11s6.18,9.85,7.3,10.68,10.55,1.79,10.55,1.79,1.66.72,1.53,2.14-2.92,1.74-2.92,1.74a4.34,4.34,0,0,1-3.47,2.35,15,15,0,0,1-3.41-.21,4.68,4.68,0,0,1-5,.92C74.46,342.08,62.24,337,62.24,337l.43-13.44Z" style="fill:#ffbf9d"/><path d="M35,311.19s.36-.49,1.17-1a9.85,9.85,0,0,1,7.23-1.36,3.38,3.38,0,0,1,1.47.52,17.91,17.91,0,0,0-5.12,0A18,18,0,0,0,35,311.19Z" style="fill:#ff9a6c"/><path d="M31.74,284.11l25,9.22s8.23-21.76,8.85-24.7,2.93-7.68-.25-13.49-7.26-9.33-11.64-7.36C40.3,253.81,31.74,284.11,31.74,284.11Z" style="fill:#092853"/><path d="M63.28,251.18a5.11,5.11,0,0,1,1,1.55,17.48,17.48,0,0,1,1.77,8.66,4.91,4.91,0,0,1-.31,1.81,42,42,0,0,0-.53-6.15A42.19,42.19,0,0,0,63.28,251.18Z" style="fill:#263238"/><path d="M31.74,284.11a2.28,2.28,0,0,1,.49.13l1.38.45,5,1.75,16.55,5.92,2,.73-.29.12c2.36-5.75,4.42-10.89,5.87-14.6l1.69-4.38c.19-.48.34-.87.46-1.19s.17-.41.19-.4a2.79,2.79,0,0,1-.11.43c-.08.28-.2.69-.37,1.21-.35,1.05-.88,2.57-1.56,4.44-1.38,3.74-3.39,8.9-5.74,14.66l-.09.2-.21-.07-2-.73-16.51-6-5-1.88-1.35-.53A1.94,1.94,0,0,1,31.74,284.11Z" style="fill:#263238"/></g></svg>